<svg width="80" height="80" viewBox="0 0 80 80" fill="none" xmlns="http://www.w3.org/2000/svg">
<rect width="80" height="80" fill="#FF4A00"/>
<path d="M40.5401 44.8651C43.5129 44.8651 45.8912 42.4934 45.8912 39.5287C45.8912 36.564 43.5129 34.1922 40.5401 34.1922C37.5673 34.1922 35.1891 36.564 35.1891 39.5287C35.1891 42.4934 37.5673 44.8651 40.5401 44.8651Z" fill="white"/>
<path fill-rule="evenodd" clip-rule="evenodd" d="M24.1486 47.2729C24.3468 52.0165 27.1214 55.1788 31.8779 55.7718C34.6525 56.1671 44.76 55.9694 47.1383 55.7718C52.2911 55.5741 55.6603 52.2141 55.8585 47.0753C56.0567 42.3318 56.0567 37.5882 55.8585 32.8447C55.6603 27.7059 52.2911 24.3459 47.1383 24.1482C42.3818 23.9506 37.6253 23.9506 32.8688 24.1482C27.716 24.3459 24.3468 27.5082 24.1486 32.6471C23.9505 37.3906 23.9505 42.3318 24.1486 47.2729ZM40.5401 31.2275C45.0984 31.2275 48.864 34.9828 48.6658 39.5287C48.6658 44.0746 44.9002 47.8299 40.3419 47.8299C35.9818 47.8299 32.2163 44.0746 32.2163 39.5287C32.2163 34.9828 35.9818 31.2275 40.5401 31.2275ZM47.0818 31.0296C47.0818 32.2155 48.0725 33.0061 49.0632 33.0061C50.2521 33.0061 51.0446 32.0179 51.0446 31.0296C51.0446 29.8437 50.0539 29.0531 49.0632 29.0531C47.8744 29.0531 47.0818 30.0414 47.0818 31.0296Z" fill="white"/>
<path d="M40.5401 44.8651C43.5129 44.8651 45.8912 42.4934 45.8912 39.5287C45.8912 36.564 43.5129 34.1922 40.5401 34.1922C37.5673 34.1922 35.1891 36.564 35.1891 39.5287C35.1891 42.4934 37.5673 44.8651 40.5401 44.8651Z" stroke="white" stroke-width="0.34443" stroke-miterlimit="10"/>
<path fill-rule="evenodd" clip-rule="evenodd" d="M24.1486 47.2729C24.3468 52.0165 27.1214 55.1788 31.8779 55.7718C34.6525 56.1671 44.76 55.9694 47.1383 55.7718C52.2911 55.5741 55.6603 52.2141 55.8585 47.0753C56.0567 42.3318 56.0567 37.5882 55.8585 32.8447C55.6603 27.7059 52.2911 24.3459 47.1383 24.1482C42.3818 23.9506 37.6253 23.9506 32.8688 24.1482C27.716 24.3459 24.3468 27.5082 24.1486 32.6471C23.9505 37.3906 23.9505 42.3318 24.1486 47.2729ZM40.5401 31.2275C45.0984 31.2275 48.864 34.9828 48.6658 39.5287C48.6658 44.0746 44.9002 47.8299 40.3419 47.8299C35.9818 47.8299 32.2163 44.0746 32.2163 39.5287C32.2163 34.9828 35.9818 31.2275 40.5401 31.2275ZM47.0818 31.0296C47.0818 32.2155 48.0725 33.0061 49.0632 33.0061C50.2521 33.0061 51.0446 32.0179 51.0446 31.0296C51.0446 29.8437 50.0539 29.0531 49.0632 29.0531C47.8744 29.0531 47.0818 30.0414 47.0818 31.0296Z" stroke="white" stroke-width="0.34443" stroke-miterlimit="10"/>
</svg>
