<svg width="81" height="80" viewBox="0 0 81 80" fill="none" xmlns="http://www.w3.org/2000/svg">
<rect width="80" height="80" transform="translate(0.4375)" fill="#FF4A00"/>
<path d="M40.9776 44.8651C43.9504 44.8651 46.3287 42.4934 46.3287 39.5287C46.3287 36.564 43.9504 34.1922 40.9776 34.1922C38.0048 34.1922 35.6266 36.564 35.6266 39.5287C35.6266 42.4934 38.0048 44.8651 40.9776 44.8651Z" fill="white"/>
<path fill-rule="evenodd" clip-rule="evenodd" d="M24.5861 47.2729C24.7843 52.0165 27.5589 55.1788 32.3154 55.7718C35.09 56.1671 45.1975 55.9694 47.5758 55.7718C52.7286 55.5741 56.0978 52.2141 56.296 47.0753C56.4942 42.3318 56.4942 37.5882 56.296 32.8447C56.0978 27.7059 52.7286 24.3459 47.5758 24.1482C42.8193 23.9506 38.0628 23.9506 33.3063 24.1482C28.1535 24.3459 24.7843 27.5082 24.5861 32.6471C24.388 37.3906 24.388 42.3318 24.5861 47.2729ZM40.9776 31.2275C45.5359 31.2275 49.3015 34.9828 49.1033 39.5287C49.1033 44.0746 45.3377 47.8299 40.7794 47.8299C36.4193 47.8299 32.6538 44.0746 32.6538 39.5287C32.6538 34.9828 36.4193 31.2275 40.9776 31.2275ZM47.5193 31.0296C47.5193 32.2155 48.51 33.0061 49.5007 33.0061C50.6896 33.0061 51.4821 32.0179 51.4821 31.0296C51.4821 29.8437 50.4914 29.0531 49.5007 29.0531C48.3119 29.0531 47.5193 30.0414 47.5193 31.0296Z" fill="white"/>
<path d="M40.9776 44.8651C43.9504 44.8651 46.3287 42.4934 46.3287 39.5287C46.3287 36.564 43.9504 34.1922 40.9776 34.1922C38.0048 34.1922 35.6266 36.564 35.6266 39.5287C35.6266 42.4934 38.0048 44.8651 40.9776 44.8651Z" stroke="white" stroke-width="0.34443" stroke-miterlimit="10"/>
<path fill-rule="evenodd" clip-rule="evenodd" d="M24.5861 47.2729C24.7843 52.0165 27.5589 55.1788 32.3154 55.7718C35.09 56.1671 45.1975 55.9694 47.5758 55.7718C52.7286 55.5741 56.0978 52.2141 56.296 47.0753C56.4942 42.3318 56.4942 37.5882 56.296 32.8447C56.0978 27.7059 52.7286 24.3459 47.5758 24.1482C42.8193 23.9506 38.0628 23.9506 33.3063 24.1482C28.1535 24.3459 24.7843 27.5082 24.5861 32.6471C24.388 37.3906 24.388 42.3318 24.5861 47.2729ZM40.9776 31.2275C45.5359 31.2275 49.3015 34.9828 49.1033 39.5287C49.1033 44.0746 45.3377 47.8299 40.7794 47.8299C36.4193 47.8299 32.6538 44.0746 32.6538 39.5287C32.6538 34.9828 36.4193 31.2275 40.9776 31.2275ZM47.5193 31.0296C47.5193 32.2155 48.51 33.0061 49.5007 33.0061C50.6896 33.0061 51.4821 32.0179 51.4821 31.0296C51.4821 29.8437 50.4914 29.0531 49.5007 29.0531C48.3119 29.0531 47.5193 30.0414 47.5193 31.0296Z" stroke="white" stroke-width="0.34443" stroke-miterlimit="10"/>
</svg>
