<svg width="96" height="99" viewBox="0 0 96 99" fill="none" xmlns="http://www.w3.org/2000/svg">
<path fill-rule="evenodd" clip-rule="evenodd" d="M91.2 49.555C91.2 74.1318 71.8587 94.0552 48 94.0552C24.1413 94.0552 4.8 74.1318 4.8 49.555C4.8 24.9782 24.1413 5.05482 48 5.05482C71.8587 5.05482 91.2 24.9782 91.2 49.555ZM96 49.555C96 76.8625 74.5097 98.9996 48 98.9996C21.4903 98.9996 0 76.8625 0 49.555C0 22.2475 21.4903 0.110352 48 0.110352C74.5097 0.110352 96 22.2475 96 49.555ZM52.0953 20.7123C51.2623 23.2179 50.4175 28.8974 53.7016 31.5701C57.8067 34.9109 58.5207 40.0892 57.6283 43.263C58.8182 41.9267 60.8053 38.0179 59.2346 33.0734C62.2688 36.1916 68.2757 44.2319 67.9902 51.4481C67.9902 53.905 67.473 56.3378 66.4681 58.6077C65.4633 60.8775 63.9905 62.94 62.1337 64.6772C60.277 66.4145 58.0728 67.7926 55.6469 68.7328C53.221 69.673 50.6209 70.1569 47.9951 70.1569C45.3693 70.1569 42.7692 69.673 40.3433 68.7328C37.9174 67.7926 35.7131 66.4145 33.8564 64.6772C31.9997 62.94 30.5269 60.8775 29.522 58.6077C28.5172 56.3378 28 53.905 28 51.4481C28.119 47.8846 29.6777 39.5881 34.9609 34.9109C34.8419 36.0802 35.2899 37.8182 36.2102 39.4211C36.6741 40.2289 37.3883 40.8469 38.019 41.3927C38.5473 41.8498 39.0171 42.2563 39.2321 42.6813C37.594 37.2495 38.0531 26.1237 52.0953 20.7123Z" fill="#FF4A00"/>
</svg>
