<svg width="50" height="50" viewBox="0 0 1152 1152" fill="none" xmlns="http://www.w3.org/2000/svg">
<path d="M736.525 211.924C735.047 217.522 722.585 267.789 714.348 301.794C710.652 316.579 707.484 329.252 707.061 329.991C706.639 330.836 704.421 329.991 700.091 327.456C690.164 321.648 628.174 287.538 607.476 276.555C600.611 272.859 595.014 270.43 595.014 271.063C595.014 271.697 599.767 281.835 605.469 293.557C625.957 335.482 648.45 384.905 647.5 385.856C647.183 386.173 608.004 394.515 579.702 400.112C565.762 402.964 567.451 402.647 547.07 406.871C537.248 408.878 528.8 410.567 528.272 410.567C527.744 410.567 527.533 410.99 527.955 411.623C528.694 412.891 541.578 419.016 591.107 441.826L630.92 460.202L654.47 444.572C696.184 416.692 724.275 398.634 730.189 395.888C737.898 392.403 750.148 391.664 759.758 394.199C779.929 399.373 796.614 415.108 802.634 434.54C807.28 449.852 803.69 474.247 795.347 483.224C790.7 488.293 769.579 503.183 709.596 543.63L693.227 554.718L693.755 566.863C693.966 573.516 694.494 588.512 694.811 600.128C696.289 656.944 697.134 671.728 698.613 670.778C699.246 670.461 714.876 647.334 733.462 619.348C752.049 591.363 767.89 568.341 768.629 568.13C769.896 567.813 777.183 575.628 793.024 593.792C798.832 600.445 815.306 619.243 831.992 638.146C849.734 658.317 850.156 658.739 852.057 658.739C853.535 658.739 852.374 644.271 845.826 579.007C843.82 558.942 842.13 541.095 842.13 539.3V535.92L849.628 536.66C853.746 536.976 871.277 539.511 888.491 542.151C940.448 550.177 961.886 553.24 963.892 552.923C965.16 552.712 952.276 539.089 921.228 508.146L876.768 463.687L892.187 453.76C900.635 448.268 914.575 439.503 923.023 434.328C962.308 410.251 981 398.317 981 397.367C981 396.205 972.658 394.938 916.581 387.862C876.24 382.793 856.175 379.625 854.697 378.147C854.275 377.724 857.126 365.368 861.244 350.901C878.775 288.066 887.646 255.117 887.223 254.589C886.695 254.061 866.313 268.318 825.233 297.781C798.409 317.107 786.793 324.922 786.054 324.288C784.681 322.915 778.45 307.814 758.068 257.018C747.297 230.3 738.426 208.228 738.109 208.017C737.898 207.806 737.159 209.496 736.525 211.924Z" fill="white"/>
<path d="M642.536 487.237C587.621 523.67 459.1 609.105 356.874 676.903C254.649 744.807 170.587 800.883 170.059 801.623C169.426 802.573 173.861 810.177 184.316 825.912C192.659 838.479 199.84 848.828 200.157 848.828C200.473 848.828 329.417 762.971 486.768 657.894L772.852 467.066L774.753 461.258C778.555 449.008 776.548 439.82 768.1 430.21C763.348 424.824 758.596 422.712 749.197 421.656L742.332 421.022L642.536 487.237Z" fill="white"/>
<circle cx="575.998" cy="575.996" r="544" stroke="white" stroke-width="64"/>
</svg>
