<svg width="50" height="50" viewBox="0 0 1153 1153" fill="none" xmlns="http://www.w3.org/2000/svg">
<path d="M699.066 390.534V587.068H753.254C812.779 587.068 815.242 586.863 825.403 580.808C836.179 574.548 843.157 566.337 846.852 555.356C848.905 549.198 848.905 547.351 848.905 392.279C848.905 251.061 848.699 234.846 847.262 229.817C841.823 211.755 828.379 198.721 811.137 195.129C807.545 194.41 787.225 194 752.433 194H699.066V390.534ZM808.571 222.839C810.111 223.352 812.779 225.096 814.319 226.636C819.655 231.665 820.476 234.436 820.887 249.419C821.297 262.761 821.195 263.172 819.553 260.195C817.5 256.501 813.19 251.78 810.419 250.138C808.982 249.317 795.538 248.701 766.288 248.393L724.21 247.88L723.903 234.743L723.595 221.71H764.646C791.124 221.71 806.724 222.12 808.571 222.839Z" fill="white"/>
<path d="M478.212 222.426C477.801 236.076 477.391 238.642 474.517 247.057C470.309 259.475 465.896 267.994 456.455 281.746C452.247 287.904 445.371 298.167 441.06 304.427C425.666 327.21 417.661 347.018 415.3 368.057C413.453 383.964 419.611 401.308 431.208 413.419C435.621 417.934 446.294 425.632 447.115 424.708C447.321 424.503 448.039 421.321 448.552 417.626C450.605 403.669 463.639 370.93 473.491 355.126C478.725 346.71 488.577 333.573 489.706 333.573C490.219 333.573 490.835 336.242 491.246 339.423C493.401 358.512 497.506 372.88 506.127 390.532C511.771 402.13 521.213 416.805 527.884 424.297L532.4 429.326L537.737 426.658C551.386 419.782 561.854 410.34 569.038 398.332C579.199 381.296 579.506 364.259 570.065 336.139C566.678 325.876 566.37 323.824 566.267 313.048C566.165 306.582 566.575 299.706 567.088 297.859C567.909 294.575 567.807 294.369 565.549 295.088C548.82 299.809 533.221 316.434 531.168 331.624C530.758 334.394 530.142 336.96 529.732 337.165C528.192 338.089 524.292 326.8 522.958 317.666C522.24 312.535 521.111 298.988 520.598 287.39C519.469 264.402 517.724 255.165 512.285 243.363C508.179 234.639 500.482 224.376 493.298 218.116C487.346 212.985 486.422 212.266 481.393 208.982L478.622 207.237L478.212 222.426Z" fill="white"/>
<path d="M385.229 529.286L385.537 588.605H502.533H619.53L619.838 529.286L620.043 470.069H502.533H385.023L385.229 529.286ZM440.956 485.771C449.269 490.8 451.424 500.55 446.19 509.376C442.701 515.431 439.622 517.484 433.259 518.099C425.562 518.818 419.712 515.534 416.325 508.555C414.067 504.039 413.76 502.295 414.273 498.497C416.223 485.463 429.77 478.998 440.956 485.771ZM512.591 486.9C519.262 492.032 521.212 501.166 517.209 509.068C514.131 514.918 510.539 517.484 504.278 518.099C497.607 518.715 492.578 516.971 488.781 512.66C482.008 504.86 482.316 496.137 489.602 488.337C495.657 481.871 505.202 481.256 512.591 486.9ZM583.302 486.285C590.589 490.8 593.257 501.063 589.05 508.965C585.971 514.918 582.379 517.484 576.118 518.099C569.14 518.715 564.316 516.868 560.006 511.942C553.643 504.45 553.848 496.65 560.827 488.953C564.111 485.361 566.163 484.027 569.242 483.514C574.271 482.59 578.787 483.514 583.302 486.285ZM440.854 537.599C450.603 543.244 452.245 556.996 444.138 565.103C432.643 576.598 414.17 568.388 414.375 552.07C414.478 543.141 417.557 539.138 427.101 535.341C429.667 534.417 437.467 535.649 440.854 537.599ZM507.46 536.162C512.591 538.009 515.259 540.473 517.517 545.501C520.083 551.043 519.98 555.969 517.209 561.409C514.131 567.361 509.41 570.132 502.02 570.132C485.908 570.132 478.005 552.685 488.679 540.473C493.399 535.136 500.173 533.596 507.46 536.162ZM583.2 538.317C590.897 543.346 593.257 553.712 588.742 562.332C585.663 568.285 576.529 571.672 569.037 569.722C555.182 566.027 550.769 549.196 561.135 539.754C567.395 534.11 576.016 533.494 583.2 538.317Z" fill="white"/>
<path d="M345.615 488.647C334.121 492.547 326.116 500.039 320.676 511.738C318.213 517.075 317.905 519.025 317.803 528.569C317.803 541.808 319.958 547.966 327.655 556.587C333.71 563.361 344.486 569.21 353.004 570.237L358.341 570.955V528.672V486.492H355.057C353.21 486.594 348.899 487.518 345.615 488.647Z" fill="white"/>
<path d="M306.719 612.417C306.308 612.725 306 681.692 306 765.539C306 930.669 305.897 925.64 311.542 936.827C315.031 943.703 323.755 952.529 330.426 955.916C342.228 961.868 334.941 961.663 502.637 961.663C593.771 961.663 658.736 961.253 661.712 960.74C671.769 958.79 678.44 955.505 685.214 949.142C692.706 942.164 695.99 937.032 698.761 928.309C700.505 922.459 700.608 914.967 700.608 767.182V612.212L503.971 611.904C395.8 611.801 307.026 612.007 306.719 612.417ZM358.341 780.01C358.854 908.501 358.957 921.433 360.496 924.204C362.549 927.898 365.012 930.156 369.117 932.311C372.093 933.851 371.683 933.953 360.188 933.953C347.154 933.953 343.973 933.235 339.56 929.027C332.684 922.562 333.197 934.569 332.889 780.113C332.684 667.734 332.889 639.922 333.915 639.203C334.634 638.793 340.381 638.485 346.539 638.588L357.828 638.895L358.341 780.01Z" fill="white"/>
<circle cx="576.713" cy="576.711" r="544" stroke="white" stroke-width="64"/>
</svg>
