<svg width="50" height="50" viewBox="0 0 1152 1152" fill="none" xmlns="http://www.w3.org/2000/svg">
<circle cx="576" cy="576" r="544" stroke="currentColor" stroke-width="64"/>
<path d="M565.877 193.599C553.49 195.245 533.651 203.277 520.781 211.889C510.91 218.373 499.588 229.599 494.072 238.115C491.362 242.276 482.652 256.792 474.717 270.34C466.685 283.888 453.427 306.339 445.202 320.178C436.976 334.016 420.718 361.403 409.105 381.144C397.493 400.789 374.171 440.369 357.139 469.013C340.204 497.561 325.204 523.303 323.946 526.109C315.527 544.302 320.752 559.302 337.978 566.173C342.042 567.818 348.72 567.915 430.879 568.399L519.329 568.883L510.716 575.269C499.394 583.592 451.201 618.43 406.686 650.655C344.849 695.267 337.01 701.074 333.139 705.622C325.301 714.525 325.881 721.783 334.784 726.234L339.429 728.557L395.364 728.847C426.041 728.944 451.201 729.331 451.201 729.621C451.201 729.912 445.202 741.137 437.847 754.492C424.395 778.878 416.944 792.62 393.622 835.49C378.816 862.78 380.654 859.49 356.655 903.231C346.01 922.682 336.333 941.069 335.171 944.166C330.042 958.101 334.881 961.972 347.752 954.23C352.107 951.52 374.558 934.295 400.88 913.392C404.364 910.586 427.879 892.102 453.137 872.264C478.394 852.425 502.2 833.748 505.975 830.748C509.749 827.748 519.523 820.007 527.748 813.62C535.974 807.136 555.522 791.652 571.199 779.266C586.876 766.879 602.553 754.589 606.037 751.879C625.005 737.266 644.843 721.396 648.714 717.718C655.004 711.718 658.681 704.751 658.004 699.815C656.649 689.364 647.165 686.558 612.811 686.364C602.94 686.267 591.328 685.977 586.876 685.687L578.844 685.009L592.683 672.429C608.553 657.913 665.068 606.237 666.617 604.688C669.52 601.979 690.326 582.914 711.035 564.044C771.227 509.174 774.615 505.787 777.905 497.174C781.195 488.465 776.453 481.787 764.841 478.884C759.325 477.433 752.067 477.433 671.068 479.271C622.779 480.433 582.231 481.304 580.973 481.304C578.844 481.304 579.231 480.723 584.263 475.207C590.36 468.82 608.069 450.433 634.101 423.724C642.907 414.627 662.746 394.208 678.133 378.241C693.519 362.274 714.035 341.177 723.616 331.306C733.196 321.436 753.905 300.146 769.582 283.888C785.259 267.63 803.453 248.856 810.033 242.179C823.968 227.954 828.13 222.438 830.162 215.47C833.355 204.631 827.355 196.986 813.323 193.987C809.646 193.212 773.744 192.922 688.487 193.019C622.682 193.116 567.522 193.406 565.877 193.599Z" fill="currentColor"/>
</svg>
