<svg width="46" height="46" viewBox="0 0 37 29" fill="none" xmlns="http://www.w3.org/2000/svg">
<path d="M25.4498 0.176556C25.3833 0.427987 24.8235 2.68612 24.4535 4.21368C24.2875 4.87783 24.1452 5.44711 24.1262 5.48032C24.1072 5.51827 24.0076 5.48032 23.8131 5.36646C23.3671 5.10554 20.5824 3.57324 19.6526 3.07987C19.3443 2.91383 19.0928 2.80472 19.0928 2.83318C19.0928 2.86164 19.3063 3.31706 19.5625 3.84365C20.4828 5.727 21.4933 7.94718 21.4506 7.98988C21.4364 8.00411 19.6763 8.37888 18.405 8.63031C17.7787 8.7584 17.8547 8.74417 16.9391 8.93393C16.4979 9.02406 16.1184 9.09997 16.0946 9.09997C16.0709 9.09997 16.0614 9.11894 16.0804 9.14741C16.1136 9.20433 16.6924 9.47948 18.9173 10.5042L20.7058 11.3296L21.7637 10.6275C23.6376 9.37512 24.8995 8.5639 25.1651 8.44055C25.5114 8.284 26.0617 8.2508 26.4934 8.36465C27.3995 8.59711 28.1491 9.30396 28.4195 10.1768C28.6282 10.8647 28.4669 11.9606 28.0921 12.3638C27.8834 12.5915 26.9346 13.2604 24.24 15.0774L23.5047 15.5755L23.5284 16.121C23.5379 16.4199 23.5617 17.0936 23.5759 17.6154C23.6423 20.1677 23.6803 20.8318 23.7467 20.7891C23.7751 20.7749 24.4772 19.736 25.3122 18.4788C26.1471 17.2216 26.8587 16.1875 26.8919 16.178C26.9488 16.1637 27.2762 16.5148 27.9878 17.3308C28.2487 17.6296 28.9888 18.4741 29.7383 19.3232C30.5353 20.2293 30.5543 20.2483 30.6397 20.2483C30.7061 20.2483 30.6539 19.5984 30.3598 16.6666C30.2696 15.7652 30.1937 14.9635 30.1937 14.8829V14.7311L30.5305 14.7643C30.7156 14.7785 31.5031 14.8924 32.2763 15.011C34.6104 15.3715 35.5734 15.5091 35.6635 15.4948C35.7205 15.4854 35.1417 14.8734 33.747 13.4834L31.7497 11.4862L32.4424 11.0403C32.8219 10.7936 33.4481 10.3998 33.8276 10.1674C35.5924 9.08573 36.432 8.54967 36.432 8.50697C36.432 8.45479 36.0573 8.39786 33.5382 8.08001C31.726 7.8523 30.8247 7.70998 30.7583 7.64357C30.7393 7.62459 30.8674 7.06955 31.0524 6.41962C31.8399 3.59696 32.2384 2.11684 32.2194 2.09312C32.1957 2.0694 31.2801 2.70984 29.4347 4.0334C28.2297 4.90155 27.7079 5.2526 27.6747 5.22414C27.613 5.16247 27.3331 4.48408 26.4175 2.20223C25.9336 1.00201 25.5351 0.0105171 25.5209 0.00102917C25.5114 -0.00845878 25.4782 0.0674448 25.4498 0.176556Z" fill="white"/>
<path d="M21.2272 12.5437C18.7603 14.1804 12.9869 18.0183 8.39475 21.0639C3.80258 24.1143 0.026378 26.6333 0.00265815 26.6666C-0.0258057 26.7092 0.173441 27.0508 0.643094 27.7577C1.01787 28.3222 1.34046 28.7871 1.35469 28.7871C1.36892 28.7871 7.16131 24.9303 14.2298 20.21L27.0813 11.6376L27.1666 11.3767C27.3374 10.8264 27.2473 10.4137 26.8678 9.982C26.6543 9.74006 26.4408 9.64518 26.0186 9.59774L25.7102 9.56928L21.2272 12.5437Z" fill="white"/>
</svg>