<svg width="46" height="46" viewBox="0 0 46 46" fill="none" xmlns="http://www.w3.org/2000/svg">
<path d="M28.498 14.6362V23.4648H30.9323C33.6062 23.4648 33.7169 23.4556 34.1733 23.1836C34.6574 22.9024 34.9709 22.5336 35.1369 22.0403C35.2291 21.7637 35.2291 21.6807 35.2291 14.7145C35.2291 8.37079 35.2198 7.64236 35.1553 7.41646C34.9109 6.60505 34.307 6.01954 33.5325 5.85818C33.3711 5.82591 32.4583 5.80747 30.8954 5.80747H28.498V14.6362ZM33.4172 7.10296C33.4864 7.12601 33.6062 7.20439 33.6754 7.27354C33.9151 7.49944 33.952 7.62392 33.9705 8.29702C33.9889 8.89636 33.9843 8.9148 33.9105 8.7811C33.8183 8.61513 33.6247 8.40306 33.5002 8.32929C33.4357 8.29241 32.8317 8.26475 31.5178 8.25092L29.6276 8.22787L29.6137 7.63775L29.5999 7.05225H31.444C32.6335 7.05225 33.3342 7.07069 33.4172 7.10296Z" fill="white"/>
<path d="M18.575 7.08458C18.5566 7.69775 18.5381 7.81301 18.4091 8.19105C18.22 8.74889 18.0218 9.13155 17.5976 9.74932C17.4086 10.0259 17.0997 10.487 16.9061 10.7682C16.2146 11.7917 15.855 12.6815 15.7489 13.6266C15.6659 14.3412 15.9426 15.1203 16.4635 15.6643C16.6618 15.8672 17.1412 16.2129 17.1781 16.1714C17.1873 16.1622 17.2196 16.0193 17.2427 15.8533C17.3349 15.2263 17.9204 13.7557 18.3629 13.0457C18.5981 12.6676 19.0407 12.0775 19.0914 12.0775C19.1144 12.0775 19.1421 12.1974 19.1605 12.3403C19.2573 13.1978 19.4418 13.8433 19.829 14.6362C20.0826 15.1572 20.5067 15.8165 20.8064 16.153L21.0092 16.3789L21.249 16.259C21.8622 15.9502 22.3324 15.526 22.6551 14.9866C23.1115 14.2213 23.1254 13.456 22.7012 12.1928C22.5491 11.7317 22.5353 11.6395 22.5306 11.1555C22.526 10.865 22.5445 10.5561 22.5675 10.4731C22.6044 10.3256 22.5998 10.3164 22.4984 10.3487C21.7469 10.5607 21.0461 11.3076 20.9539 11.9899C20.9355 12.1144 20.9078 12.2297 20.8894 12.2389C20.8202 12.2804 20.645 11.7732 20.5851 11.3629C20.5528 11.1324 20.5021 10.5239 20.4791 10.0029C20.4284 8.97019 20.35 8.55526 20.1056 8.02508C19.9212 7.63321 19.5755 7.17218 19.2527 6.89095C18.9853 6.66044 18.9438 6.62817 18.7179 6.48064L18.5935 6.40226L18.575 7.08458Z" fill="white"/>
<path d="M14.3998 20.8704L14.4137 23.5352H19.6694H24.9251L24.9389 20.8704L24.9482 18.2103H19.6694H14.3906L14.3998 20.8704ZM16.9032 18.9157C17.2767 19.1416 17.3735 19.5795 17.1384 19.976C16.9816 20.248 16.8433 20.3402 16.5575 20.3679C16.2117 20.4002 15.9489 20.2526 15.7968 19.9391C15.6953 19.7363 15.6815 19.6579 15.7046 19.4873C15.7922 18.9018 16.4007 18.6114 16.9032 18.9157ZM20.1212 18.9664C20.4209 19.1969 20.5085 19.6072 20.3287 19.9622C20.1904 20.225 20.029 20.3402 19.7478 20.3679C19.4481 20.3956 19.2222 20.3172 19.0516 20.1235C18.7473 19.7732 18.7612 19.3813 19.0885 19.0309C19.3605 18.7405 19.7893 18.7128 20.1212 18.9664ZM23.2977 18.9387C23.625 19.1416 23.7449 19.6026 23.5559 19.9576C23.4176 20.225 23.2562 20.3402 22.975 20.3679C22.6615 20.3956 22.4448 20.3126 22.2512 20.0913C21.9653 19.7547 21.9745 19.4043 22.288 19.0586C22.4356 18.8972 22.5278 18.8373 22.6661 18.8142C22.892 18.7727 23.0948 18.8142 23.2977 18.9387ZM16.8986 21.2438C17.3366 21.4974 17.4104 22.1152 17.0461 22.4794C16.5298 22.9958 15.6999 22.6269 15.7092 21.8939C15.7138 21.4928 15.8521 21.313 16.2808 21.1424C16.3961 21.1009 16.7465 21.1563 16.8986 21.2438ZM19.8907 21.1793C20.1212 21.2623 20.2411 21.3729 20.3425 21.5988C20.4578 21.8478 20.4531 22.0691 20.3287 22.3134C20.1904 22.5808 19.9783 22.7053 19.6463 22.7053C18.9225 22.7053 18.5675 21.9216 19.047 21.3729C19.2591 21.1332 19.5634 21.064 19.8907 21.1793ZM23.2931 21.2761C23.6388 21.502 23.7449 21.9677 23.542 22.3549C23.4037 22.6223 22.9934 22.7745 22.6569 22.6869C22.0345 22.5209 21.8362 21.7648 22.3019 21.3407C22.5831 21.0871 22.9704 21.0594 23.2931 21.2761Z" fill="white"/>
<path d="M12.6185 19.0447C12.1022 19.2199 11.7426 19.5565 11.4982 20.0821C11.3876 20.3218 11.3738 20.4094 11.3691 20.8381C11.3691 21.4329 11.466 21.7095 11.8117 22.0967C12.0837 22.401 12.5678 22.6638 12.9505 22.7099L13.1902 22.7422V20.8428V18.9479H13.0427C12.9597 18.9525 12.7661 18.994 12.6185 19.0447Z" fill="white"/>
<path d="M10.8721 24.6041C10.8537 24.618 10.8398 27.7161 10.8398 31.4827C10.8398 38.9006 10.8352 38.6747 11.0888 39.1772C11.2456 39.4861 11.6374 39.8826 11.9371 40.0348C12.4673 40.3022 12.1399 40.2929 19.6731 40.2929C23.7671 40.2929 26.6854 40.2745 26.8191 40.2514C27.2709 40.1638 27.5706 40.0163 27.8748 39.7305C28.2114 39.417 28.3589 39.1865 28.4834 38.7946C28.5618 38.5318 28.5664 38.1953 28.5664 31.5564V24.5949L19.7331 24.5811C14.8738 24.5765 10.886 24.5857 10.8721 24.6041ZM13.1911 32.1327C13.2141 37.9048 13.2188 38.4857 13.2879 38.6102C13.3801 38.7761 13.4908 38.8776 13.6752 38.9744C13.8089 39.0435 13.7904 39.0482 13.2741 39.0482C12.6886 39.0482 12.5457 39.0159 12.3474 38.8269C12.0385 38.5364 12.0616 39.0758 12.0477 32.1373C12.0385 27.0891 12.0477 25.8397 12.0938 25.8074C12.1261 25.789 12.3843 25.7752 12.6609 25.7798L13.168 25.7936L13.1911 32.1327Z" fill="white"/>
</svg>
