<svg width="46" height="46" viewBox="0 0 46 46" fill="none" xmlns="http://www.w3.org/2000/svg">
<path d="M22.5452 5.82247C21.9888 5.89637 21.0976 6.25719 20.5194 6.64408C20.076 6.93535 19.5674 7.43962 19.3196 7.82217C19.1979 8.00911 18.8067 8.66118 18.4502 9.26979C18.0894 9.8784 17.4938 10.8869 17.1243 11.5086C16.7548 12.1302 16.0244 13.3605 15.5028 14.2473C14.9811 15.1298 13.9334 16.9078 13.1683 18.1946C12.4076 19.477 11.7338 20.6334 11.6773 20.7594C11.299 21.5767 11.5338 22.2505 12.3076 22.5592C12.4902 22.6331 12.7901 22.6374 16.4809 22.6592L20.4542 22.6809L20.0673 22.9678C19.5587 23.3417 17.3938 24.9067 15.3941 26.3543C12.6162 28.3583 12.2641 28.6192 12.0902 28.8235C11.7381 29.2234 11.7642 29.5495 12.1641 29.7494L12.3728 29.8538L14.8855 29.8668C16.2635 29.8711 17.3938 29.8885 17.3938 29.9016C17.3938 29.9146 17.1243 30.4189 16.7939 31.0188C16.1896 32.1143 15.8549 32.7316 14.8072 34.6574C14.1421 35.8833 14.2247 35.7355 13.1466 37.7004C12.6684 38.5742 12.2337 39.4002 12.1815 39.5393C11.9511 40.1653 12.1685 40.3392 12.7467 39.9914C12.9423 39.8697 13.9508 39.0959 15.1333 38.1569C15.2898 38.0308 16.3461 37.2005 17.4808 36.3093C18.6154 35.4182 19.6848 34.5792 19.8543 34.4444C20.0239 34.3096 20.4629 33.9619 20.8324 33.6749C21.202 33.3837 22.0801 32.6881 22.7843 32.1317C23.4886 31.5752 24.1928 31.0232 24.3493 30.9014C25.2014 30.245 26.0925 29.5321 26.2664 29.3669C26.549 29.0973 26.7142 28.7843 26.6838 28.5626C26.6229 28.0931 26.1969 27.9671 24.6536 27.9584C24.2102 27.954 23.6885 27.941 23.4886 27.9279L23.1278 27.8975L23.7494 27.3324C24.4624 26.6803 27.0011 24.3589 27.0707 24.2893C27.2011 24.1676 28.1357 23.3112 29.066 22.4635C31.77 19.9987 31.9221 19.8465 32.0699 19.4596C32.2177 19.0684 32.0047 18.7684 31.4831 18.638C31.2353 18.5728 30.9092 18.5728 27.2706 18.6554C25.1014 18.7076 23.2799 18.7467 23.2234 18.7467C23.1278 18.7467 23.1452 18.7206 23.3712 18.4728C23.6451 18.1859 24.4406 17.3599 25.61 16.1601C26.0056 15.7515 26.8968 14.8342 27.588 14.1169C28.2792 13.3996 29.2008 12.4519 29.6312 12.0085C30.0615 11.5651 30.9918 10.6087 31.6961 9.8784C32.4003 9.14807 33.2176 8.30471 33.5132 8.00476C34.1392 7.36572 34.3261 7.11793 34.4174 6.80493C34.5609 6.31805 34.2914 5.97462 33.661 5.83986C33.4958 5.80508 31.883 5.79204 28.0531 5.79638C25.097 5.80073 22.6191 5.81377 22.5452 5.82247Z" fill="white"/>
</svg>
