<svg width="80" height="80" viewBox="0 0 80 80" fill="none" xmlns="http://www.w3.org/2000/svg">
<rect width="80" height="80" fill="#B53B00"/>
<path d="M51.107 30.0746C49.0356 29.1054 46.8208 28.4011 44.5052 28C44.2208 28.5141 43.8886 29.2057 43.6595 29.7558C41.198 29.3856 38.7591 29.3856 36.3429 29.7558C36.1139 29.2057 35.7741 28.5141 35.4871 28C33.1691 28.4011 30.9517 29.108 28.8803 30.0797C24.7022 36.3933 23.5696 42.5501 24.1359 48.6195C26.907 50.6889 29.5925 51.946 32.2328 52.7686C32.8847 51.8714 33.466 50.9177 33.9669 49.9125C33.013 49.5501 32.0994 49.1028 31.2361 48.5835C31.4651 48.4138 31.6891 48.2364 31.9056 48.0539C37.1709 50.5166 42.8919 50.5166 48.0943 48.0539C48.3133 48.2364 48.5373 48.4138 48.7638 48.5835C47.898 49.1053 46.9818 49.5526 46.0279 49.9151C46.5288 50.9177 47.1077 51.874 47.7621 52.7711C50.4048 51.9485 53.0929 50.6915 55.864 48.6195C56.5285 41.5835 54.7289 35.4833 51.107 30.0746ZM34.6842 44.8869C33.1036 44.8869 31.8074 43.4113 31.8074 41.6144C31.8074 39.8175 33.0759 38.3393 34.6842 38.3393C36.2926 38.3393 37.5887 39.8149 37.5611 41.6144C37.5636 43.4113 36.2926 44.8869 34.6842 44.8869ZM45.3157 44.8869C43.735 44.8869 42.4388 43.4113 42.4388 41.6144C42.4388 39.8175 43.7073 38.3393 45.3157 38.3393C46.9239 38.3393 48.2202 39.8149 48.1925 41.6144C48.1925 43.4113 46.9239 44.8869 45.3157 44.8869Z" fill="white"/>
</svg>
