<?xml version="1.0" standalone="no"?>
<!DOCTYPE svg PUBLIC "-//W3C//DTD SVG 20010904//EN"
 "http://www.w3.org/TR/2001/REC-SVG-20010904/DTD/svg10.dtd">
<svg version="1.0" xmlns="http://www.w3.org/2000/svg"
 width="1016.000000pt" height="1016.000000pt" viewBox="0 0 1016.000000 1016.000000"
 preserveAspectRatio="xMidYMid meet">
<metadata>
Created by potrace 1.14, written by Peter Selinger 2001-2017
</metadata>
<g transform="translate(0.000000,1016.000000) scale(0.100000,-0.100000)"
fill="#000000" stroke="none">
<path d="M4605 9861 c-339 -85 -576 -252 -684 -483 -32 -69 -58 -151 -66 -213
-6 -49 -7 -223 -1 -233 2 -4 7 -30 10 -58 3 -29 16 -86 30 -127 13 -42 21 -79
18 -82 -3 -3 0 -5 6 -5 7 0 12 -9 12 -19 0 -11 5 -23 10 -26 23 -14 -2 -22
-29 -9 -59 29 -262 83 -375 99 -58 8 -99 14 -126 19 -25 5 -85 12 -182 21 -29
3 -75 8 -103 11 -27 3 -84 8 -125 10 -41 2 -104 7 -140 10 -85 7 -2808 16
-2838 9 l-22 -5 2 -4238 3 -4237 1779 -3 c979 -1 1783 1 1788 6 4 4 10 34 13
67 10 100 15 117 50 190 39 83 100 144 182 184 61 31 131 53 173 55 14 1 30 4
35 7 19 11 314 0 380 -14 17 -4 44 -9 60 -12 64 -11 91 -16 107 -21 9 -3 25
-6 35 -8 10 -2 47 -12 83 -21 77 -20 79 -21 196 -38 81 -12 350 -14 424 -4
102 14 191 36 230 57 31 17 9 41 -28 31 -15 -4 -54 -6 -87 -4 -90 6 -95 7 -95
16 0 4 -4 5 -10 2 -5 -3 -33 1 -62 10 -29 8 -54 15 -55 15 -2 0 -4 0 -5 1 -2
0 -11 2 -20 4 -31 6 -212 66 -248 83 -19 9 -41 17 -48 18 -27 5 -286 116 -394
169 -25 13 -48 21 -51 19 -2 -2 -10 2 -17 11 -7 8 -17 15 -22 15 -5 0 -28 9
-52 19 -70 32 -148 63 -198 77 -133 39 -156 45 -193 50 -22 3 -58 7 -80 10
-134 18 -371 5 -473 -25 -18 -5 -36 -10 -40 -11 -17 -2 -88 -23 -97 -28 -5 -4
-15 -7 -21 -8 -5 -1 -30 -11 -54 -23 -24 -11 -50 -21 -57 -21 -7 0 -13 -4 -13
-10 0 -5 -5 -10 -12 -10 -7 0 -53 -26 -103 -57 -96 -62 -119 -78 -144 -106
-24 -26 -30 -21 -20 21 28 122 123 334 179 399 11 13 20 25 20 28 0 13 158
175 170 175 4 0 19 10 34 23 15 13 57 39 94 57 37 19 70 39 74 45 4 5 8 7 8 3
0 -4 19 1 43 11 56 24 205 61 281 69 116 12 430 3 457 -13 3 -2 20 -7 38 -10
17 -3 57 -12 89 -21 31 -8 68 -17 82 -20 14 -3 44 -9 67 -14 42 -10 228 -7
272 4 89 21 181 63 181 82 0 13 -13 19 -35 14 -5 -1 -30 -2 -55 -4 -25 -1 -51
-5 -57 -9 -7 -5 -13 -4 -13 0 0 5 -15 8 -32 8 -38 -1 -136 12 -158 22 -8 3
-22 7 -30 8 -8 1 -35 8 -60 15 -25 7 -49 14 -55 16 -5 1 -48 16 -95 34 -47 17
-101 36 -120 42 -19 5 -39 13 -45 17 -5 4 -30 14 -55 21 -25 7 -49 17 -55 20
-12 9 -176 60 -212 66 -15 3 -31 8 -36 11 -12 7 -108 16 -162 14 -22 0 -71 -8
-110 -17 -93 -22 -199 -25 -249 -8 -49 18 -106 60 -106 80 0 7 -5 14 -12 14
-6 0 -8 3 -5 7 4 3 3 11 -3 17 -11 14 -14 89 -5 129 12 56 48 118 92 156 42
38 125 84 151 84 6 0 12 5 12 10 0 6 3 8 6 4 3 -3 22 0 43 8 20 7 55 15 76 19
22 3 51 8 65 11 137 29 323 25 469 -9 37 -8 251 -118 251 -128 0 -5 5 -6 10
-3 6 3 10 2 10 -3 0 -5 23 -19 50 -32 28 -13 50 -27 50 -32 0 -4 7 -8 15 -8 8
0 30 -9 48 -19 39 -22 203 -76 257 -85 19 -3 47 -8 62 -11 44 -8 157 -15 263
-15 126 1 159 4 264 25 83 16 298 116 308 142 3 7 11 13 17 13 15 0 160 137
208 196 70 86 158 220 158 240 0 8 4 14 9 14 6 0 81 149 85 170 1 3 4 10 7 15
6 10 33 85 34 95 0 3 3 10 6 15 9 14 50 145 56 175 2 14 10 48 16 75 7 28 13
59 12 70 0 35 -29 27 -55 -15 -14 -22 -28 -40 -32 -40 -4 0 -10 -9 -13 -20 -8
-27 -265 -282 -265 -263 0 3 -10 -2 -22 -13 -41 -36 -128 -88 -128 -76 0 4 -4
1 -8 -5 -10 -15 -142 -64 -192 -71 -61 -8 -233 -11 -244 -4 -6 3 -18 7 -26 8
-40 6 -120 28 -120 34 0 3 -17 12 -37 19 -65 23 -194 116 -289 208 -200 194
-307 267 -509 353 -29 12 -89 30 -121 36 -15 3 -30 7 -33 9 -11 6 -145 18
-201 17 -85 -1 -152 -10 -230 -33 -25 -7 -49 -12 -54 -10 -4 1 -14 -4 -22 -10
-8 -6 -14 -9 -14 -6 0 12 -199 -93 -258 -137 -69 -51 -77 -55 -62 -26 6 11 9
20 6 20 -11 0 40 100 82 160 41 59 177 200 246 257 105 87 330 229 416 263 19
8 37 17 40 22 3 4 15 9 25 11 11 1 27 7 35 12 8 5 20 10 25 11 6 2 42 14 80
28 96 34 187 58 280 71 28 4 61 9 75 11 41 6 250 5 260 -1 5 -3 32 -8 61 -11
103 -11 240 -65 392 -153 49 -28 92 -51 97 -51 5 0 10 -3 12 -8 4 -10 162 -76
240 -100 170 -53 324 -48 464 14 33 14 67 33 77 41 9 9 17 12 17 7 0 -5 4 -4
8 1 4 6 45 39 92 75 47 35 92 70 100 77 135 108 221 165 309 202 69 29 83 32
162 32 95 1 191 -27 359 -103 25 -11 61 -27 80 -35 19 -8 53 -23 75 -33 88
-40 211 -67 290 -63 54 2 95 8 103 13 1 2 5 3 10 5 51 14 62 18 62 26 0 5 5 9
11 9 14 0 76 47 111 85 75 81 109 132 192 290 109 205 206 333 343 447 40 34
184 102 245 117 115 27 262 9 371 -46 116 -58 110 -15 -17 109 -241 236 -525
291 -851 165 -35 -14 -232 -112 -259 -130 -24 -15 -159 -106 -246 -166 -79
-54 -187 -104 -258 -121 -33 -8 -84 -10 -135 -6 -78 5 -102 9 -207 36 -69 18
-83 21 -105 25 -11 3 -36 7 -55 11 -89 17 -258 4 -360 -28 -69 -21 -213 -85
-275 -121 -44 -26 -200 -112 -205 -112 -3 -1 -21 -8 -41 -17 -309 -135 -569
-34 -644 251 -15 57 -12 79 9 62 7 -6 15 -8 18 -5 3 3 32 7 64 9 33 2 77 7 99
10 50 9 186 54 203 67 6 6 12 8 12 5 0 -7 133 67 162 91 11 9 29 25 40 35 10
9 21 17 26 18 19 1 145 165 167 217 7 16 17 44 21 57 2 6 10 29 18 52 35 96
44 291 21 448 -9 58 -9 233 -1 280 4 22 9 49 10 60 11 75 67 210 115 275 80
110 225 212 346 241 53 13 72 28 52 41 -25 17 -95 30 -166 33 -209 8 -381 -85
-560 -300 -32 -38 -110 -164 -149 -240 -35 -69 -113 -255 -107 -255 9 0 -57
-115 -89 -155 -47 -60 -113 -122 -192 -181 -75 -56 -276 -157 -334 -169 -19
-4 -39 -10 -45 -13 -5 -4 -15 -7 -22 -8 -6 -1 -35 -7 -65 -13 -160 -35 -372
-33 -528 3 -14 4 -35 8 -47 10 -11 3 -50 18 -85 34 -137 64 -220 179 -213 297
4 82 12 111 40 159 29 49 90 116 104 116 6 0 11 4 11 8 0 10 68 41 107 49 16
3 57 6 93 5 277 -5 318 -3 435 22 38 8 73 12 77 10 4 -3 8 0 8 5 0 6 3 10 8 9
9 -2 63 13 77 21 6 3 16 6 22 7 60 9 243 129 305 200 18 21 39 43 46 50 6 7
12 17 12 23 0 6 4 11 8 11 4 0 13 12 20 28 7 15 22 45 33 67 12 22 23 47 24
55 2 8 4 15 5 15 8 0 42 167 44 220 2 34 5 66 8 71 3 5 4 18 2 29 -2 11 -6 59
-8 107 -3 47 -7 97 -10 110 -6 27 -15 85 -23 148 -8 63 -7 246 1 300 11 71 36
151 67 210 42 79 49 89 104 145 64 64 104 94 133 101 12 4 22 10 22 14 0 7 20
17 50 25 3 1 14 5 25 9 55 21 72 27 95 31 14 3 38 7 53 11 15 3 66 7 113 9 47
2 88 5 90 8 19 19 -77 78 -148 91 -15 2 -32 7 -38 11 -11 7 -51 15 -82 18 -10
1 -18 4 -18 7 0 3 -42 4 -92 3 -51 0 -93 -2 -93 -3 0 0 -16 -3 -35 -5 -69 -9
-160 -36 -160 -47 0 -4 -7 -8 -14 -8 -50 0 -230 -146 -302 -245 -16 -22 -32
-42 -36 -45 -28 -21 -177 -354 -191 -427 -9 -44 -71 -175 -116 -243 -46 -70
-153 -183 -200 -212 -20 -12 -38 -25 -41 -29 -5 -6 -129 -73 -140 -75 -3 0
-12 -3 -20 -7 -68 -26 -149 -48 -230 -61 -14 -3 -25 -5 -25 -6 0 -4 -120 -9
-210 -9 -93 0 -180 4 -180 9 0 1 -25 3 -55 5 -30 2 -57 4 -60 6 -3 1 -9 3 -15
4 -5 2 -12 4 -15 5 -3 1 -16 3 -30 5 -23 4 -143 31 -165 38 -5 2 -27 7 -48 12
-53 10 -40 17 45 21 91 4 175 12 208 20 14 3 34 6 45 8 16 2 55 11 95 21 39
10 96 28 109 35 9 5 34 17 56 26 63 28 166 96 215 145 109 105 174 253 185
419 2 25 4 45 5 45 4 0 4 137 1 141 -3 3 -6 24 -7 47 -4 54 -13 103 -26 136
-6 14 -12 31 -14 38 -3 18 -64 135 -85 165 -10 14 -19 29 -19 32 0 3 -7 14
-16 24 -37 39 -138 191 -170 255 -33 64 -58 142 -70 215 -8 52 -8 191 0 256
28 213 170 413 336 471 44 16 63 32 54 47 -7 10 -15 9 -99 -11z"/>
<path d="M7917 9103 c-2 -5 -3 -39 -1 -78 1 -38 -1 -74 -4 -80 -4 -5 -8 -19
-9 -30 -2 -11 -8 -24 -13 -29 -6 -6 -10 -18 -10 -28 0 -10 -4 -18 -10 -18 -5
0 -10 -7 -10 -15 0 -13 -110 -131 -156 -166 -37 -28 -147 -84 -234 -119 -94
-37 -213 -98 -218 -111 -2 -5 -8 -9 -14 -9 -24 0 -144 -109 -196 -177 -38 -48
-95 -170 -87 -183 3 -5 2 -11 -3 -14 -4 -2 -8 -22 -7 -43 l0 -38 105 2 c107 2
169 7 231 19 19 3 43 8 54 10 30 5 60 12 60 14 0 1 8 3 18 6 9 2 23 5 30 7 68
16 247 104 247 120 0 6 3 8 6 4 10 -10 118 89 160 148 16 22 31 42 34 45 10
10 29 48 55 111 27 64 32 81 41 134 3 17 9 43 14 58 7 20 6 26 -2 21 -7 -5 -8
-2 -3 6 9 15 14 180 5 180 -3 0 -5 15 -6 33 -2 116 -54 264 -77 220z"/>
<path d="M8249 8786 c-1 -1 -2 -90 -3 -198 -1 -129 2 -198 9 -199 5 0 344 0
753 -1 710 0 743 -1 752 -18 7 -13 7 -21 0 -25 -7 -4 -7 -13 0 -26 7 -12 7
-19 1 -19 -7 0 -7 -8 -1 -24 5 -13 6 -26 4 -29 -7 -7 -8 -157 -1 -164 4 -3 2
-14 -4 -24 -6 -12 -6 -19 0 -19 6 0 6 -11 1 -30 -5 -16 -5 -32 -1 -34 7 -5 5
-85 -3 -93 -3 -3 -1 -15 4 -27 4 -13 4 -29 -1 -39 -6 -9 -6 -17 -1 -17 4 0 6
-22 2 -48 -3 -27 -3 -61 1 -75 4 -15 3 -27 -2 -27 -6 0 -6 -7 -1 -17 5 -10 6
-29 2 -43 -4 -14 -3 -37 1 -52 4 -16 4 -28 -1 -28 -5 0 -6 -10 -2 -22 9 -24 8
-57 0 -80 -3 -7 -2 -22 2 -33 4 -11 3 -28 -2 -37 -6 -12 -5 -18 2 -18 6 0 9
-4 5 -10 -8 -12 -9 -179 -2 -187 4 -3 2 -14 -4 -24 -6 -12 -6 -19 0 -19 6 0 6
-11 1 -30 -5 -16 -5 -32 -1 -35 4 -2 5 -25 1 -50 -4 -25 -4 -48 0 -50 3 -2 5
-19 3 -37 -6 -58 -5 -146 2 -157 3 -6 2 -11 -4 -11 -6 0 -7 -8 -2 -22 4 -12 5
-37 1 -55 -5 -18 -5 -35 -1 -37 4 -3 6 -20 4 -38 -6 -58 -5 -146 2 -157 3 -6
2 -11 -4 -11 -7 0 -7 -8 -1 -24 5 -13 7 -26 4 -29 -7 -7 -8 -167 -1 -174 4 -3
2 -14 -4 -24 -6 -12 -6 -19 0 -19 6 0 6 -11 1 -30 -5 -16 -5 -32 -1 -34 7 -5
5 -85 -3 -93 -3 -3 -1 -15 4 -27 4 -13 4 -29 -1 -39 -6 -9 -6 -17 -1 -17 4 0
6 -22 2 -48 -3 -27 -3 -61 1 -75 4 -15 3 -27 -2 -27 -6 0 -6 -7 -1 -17 5 -10
6 -29 2 -43 -4 -14 -3 -37 1 -52 4 -16 4 -28 -1 -28 -5 0 -6 -10 -2 -22 9 -24
8 -57 0 -80 -3 -7 -2 -22 2 -33 4 -11 3 -28 -2 -37 -6 -12 -5 -18 2 -18 6 0 9
-4 5 -10 -8 -12 -9 -179 -2 -187 4 -3 2 -14 -4 -24 -6 -12 -6 -19 0 -19 6 0 6
-11 1 -30 -5 -16 -5 -32 -1 -35 4 -2 5 -25 1 -50 -4 -25 -4 -48 0 -50 3 -2 5
-19 3 -37 -6 -58 -5 -146 2 -157 3 -6 2 -11 -4 -11 -6 0 -7 -8 -2 -22 4 -12 5
-37 1 -55 -5 -18 -5 -35 -1 -37 4 -3 6 -20 4 -38 -6 -58 -5 -146 2 -157 3 -6
2 -11 -4 -11 -7 0 -7 -8 -1 -24 5 -13 7 -26 4 -29 -7 -7 -8 -167 -1 -174 4 -3
2 -14 -4 -24 -6 -12 -6 -19 0 -19 6 0 6 -11 1 -30 -5 -16 -5 -32 -1 -34 7 -5
5 -85 -3 -93 -3 -3 -1 -15 4 -27 4 -13 4 -29 -1 -39 -6 -9 -6 -17 -1 -17 4 0
6 -22 2 -48 -3 -27 -3 -61 1 -75 4 -15 3 -27 -2 -27 -6 0 -6 -7 -1 -17 5 -10
6 -29 2 -43 -4 -14 -3 -37 1 -52 4 -16 4 -28 -1 -28 -5 0 -6 -10 -2 -22 9 -24
8 -57 0 -80 -3 -7 -2 -22 2 -33 4 -11 3 -28 -2 -37 -6 -12 -5 -18 2 -18 6 0 9
-4 5 -10 -8 -12 -9 -179 -2 -187 4 -3 2 -14 -4 -24 -6 -12 -6 -19 0 -19 6 0 6
-11 1 -30 -5 -16 -5 -32 -1 -35 4 -2 5 -25 1 -50 -4 -25 -4 -48 0 -50 3 -2 5
-19 3 -37 -6 -58 -5 -146 2 -157 3 -6 2 -11 -4 -11 -6 0 -7 -8 -2 -22 4 -12 5
-37 1 -55 -5 -18 -5 -35 -1 -37 4 -3 6 -20 4 -38 -6 -58 -5 -146 2 -157 3 -6
2 -11 -4 -11 -7 0 -7 -8 -1 -24 5 -13 7 -26 4 -29 -7 -7 -8 -167 -1 -174 4 -3
2 -14 -4 -24 -6 -12 -6 -19 0 -19 6 0 6 -11 1 -30 -5 -16 -5 -32 -1 -34 7 -5
5 -85 -3 -93 -3 -3 -1 -15 4 -27 4 -13 4 -29 -1 -39 -6 -9 -6 -17 -1 -17 4 0
6 -22 2 -48 -3 -27 -3 -61 1 -75 4 -15 3 -27 -2 -27 -6 0 -6 -7 -1 -17 5 -10
6 -29 2 -43 -4 -14 -3 -37 1 -52 4 -16 4 -28 -1 -28 -5 0 -6 -10 -2 -22 9 -24
8 -57 0 -80 -3 -7 -2 -22 2 -33 4 -11 3 -28 -2 -37 -6 -12 -5 -18 2 -18 6 0 9
-4 5 -10 -8 -12 -9 -179 -2 -187 4 -3 2 -14 -4 -24 -6 -12 -6 -19 0 -19 6 0 6
-11 1 -30 -5 -16 -5 -32 -1 -35 4 -2 5 -25 1 -50 -4 -25 -4 -48 0 -50 3 -2 5
-19 3 -37 -6 -58 -5 -146 2 -157 3 -6 2 -11 -4 -11 -6 0 -7 -8 -2 -22 4 -12 5
-37 1 -55 -4 -17 -5 -35 -2 -38 9 -8 8 -55 -1 -55 -4 0 -3 -8 2 -18 5 -10 6
-24 1 -32 -5 -8 -5 -21 0 -31 8 -13 4 -18 -15 -21 -14 -3 -25 -2 -25 2 0 4
-19 4 -42 0 -24 -5 -49 -5 -57 0 -8 4 -27 4 -43 0 -17 -5 -28 -5 -28 1 0 6 -5
7 -10 4 -6 -4 -36 -6 -68 -6 -31 0 -72 1 -91 1 -18 0 -42 -2 -51 -5 -10 -3
-21 -1 -24 4 -4 6 -18 6 -36 1 -17 -5 -30 -5 -30 -1 0 5 -19 5 -42 1 -24 -5
-49 -5 -57 0 -8 4 -27 4 -43 0 -16 -5 -28 -5 -28 0 0 5 -6 7 -14 4 -20 -8
-136 -10 -136 -3 0 4 -19 3 -42 -1 -24 -5 -49 -5 -57 0 -8 4 -27 4 -43 0 -17
-5 -28 -5 -28 1 0 6 -5 7 -10 4 -6 -4 -36 -6 -68 -6 -31 0 -72 1 -91 1 -18 0
-42 -2 -51 -5 -10 -3 -21 -1 -24 4 -4 6 -18 6 -36 1 -17 -5 -30 -5 -30 -1 0 5
-19 5 -42 1 -24 -5 -50 -4 -60 1 -9 5 -24 6 -33 3 -9 -4 -26 -7 -38 -8 -22 -1
-22 -3 -22 -199 l0 -197 957 0 958 0 0 4253 0 4253 -955 0 c-525 0 -956 0
-956 0z"/>
<path d="M9106 7732 c-3 -5 -12 -30 -21 -56 -35 -104 -121 -210 -205 -253 -19
-10 -38 -22 -42 -28 -4 -5 -8 -7 -8 -3 0 4 -12 3 -27 -3 -16 -6 -39 -13 -53
-15 -14 -3 -32 -7 -40 -11 -8 -3 -17 -7 -20 -8 -23 -8 -50 -22 -75 -39 -43
-29 -145 -137 -145 -153 0 -7 -4 -13 -8 -13 -12 0 -77 -141 -95 -206 -8 -28
-12 -57 -7 -63 9 -15 103 -8 195 14 92 22 113 28 140 39 16 8 45 19 63 26 17
7 32 16 32 21 0 5 3 8 8 7 8 -3 52 20 68 36 10 11 48 40 70 54 6 4 32 34 59
67 55 68 107 171 131 260 19 74 28 262 13 304 -11 31 -23 39 -33 23z"/>
<path d="M7262 6593 c-167 -28 -293 -87 -392 -185 -39 -38 -70 -76 -70 -84 0
-8 -4 -14 -9 -14 -12 0 -57 -107 -77 -183 -34 -126 -18 -428 22 -444 15 -5 83
43 127 90 15 16 27 27 27 23 0 -8 113 106 160 160 77 89 155 227 165 290 8 55
23 105 36 122 32 42 84 92 97 92 7 0 11 4 8 8 -3 5 10 15 29 22 19 8 35 17 35
22 0 4 3 7 8 6 4 0 27 8 52 20 25 12 50 22 56 22 6 0 17 7 25 16 10 13 10 17
0 24 -20 12 -215 7 -299 -7z"/>
<path d="M9077 3864 c-1 -1 -38 -5 -82 -9 -85 -8 -118 -12 -122 -15 -3 -3 -7
-4 -58 -14 -22 -4 -44 -11 -50 -14 -5 -4 -16 -7 -23 -8 -26 -4 -140 -63 -193
-99 -103 -72 -200 -186 -259 -305 -19 -39 -70 -176 -71 -190 0 -3 -2 -14 -4
-25 -13 -57 -17 -89 -22 -187 -3 -59 -2 -119 1 -133 l7 -26 82 43 c45 24 84
45 87 48 3 3 38 28 79 55 41 28 81 55 89 60 61 42 190 169 230 228 42 60 59
101 66 157 3 25 7 52 9 61 7 38 67 106 116 130 14 7 37 21 51 30 14 9 28 17
32 18 13 3 31 8 78 24 50 18 130 41 145 42 6 1 24 4 40 8 64 14 92 19 140 24
60 7 95 19 95 33 0 12 -12 17 -60 24 -19 3 -46 8 -60 11 -64 14 -333 37 -343
29z"/>
<path d="M6667 2064 c-1 -1 -38 -4 -82 -8 -44 -3 -91 -8 -105 -11 -14 -2 -38
-7 -55 -11 -43 -8 -169 -48 -175 -54 -3 -4 -21 -12 -40 -20 -119 -48 -263
-189 -335 -330 -22 -43 -76 -200 -68 -200 3 0 1 -6 -4 -12 -6 -7 -11 -20 -11
-28 0 -8 -4 -46 -8 -85 -9 -83 -9 -177 0 -260 9 -77 14 -95 30 -95 14 0 76 85
102 140 4 8 10 17 14 20 3 3 28 37 55 75 64 91 159 184 221 215 27 13 51 25
54 26 146 29 199 23 470 -50 84 -22 233 -66 250 -73 8 -3 24 -8 35 -10 11 -2
36 -9 55 -17 19 -8 38 -14 43 -15 4 -1 8 -1 10 -2 5 -1 33 -7 59 -12 15 -3 31
-8 36 -11 28 -17 253 -26 317 -12 17 3 47 9 68 12 20 4 37 11 37 17 0 6 3 8 6
4 15 -15 201 81 261 136 56 50 149 145 163 166 8 13 20 29 27 36 18 19 83 123
83 134 0 5 4 11 8 13 14 5 94 182 107 238 1 3 5 18 10 33 14 50 -8 53 -67 10
-211 -154 -372 -225 -508 -223 -59 0 -111 5 -117 10 -2 2 -6 3 -10 4 -30 7
-102 36 -183 73 -151 71 -199 92 -222 98 -5 2 -10 4 -13 5 -3 1 -8 3 -12 5 -5
1 -15 4 -23 7 -46 18 -164 42 -256 54 -36 4 -223 11 -227 8z"/>
</g>
</svg>
