<svg width="254" height="240" viewBox="0 0 254 240" fill="none" xmlns="http://www.w3.org/2000/svg">
<path fill-rule="evenodd" clip-rule="evenodd" d="M206.094 240H254V27.3313H206.094V37.3188H244.012V230.013H206.094V240Z" fill="white"/>
<path fill-rule="evenodd" clip-rule="evenodd" d="M117.342 0.984343C117.607 0.92096 117.772 0.656504 117.713 0.390428C117.653 0.124352 117.392 -0.0448341 117.125 0.0104704C104.302 2.66671 98.6225 8.88015 96.8478 15.6712C95.3049 21.5753 96.7437 27.8074 98.7859 32.3054C98.5001 32.1521 98.1955 32.0048 97.8747 31.863C96.7902 31.3835 95.4897 30.9536 94.0375 30.5677C91.1331 29.7958 87.5819 29.1892 83.8528 28.7184C76.3927 27.7764 68.169 27.3714 62.8712 27.2869H0.499018C0.223418 27.2869 0 27.5103 0 27.7859V239.006C0 239.282 0.223418 239.505 0.499018 239.505H89.0379C89.3135 239.505 89.5369 239.282 89.5369 239.006C89.5369 235.553 90.3955 232.983 91.84 231.107C93.2853 229.23 95.3533 228.001 97.856 227.296C102.884 225.88 109.573 226.61 116.089 228.371C126.287 231.127 134.802 229.683 138.189 228.487C138.335 228.446 138.47 228.396 138.591 228.335C138.829 228.216 138.931 227.93 138.823 227.687C138.714 227.443 138.434 227.328 138.185 227.425C138.093 227.461 137.994 227.498 137.889 227.535C137.41 227.663 136.544 227.72 135.198 227.576C133.848 227.432 132.053 227.092 129.747 226.455C125.137 225.183 118.515 222.734 109.388 218.344C91.1578 209.575 76.7821 216.987 70.7366 222.774C72.0712 216.765 74.455 212.35 77.4036 209.135C80.6193 205.629 84.5304 203.524 88.5491 202.345C96.6051 199.981 105.057 201.35 109.023 202.595C115.619 204.664 121.073 202.779 123.031 201.528C123.237 201.397 123.317 201.137 123.222 200.913C123.127 200.689 122.884 200.566 122.647 200.623C120.11 201.229 117.302 200.992 114.35 200.306C111.398 199.62 108.344 198.495 105.321 197.356L104.752 197.142C101.936 196.08 99.1493 195.03 96.5536 194.371C93.788 193.669 91.1653 193.39 88.8965 194.06C84.7123 195.296 82.1336 194.644 80.6692 193.456C79.1891 192.256 78.7334 190.423 78.9594 189.062C79.207 187.57 79.5607 185.707 81.5535 184.059C83.5742 182.389 87.3504 180.885 94.609 180.383C98.1889 180.135 100.79 180.63 103.015 181.487C104.855 182.196 106.442 183.15 108.146 184.175C108.522 184.401 108.904 184.631 109.296 184.862C111.451 186.135 113.853 187.423 117.092 188.324C120.329 189.225 124.378 189.733 129.833 189.479C138.704 189.065 145.08 183.709 149.426 177.271C153.77 170.837 156.132 163.262 156.979 158.239C157.019 158.005 156.888 157.775 156.666 157.69C156.444 157.605 156.193 157.689 156.066 157.89C153.33 162.216 148.271 167.68 142.002 170.07C138.878 171.261 135.46 171.688 131.87 170.84C128.279 169.993 124.477 167.861 120.604 163.872C112.657 155.69 104.67 153.435 97.8934 153.996C91.6771 154.51 86.5292 157.39 83.4077 160.13C83.4453 159.381 83.6882 158.506 84.1466 157.526C84.8096 156.108 85.8972 154.527 87.3435 152.889C90.2352 149.612 94.5146 146.157 99.5359 143.37C109.6 137.785 122.477 134.97 133.074 141.402C138.518 144.707 142.802 146.322 146.365 146.776C149.945 147.233 152.769 146.513 155.271 145.208C157.427 144.084 159.351 142.52 161.297 140.938L161.298 140.937C161.588 140.7 161.88 140.463 162.173 140.227C164.44 138.4 166.817 136.607 169.768 135.372C172.621 134.179 175.53 134.61 178.534 135.659C180.036 136.184 181.543 136.856 183.067 137.543L183.289 137.643C184.733 138.295 186.194 138.953 187.65 139.486C190.709 140.606 193.841 141.207 196.938 139.996C200.031 138.785 202.968 135.814 205.762 130.077C210.148 121.071 215.336 117.196 219.966 115.939C224.611 114.678 228.793 116.023 231.21 117.641C231.416 117.778 231.691 117.745 231.857 117.562C232.023 117.379 232.031 117.102 231.875 116.911C227.281 111.275 222.244 108.389 216.387 108.389C210.566 108.389 204.042 111.243 196.46 116.824C192.74 119.563 189.871 120.558 187.361 120.739C185.007 120.909 182.93 120.37 180.656 119.781C180.486 119.737 180.316 119.693 180.144 119.648C177.68 119.014 174.998 118.394 171.65 118.719C168.303 119.044 164.331 120.308 159.25 123.368C151.27 128.175 146.114 127.997 142.903 126.059C139.904 124.249 138.422 120.803 137.953 117.894C138.428 117.977 138.984 118.015 139.595 118.011C140.588 118.005 141.763 117.887 143.04 117.637C145.592 117.137 148.578 116.107 151.343 114.364C154.11 112.619 156.666 110.155 158.335 106.789C160.005 103.419 160.77 99.1778 160.002 93.9098C158.81 85.7379 160.718 80.2817 163.522 76.7714C166.338 73.2459 170.096 71.6344 172.672 71.2303C172.903 71.1942 173.077 71.0033 173.093 70.7707C173.109 70.538 172.961 70.3256 172.737 70.2592C165.702 68.1665 160.23 71.0674 156.247 75.3892C152.278 79.6948 149.733 85.4547 148.464 89.2767C147.258 92.9067 143.472 97.1164 137.944 100.047C132.435 102.968 125.25 104.585 117.318 103.092C113.374 102.35 110.852 100.816 109.404 99.0074C107.96 97.2026 107.547 95.0768 107.902 93.0575C108.618 88.9838 112.437 85.4122 117.176 85.8879C122.257 86.3979 130.189 86.0259 136.303 82.2145C139.372 80.3009 141.981 77.5203 143.527 73.5639C145.071 69.6128 145.539 64.5261 144.395 58.0182C142.606 47.8394 145.308 41.8439 149.287 38.4353C153.302 34.9962 158.72 34.1004 162.495 34.3475C162.728 34.3627 162.94 34.2151 163.006 33.9919C163.073 33.7687 162.976 33.5292 162.773 33.4149C159.249 31.4305 153.518 29.8685 147.769 31.668C141.988 33.4775 136.313 38.6451 132.856 49.8728C131.174 55.3379 128.352 59.1522 124.9 61.74C121.443 64.3315 117.324 65.7132 113.022 66.2631C105.864 67.1783 98.2517 65.7821 92.494 63.8947C96.4778 63.9903 101.346 63.5412 105.752 61.986C111.584 59.9271 116.678 55.8949 117.72 48.574C118.357 44.0958 118.074 40.7374 117.264 37.9955C116.454 35.2551 115.126 33.1645 113.73 31.2214C113.418 30.7866 113.102 30.3592 112.788 29.9334C110.295 26.5581 107.875 23.2807 107.657 17.1566C107.264 6.09712 114.027 1.77662 117.342 0.984343ZM198.738 19.5386C198.65 19.2836 198.376 19.1445 198.118 19.2243C197.861 19.3042 197.713 19.5741 197.785 19.834C198.544 22.5771 197.688 29.4148 187.018 33.382C175.998 37.4794 173.423 44.3841 173.607 47.5222C173.622 47.786 173.841 47.992 174.105 47.992C187.714 47.992 194.76 43.3089 197.94 37.3045C201.094 31.3485 200.358 24.2451 198.738 19.5386ZM228.455 53.9721C228.412 53.7366 228.208 53.565 227.968 53.5632C227.729 53.5613 227.522 53.7298 227.475 53.9646C226.992 56.3862 224.57 61.5112 218.806 62.6685C215.608 63.3105 213.286 65.4889 211.693 67.8839C210.1 70.2792 209.197 72.9445 208.851 74.6824C208.82 74.8348 208.863 74.9927 208.965 75.1094C209.068 75.2261 209.219 75.2883 209.374 75.2777C218.369 74.662 223.478 71.013 226.163 66.6269C228.83 62.2702 229.059 57.2622 228.455 53.9721ZM188.731 81.8614C177.927 81.2475 172.135 84.8769 169.378 89.8095C166.652 94.6868 166.977 100.697 168.087 104.726C168.131 104.887 168.254 105.015 168.413 105.067C168.571 105.12 168.746 105.089 168.877 104.985C172.419 102.191 175.221 99.5098 177.206 96.9395C179.188 94.3713 180.376 91.8859 180.641 89.4888C180.818 87.8962 182.125 86.4488 183.851 85.259C185.555 84.085 187.546 83.2454 188.852 82.8356C189.082 82.7635 189.227 82.5372 189.198 82.298C189.168 82.0588 188.971 81.8751 188.731 81.8614ZM238.136 151.605C223.925 148.548 215.332 151.798 210.417 157.254C205.533 162.675 204.39 170.156 204.816 175.378C204.829 175.543 204.924 175.691 205.069 175.772C205.213 175.853 205.389 175.857 205.537 175.783C208.079 174.507 211.889 172.238 215.072 169.567C216.663 168.231 218.113 166.782 219.169 165.294C220.222 163.81 220.913 162.243 220.913 160.683C220.913 159.461 221.542 158.374 222.667 157.402C223.797 156.425 225.387 155.601 227.196 154.922C230.81 153.566 235.166 152.84 238.074 152.59C238.32 152.569 238.514 152.371 238.529 152.124C238.545 151.878 238.378 151.657 238.136 151.605ZM207.025 195.657C201.89 199.555 198.22 201.333 195.241 201.889C192.288 202.439 189.957 201.799 187.454 200.713C186.669 200.373 185.87 199.989 185.033 199.588L185.033 199.588C180.482 197.404 174.833 194.693 164.5 195.557C154.662 196.381 149.302 201.118 146.649 206.744C144.014 212.33 144.071 218.738 144.925 222.936C144.966 223.137 145.126 223.293 145.329 223.328C145.531 223.363 145.735 223.27 145.841 223.094C150.89 214.731 153.925 211.549 158.186 211.014C160.351 210.743 162.883 211.147 166.24 212.021C168.204 212.532 170.416 213.194 172.974 213.96L172.975 213.96C174.796 214.505 176.793 215.103 179.001 215.736C187.653 218.218 194.29 215.451 199.036 210.997C203.759 206.564 206.616 200.461 207.807 196.189C207.865 195.982 207.784 195.762 207.607 195.642C207.43 195.522 207.196 195.528 207.025 195.657Z" fill="#FF852D"/>
</svg>
