
<svg width="196" height="32" viewBox="0 0 996 160" fill="none" xmlns="http://www.w3.org/2000/svg">
<path d="M431.486 66.0159V144H406.514V66.0159H386V44H452V66.0159H431.486Z" fill="white"/>
<path d="M378 66.0159H347.407V82.7268H375.278V104.743H347.407V144H322V44H378V66.0159Z" fill="white"/>
<path d="M218 144V44H242.988L289.139 105.141V44H314V144H289.139L242.988 82.8594V144H218Z" fill="white"/>
<path d="M941.008 88.695H945.729C950.662 88.695 954.448 87.634 957.085 85.5119C959.721 83.3899 961.04 80.3395 961.04 76.3607C961.04 72.382 959.721 69.3316 957.085 67.2095C954.448 65.0875 950.662 64.0265 945.729 64.0265H941.008V88.695ZM996 144H964.868L941.008 105.538V144H916V44H954.915C960.274 44 964.953 44.84 968.951 46.5199C972.948 48.1114 976.223 50.3218 978.775 53.1512C981.412 55.9805 983.368 59.252 984.644 62.9655C986.005 66.679 986.686 70.6578 986.686 74.9019C986.686 82.5057 984.9 88.695 981.327 93.4695C977.839 98.1556 972.651 101.339 965.761 103.019L996 144Z" fill="white"/>
<path d="M908 66.0159H877.585V82.7268H906.303V104.743H877.585V121.984H908V144H852V44H908V66.0159Z" fill="white"/>
<path d="M748 144V44H772.988L819.139 105.141V44H844V144H819.139L772.988 82.8594V144H748Z" fill="white"/>
<path d="M685.008 88.695H689.729C694.662 88.695 698.448 87.634 701.085 85.5119C703.721 83.3899 705.04 80.3395 705.04 76.3607C705.04 72.382 703.721 69.3316 701.085 67.2095C698.448 65.0875 694.662 64.0265 689.729 64.0265H685.008V88.695ZM740 144H708.868L685.008 105.538V144H660V44H698.915C704.274 44 708.953 44.84 712.951 46.5199C716.948 48.1114 720.223 50.3218 722.775 53.1512C725.412 55.9805 727.368 59.252 728.644 62.9655C730.005 66.679 730.686 70.6578 730.686 74.9019C730.686 82.5057 728.9 88.695 725.327 93.4695C721.839 98.1556 716.651 101.339 709.761 103.019L740 144Z" fill="white"/>
<path d="M595.866 44V96.9032C595.866 99.7419 595.947 102.667 596.11 105.677C596.353 108.602 596.962 111.269 597.936 113.677C598.991 116.086 600.615 118.065 602.807 119.613C604.998 121.075 608.083 121.806 612.061 121.806C616.039 121.806 619.083 121.075 621.193 119.613C623.385 118.065 625.009 116.086 626.064 113.677C627.119 111.269 627.728 108.602 627.89 105.677C628.134 102.667 628.256 99.7419 628.256 96.9032V44H652V100.387C652 115.527 648.712 126.581 642.137 133.548C635.643 140.516 625.617 144 612.061 144C598.504 144 588.438 140.516 581.863 133.548C575.288 126.581 572 115.527 572 100.387V44H595.866Z" fill="white"/>
<path d="M511.951 123.841H518.083C525.119 123.841 530.158 123.001 533.2 121.321C536.242 119.641 537.763 116.944 537.763 113.231C537.763 109.517 536.242 106.821 533.2 105.141C530.158 103.461 525.119 102.621 518.083 102.621H511.951V123.841ZM511.951 83.2573H517.085C525.832 83.2573 530.205 80.0301 530.205 73.5756C530.205 67.1211 525.832 63.8939 517.085 63.8939H511.951V83.2573ZM484 44H525.642C535.529 44 543.04 46.2104 548.174 50.6313C553.308 55.0522 555.875 61.4182 555.875 69.7294C555.875 74.7692 554.877 78.9691 552.88 82.3289C550.979 85.6003 548.031 88.3855 544.038 90.6843C548.031 91.3917 551.406 92.4969 554.163 94C557.016 95.4147 559.297 97.183 561.009 99.305C562.815 101.427 564.099 103.814 564.859 106.467C565.62 109.119 566 111.949 566 114.955C566 119.641 565.097 123.797 563.29 127.422C561.579 131.047 559.107 134.097 555.875 136.573C552.737 139.049 548.887 140.905 544.323 142.143C539.76 143.381 534.626 144 528.922 144H484V44Z" fill="white"/>
<path fill-rule="evenodd" clip-rule="evenodd" d="M137.937 160H170V18.2207H137.937V24.8791H163.315V153.342H137.937V160Z" fill="white"/>
<path fill-rule="evenodd" clip-rule="evenodd" d="M78.5358 0.656228C78.7133 0.613973 78.8239 0.437669 78.7842 0.260285C78.7444 0.0829014 78.5691 -0.0298894 78.3904 0.00698023C69.8083 1.77781 66.0072 5.9201 64.8194 10.4475C63.7867 14.3835 64.7497 18.5383 66.1166 21.5369C65.9253 21.4347 65.7214 21.3365 65.5067 21.242C64.7808 20.9223 63.9105 20.6357 62.9385 20.3785C60.9946 19.8639 58.6178 19.4595 56.122 19.1456C51.129 18.5176 45.6249 18.2476 42.0791 18.1913H0.333988C0.149532 18.1913 0 18.3402 0 18.5239V159.337C0 159.521 0.149532 159.67 0.333988 159.67H59.5923C59.7767 159.67 59.9263 159.521 59.9263 159.337C59.9263 157.036 60.5009 155.322 61.4677 154.071C62.435 152.82 63.8191 152 65.4942 151.531C68.8596 150.587 73.3365 151.073 77.6972 152.247C84.5228 154.085 90.2218 153.122 92.4887 152.325C92.5865 152.297 92.6767 152.264 92.7575 152.224C92.917 152.144 92.9853 151.953 92.9128 151.791C92.8403 151.629 92.6524 151.552 92.4862 151.616C92.4242 151.64 92.3581 151.665 92.288 151.69C91.9671 151.776 91.3875 151.813 90.4867 151.717C89.5835 151.622 88.3817 151.395 86.8388 150.97C83.753 150.122 79.321 148.489 73.2127 145.563C61.0111 139.716 51.3896 144.658 47.3434 148.516C48.2366 144.51 49.8321 141.567 51.8056 139.424C53.9578 137.086 56.5755 135.683 59.2651 134.896C64.657 133.32 70.3135 134.234 72.9679 135.063C77.3827 136.443 81.033 135.186 82.3438 134.352C82.4812 134.265 82.5351 134.091 82.4714 133.942C82.4077 133.792 82.2449 133.711 82.0863 133.748C80.3889 134.152 78.5095 133.995 76.5335 133.537C74.5577 133.08 72.514 132.33 70.4904 131.571L70.1099 131.428C68.2246 130.72 66.3598 130.02 64.6225 129.581C62.7715 129.113 61.0161 128.927 59.4977 129.374C56.6972 130.197 54.9713 129.762 53.9912 128.971C53.0006 128.171 52.6956 126.949 52.8468 126.041C53.0126 125.047 53.2493 123.804 54.5831 122.706C55.9355 121.592 58.4629 120.59 63.321 120.255C65.717 120.09 67.4577 120.42 68.9472 120.992C70.1788 121.464 71.2405 122.1 72.3811 122.783C72.6329 122.934 72.8885 123.087 73.1506 123.241C74.593 124.09 76.2011 124.949 78.3685 125.549C80.535 126.15 83.2453 126.489 86.896 126.319C92.8336 126.043 97.1007 122.473 100.01 118.181C102.917 113.891 104.497 108.841 105.065 105.493C105.091 105.337 105.004 105.184 104.855 105.127C104.706 105.07 104.538 105.126 104.453 105.26C102.623 108.144 99.2363 111.787 95.0405 113.38C92.9496 114.174 90.662 114.459 88.2594 113.894C85.856 113.328 83.3117 111.907 80.719 109.248C75.4001 103.793 70.0545 102.29 65.5192 102.664C61.3587 103.007 57.9132 104.926 55.824 106.753C55.8492 106.254 56.0118 105.671 56.3186 105.017C56.7623 104.072 57.4902 103.018 58.4583 101.926C60.3936 99.7414 63.2578 97.4378 66.6185 95.5801C73.3544 91.8567 81.9729 89.9798 89.0655 94.2682C92.709 96.4711 95.576 97.5481 97.961 97.851C100.357 98.1552 102.247 97.6754 103.922 96.8053C105.364 96.056 106.652 95.0131 107.954 93.9583L107.955 93.9578C108.15 93.8001 108.345 93.6421 108.541 93.4848C110.058 92.2665 111.649 91.0711 113.624 90.2482C115.534 89.4525 117.48 89.74 119.491 90.4396C120.497 90.7894 121.505 91.2375 122.525 91.6954L122.674 91.7621C123.64 92.1964 124.618 92.6355 125.593 92.9908C127.64 93.7371 129.736 94.1382 131.809 93.3303C133.879 92.5234 135.845 90.5424 137.715 86.7182C140.65 80.7141 144.122 78.1309 147.221 77.2927C150.33 76.4517 153.129 77.3486 154.747 78.4271C154.884 78.5188 155.069 78.4964 155.18 78.3746C155.291 78.2528 155.296 78.0683 155.192 77.9406C152.117 74.1833 148.746 72.2597 144.826 72.2597C140.93 72.2597 136.563 74.1621 131.489 77.8829C128.999 79.7089 127.079 80.3722 125.399 80.4929C123.824 80.6061 122.433 80.2469 120.911 79.8539C120.798 79.8246 120.684 79.7951 120.569 79.7656C118.92 79.3428 117.125 78.9296 114.884 79.1461C112.644 79.3625 109.985 80.2051 106.585 82.2452C101.244 85.4498 97.793 85.3312 95.6439 84.0392C93.6367 82.8325 92.6447 80.535 92.331 78.5958C92.6486 78.651 93.021 78.6767 93.4297 78.6742C94.0942 78.6701 94.8811 78.5911 95.7355 78.4245C97.4436 78.0915 99.4417 77.4044 101.292 76.2424C103.144 75.0796 104.855 73.4367 105.972 71.1925C107.09 68.946 107.602 66.1185 107.088 62.6065C106.29 57.1586 107.567 53.5212 109.444 51.181C111.329 48.8306 113.844 47.7563 115.568 47.4869C115.722 47.4628 115.839 47.3356 115.85 47.1805C115.86 47.0254 115.761 46.8838 115.612 46.8394C110.903 45.4444 107.241 47.3782 104.575 50.2595C101.918 53.1299 100.215 56.9698 99.3655 59.5178C98.5588 61.9378 96.0245 64.7443 92.3249 66.6979C88.6373 68.6451 83.8289 69.7236 78.52 68.7282C75.8799 68.2332 74.1921 67.2108 73.2234 66.0049C72.2569 64.8017 71.9802 63.3845 72.2177 62.0383C72.697 59.3225 75.2532 56.9414 78.4248 57.2586C81.8252 57.5986 87.1347 57.3506 91.2263 54.8097C93.2805 53.5339 95.0269 51.6802 96.0614 49.0426C97.0945 46.4085 97.4082 43.0174 96.6425 38.6788C95.4449 31.8929 97.2532 27.896 99.9166 25.6235C102.604 23.3308 106.23 22.7336 108.757 22.8984C108.912 22.9085 109.054 22.8101 109.099 22.6613C109.143 22.5124 109.078 22.3528 108.942 22.2766C106.584 20.9536 102.748 19.9123 98.9005 21.112C95.0313 22.3184 91.2333 25.7634 88.9196 33.2485C87.7934 36.892 85.9052 39.4348 83.5945 41.16C81.2804 42.8876 78.5241 43.8088 75.645 44.1754C70.8536 44.7855 65.759 43.8548 61.9054 42.5964C64.5718 42.6602 67.8301 42.3608 70.7788 41.324C74.6822 39.9514 78.0916 37.2633 78.7889 32.3826C79.2153 29.3972 79.0261 27.1583 78.4837 25.3303C77.9416 23.5034 77.0529 22.1096 76.1185 20.8143C75.9094 20.5244 75.6982 20.2395 75.4877 19.9556C73.8197 17.7054 72.2 15.5204 72.0542 11.4377C71.7908 4.06474 76.3174 1.18441 78.5358 0.656228ZM133.014 13.0257C132.955 12.8558 132.771 12.763 132.599 12.8162C132.427 12.8694 132.328 13.0494 132.376 13.2226C132.884 15.0514 132.311 19.6099 125.17 22.2546C117.794 24.9863 116.071 29.5894 116.194 31.6815C116.204 31.8573 116.35 31.9947 116.527 31.9947C125.635 31.9947 130.351 28.8726 132.479 24.8697C134.59 20.899 134.098 16.1634 133.014 13.0257ZM152.903 35.9814C152.874 35.8244 152.737 35.71 152.577 35.7088C152.417 35.7076 152.278 35.8199 152.247 35.9764C151.924 37.5908 150.303 41.0075 146.445 41.779C144.305 42.207 142.751 43.6593 141.684 45.256C140.618 46.8528 140.014 48.6297 139.782 49.7883C139.762 49.8899 139.79 49.9951 139.859 50.0729C139.927 50.1507 140.029 50.1922 140.132 50.1851C146.152 49.7747 149.572 47.342 151.369 44.418C153.154 41.5135 153.307 38.1748 152.903 35.9814ZM126.316 54.5743C119.085 54.165 115.209 56.5846 113.363 59.873C111.539 63.1245 111.756 67.1314 112.499 69.8172C112.529 69.9247 112.611 70.0102 112.717 70.0449C112.823 70.0797 112.94 70.0591 113.028 69.99C115.399 68.1275 117.274 66.3399 118.602 64.6263C119.929 62.9142 120.724 61.2573 120.902 59.6592C121.02 58.5975 121.895 57.6325 123.05 56.8394C124.19 56.0566 125.523 55.497 126.397 55.2238C126.551 55.1757 126.648 55.0248 126.628 54.8654C126.608 54.7059 126.477 54.5834 126.316 54.5743ZM159.383 101.07C149.871 99.0318 144.12 101.198 140.83 104.836C137.562 108.45 136.796 113.438 137.082 116.918C137.091 117.029 137.154 117.127 137.251 117.181C137.348 117.235 137.465 117.238 137.564 117.189C139.265 116.338 141.815 114.826 143.946 113.045C145.011 112.154 145.981 111.188 146.688 110.196C147.393 109.206 147.855 108.162 147.855 107.122C147.855 106.307 148.276 105.583 149.029 104.934C149.785 104.283 150.85 103.734 152.06 103.281C154.479 102.378 157.394 101.893 159.341 101.726C159.506 101.712 159.635 101.58 159.646 101.416C159.656 101.252 159.544 101.104 159.383 101.07ZM138.56 130.438C135.123 133.037 132.667 134.222 130.673 134.592C128.697 134.959 127.136 134.533 125.461 133.809C124.936 133.582 124.401 133.326 123.841 133.059L123.841 133.058C120.795 131.602 117.014 129.795 110.098 130.372C103.514 130.92 99.9265 134.078 98.1507 137.829C96.3876 141.553 96.4257 145.825 96.9969 148.624C97.0243 148.758 97.1316 148.862 97.2672 148.885C97.4029 148.909 97.539 148.847 97.6101 148.729C100.989 143.154 103.021 141.033 105.872 140.676C107.321 140.495 109.016 140.764 111.263 141.347C112.577 141.688 114.058 142.129 115.77 142.64L115.771 142.64C116.99 143.003 118.326 143.402 119.804 143.824C125.594 145.478 130.036 143.634 133.213 140.665C136.374 137.709 138.286 133.641 139.084 130.793C139.122 130.655 139.068 130.508 138.95 130.428C138.831 130.348 138.674 130.352 138.56 130.438Z" fill="#FF852D"/>
</svg>

