<svg width="25" height="25" viewBox="0 0 25 25" fill="none" xmlns="http://www.w3.org/2000/svg">
<g clip-path="url(#clip0_319_2057)">
<circle cx="12" cy="12" r="11.4" stroke="white" stroke-width="1.2"/>
<path fill-rule="evenodd" clip-rule="evenodd" d="M13.4254 7.63514C12.6044 6.98649 12.8156 5.60811 13.0238 5C9.51328 6.31333 9.39849 9.0135 9.80803 10.3318C9.69011 10.1055 9.26568 9.90086 9.05256 9.54054C8.82258 9.15154 8.71047 8.72973 8.74022 8.44595C7.41944 9.58108 7.02975 11.5946 7 12.4595C7 13.0557 7.1293 13.6462 7.38051 14.197C7.63172 14.7479 7.99993 15.2585 8.46411 15.6701C8.92828 16.0917 9.47935 16.4262 10.0858 16.6544C10.6923 16.8826 11.3423 17 11.9988 17C12.6552 17 13.3052 16.8826 13.9117 16.6544C14.5182 16.4262 15.0693 16.0917 15.5334 15.6701C15.9976 15.2585 16.3658 14.7479 16.617 14.197C16.8682 13.6462 16.9975 13.0557 16.9975 12.4595C17.0689 10.7081 15.5672 8.75676 14.8087 8C15.2013 9.2 14.7045 10.1486 14.4071 10.473C14.6302 9.7027 14.4517 8.44595 13.4254 7.63514Z" fill="#FF852D"/>
</g>
<defs>
<clipPath id="clip0_319_2057">
<rect width="25" height="25" fill="white"/>
</clipPath>
</defs>
</svg>
