<svg width="110" height="110" viewBox="0 0 110 110" fill="none" xmlns="http://www.w3.org/2000/svg">
<g id="2">
<rect id="1" x="0.5" y="0.5" width="109" height="109" rx="1.5" fill="#0B0B0C" fill-opacity="0.6" stroke="#2D2D31"/>
<g id="Rectangle 42">
<mask id="path-2-inside-1_55_227" fill="white">
<path d="M19.3536 90.3536C19.1583 90.1583 19.1583 89.8417 19.3536 89.6464L89.3571 19.6429C89.5524 19.4476 89.869 19.4476 90.0642 19.6429C90.2595 19.8381 90.2595 20.1547 90.0642 20.35L20.0607 90.3536C19.8654 90.5488 19.5488 90.5488 19.3536 90.3536Z"/>
</mask>
<path d="M19.3536 90.3536C19.1583 90.1583 19.1583 89.8417 19.3536 89.6464L89.3571 19.6429C89.5524 19.4476 89.869 19.4476 90.0642 19.6429C90.2595 19.8381 90.2595 20.1547 90.0642 20.35L20.0607 90.3536C19.8654 90.5488 19.5488 90.5488 19.3536 90.3536Z" fill="white"/>
<path d="M20.0607 90.3536L90.0642 20.35L88.65 18.9358L18.6464 88.9393L20.0607 90.3536ZM89.3571 19.6429L19.3536 89.6464L20.7678 91.0607L90.7713 21.0571L89.3571 19.6429ZM19.3536 89.6464C19.5488 89.4512 19.8654 89.4512 20.0607 89.6464L18.6464 91.0607C19.2322 91.6464 20.182 91.6464 20.7678 91.0607L19.3536 89.6464ZM89.3571 20.35C89.1619 20.1547 89.1619 19.8381 89.3571 19.6429L90.7713 21.0571C91.3571 20.4713 91.3571 19.5216 90.7713 18.9358L89.3571 20.35ZM90.0642 20.35C89.869 20.5452 89.5524 20.5452 89.3571 20.35L90.7713 18.9358C90.1856 18.35 89.2358 18.35 88.65 18.9358L90.0642 20.35ZM18.6464 88.9393C18.0607 89.5251 18.0607 90.4749 18.6464 91.0607L20.0607 89.6464C20.2559 89.8417 20.2559 90.1583 20.0607 90.3536L18.6464 88.9393Z" fill="#2D2D31" mask="url(#path-2-inside-1_55_227)"/>
</g>
<g id="Rectangle 43">
<mask id="path-4-inside-2_55_227" fill="white">
<path d="M19.6464 19.3536C19.8417 19.1583 20.1583 19.1583 20.3536 19.3536L90.3571 89.3571C90.5524 89.5524 90.5524 89.869 90.3571 90.0642C90.1619 90.2595 89.8453 90.2595 89.65 90.0642L19.6464 20.0607C19.4512 19.8654 19.4512 19.5488 19.6464 19.3536Z"/>
</mask>
<path d="M19.6464 19.3536C19.8417 19.1583 20.1583 19.1583 20.3536 19.3536L90.3571 89.3571C90.5524 89.5524 90.5524 89.869 90.3571 90.0642C90.1619 90.2595 89.8453 90.2595 89.65 90.0642L19.6464 20.0607C19.4512 19.8654 19.4512 19.5488 19.6464 19.3536Z" fill="white"/>
<path d="M19.6464 20.0607L89.65 90.0642L91.0642 88.65L21.0607 18.6464L19.6464 20.0607ZM90.3571 89.3571L20.3536 19.3536L18.9393 20.7678L88.9429 90.7713L90.3571 89.3571ZM20.3536 19.3536C20.5488 19.5488 20.5488 19.8654 20.3536 20.0607L18.9393 18.6464C18.3536 19.2322 18.3536 20.182 18.9393 20.7678L20.3536 19.3536ZM89.65 89.3571C89.8453 89.1619 90.1619 89.1619 90.3571 89.3571L88.9429 90.7713C89.5287 91.3571 90.4784 91.3571 91.0642 90.7713L89.65 89.3571ZM89.65 90.0642C89.4548 89.869 89.4548 89.5524 89.65 89.3571L91.0642 90.7713C91.65 90.1856 91.65 89.2358 91.0642 88.65L89.65 90.0642ZM21.0607 18.6464C20.4749 18.0607 19.5251 18.0607 18.9393 18.6464L20.3536 20.0607C20.1583 20.2559 19.8417 20.2559 19.6464 20.0607L21.0607 18.6464Z" fill="#2D2D31" mask="url(#path-4-inside-2_55_227)"/>
</g>
</g>
</svg>
