<svg width="110" height="110" viewBox="0 0 110 110" fill="none" xmlns="http://www.w3.org/2000/svg">
<rect x="0.5" y="0.5" width="109" height="109" rx="1.5" fill="#2D2D31" fill-opacity="0.2" stroke="#2D2D31"/>
<mask id="path-2-inside-1_2_3" fill="white">
<path fill-rule="evenodd" clip-rule="evenodd" d="M20.3535 19.3535C20.1582 19.1582 19.8416 19.1582 19.6464 19.3535C19.4511 19.5487 19.4511 19.8653 19.6464 20.0606L54.2928 54.707L19.3535 89.6464C19.1582 89.8416 19.1582 90.1582 19.3535 90.3535C19.5487 90.5487 19.8653 90.5487 20.0606 90.3535L54.9999 55.4141L89.6499 90.0642C89.8452 90.2594 90.1618 90.2594 90.357 90.0642C90.5523 89.8689 90.5523 89.5523 90.357 89.357L55.707 54.707L90.0642 20.3499C90.2594 20.1546 90.2594 19.8381 90.0642 19.6428C89.8689 19.4475 89.5523 19.4475 89.357 19.6428L54.9999 53.9999L20.3535 19.3535Z"/>
</mask>
<path fill-rule="evenodd" clip-rule="evenodd" d="M20.3535 19.3535C20.1582 19.1582 19.8416 19.1582 19.6464 19.3535C19.4511 19.5487 19.4511 19.8653 19.6464 20.0606L54.2928 54.707L19.3535 89.6464C19.1582 89.8416 19.1582 90.1582 19.3535 90.3535C19.5487 90.5487 19.8653 90.5487 20.0606 90.3535L54.9999 55.4141L89.6499 90.0642C89.8452 90.2594 90.1618 90.2594 90.357 90.0642C90.5523 89.8689 90.5523 89.5523 90.357 89.357L55.707 54.707L90.0642 20.3499C90.2594 20.1546 90.2594 19.8381 90.0642 19.6428C89.8689 19.4475 89.5523 19.4475 89.357 19.6428L54.9999 53.9999L20.3535 19.3535Z" fill="white"/>
<path d="M19.6464 19.3535L18.9393 18.6464L18.9393 18.6464L19.6464 19.3535ZM20.3535 19.3535L21.0606 18.6464L21.0606 18.6464L20.3535 19.3535ZM19.6464 20.0606L20.3535 19.3535L20.3535 19.3535L19.6464 20.0606ZM54.2928 54.707L54.9999 55.4141C55.3904 55.0236 55.3904 54.3904 54.9999 53.9999L54.2928 54.707ZM19.3535 89.6464L20.0606 90.3535L20.0606 90.3535L19.3535 89.6464ZM19.3535 90.3535L20.0606 89.6464L19.3535 90.3535ZM20.0606 90.3535L20.7677 91.0606L20.7677 91.0606L20.0606 90.3535ZM54.9999 55.4141L55.707 54.707C55.3165 54.3165 54.6833 54.3165 54.2928 54.707L54.9999 55.4141ZM90.357 90.0642L91.0642 90.7713L91.0642 90.7712L90.357 90.0642ZM55.707 54.707L54.9999 53.9999C54.8124 54.1875 54.707 54.4418 54.707 54.707C54.707 54.9722 54.8124 55.2266 54.9999 55.4141L55.707 54.707ZM90.0642 20.3499L90.7713 21.057L90.7713 21.057L90.0642 20.3499ZM90.0642 19.6428L90.7713 18.9357L90.7713 18.9357L90.0642 19.6428ZM89.357 19.6428L90.0642 20.3499L90.0642 20.3499L89.357 19.6428ZM54.9999 53.9999L54.2928 54.707C54.6833 55.0976 55.3165 55.0976 55.707 54.707L54.9999 53.9999ZM20.3535 20.0606C20.1582 20.2558 19.8416 20.2558 19.6464 20.0606L21.0606 18.6464C20.4748 18.0606 19.5251 18.0606 18.9393 18.6464L20.3535 20.0606ZM20.3535 19.3535C20.5487 19.5487 20.5487 19.8653 20.3535 20.0606L18.9393 18.6464C18.3535 19.2322 18.3535 20.1819 18.9393 20.7677L20.3535 19.3535ZM54.9999 53.9999L20.3535 19.3535L18.9393 20.7677L53.5857 55.4141L54.9999 53.9999ZM20.0606 90.3535L54.9999 55.4141L53.5857 53.9999L18.6464 88.9393L20.0606 90.3535ZM20.0606 89.6464C20.2558 89.8416 20.2558 90.1582 20.0606 90.3535L18.6464 88.9393C18.0606 89.525 18.0606 90.4748 18.6464 91.0606L20.0606 89.6464ZM19.3535 89.6464C19.5487 89.4511 19.8653 89.4511 20.0606 89.6464L18.6464 91.0606C19.2322 91.6464 20.1819 91.6464 20.7677 91.0606L19.3535 89.6464ZM54.2928 54.707L19.3535 89.6464L20.7677 91.0606L55.707 56.1212L54.2928 54.707ZM90.357 89.357L55.707 54.707L54.2928 56.1212L88.9428 90.7713L90.357 89.357ZM89.6499 89.357C89.8452 89.1618 90.1618 89.1618 90.357 89.357L88.9428 90.7713C89.5286 91.357 90.4784 91.357 91.0642 90.7713L89.6499 89.357ZM89.6499 90.0642C89.4547 89.8689 89.4547 89.5523 89.6499 89.3571L91.0642 90.7712C91.6499 90.1855 91.6499 89.2357 91.0642 88.6499L89.6499 90.0642ZM54.9999 55.4141L89.6499 90.0642L91.0642 88.6499L56.4141 53.9999L54.9999 55.4141ZM89.357 19.6428L54.9999 53.9999L56.4141 55.4141L90.7713 21.057L89.357 19.6428ZM89.357 20.3499C89.1618 20.1546 89.1618 19.8381 89.357 19.6428L90.7713 21.057C91.357 20.4712 91.357 19.5215 90.7713 18.9357L89.357 20.3499ZM90.0642 20.3499C89.8689 20.5452 89.5523 20.5452 89.3571 20.3499L90.7713 18.9357C90.1855 18.3499 89.2357 18.3499 88.6499 18.9357L90.0642 20.3499ZM55.707 54.707L90.0642 20.3499L88.6499 18.9357L54.2928 53.2928L55.707 54.707ZM19.6464 20.0606L54.2928 54.707L55.707 53.2928L21.0606 18.6464L19.6464 20.0606Z" fill="#2D2D31" mask="url(#path-2-inside-1_2_3)"/>
<rect x="1" y="36" width="108" height="40" fill="#0B0B0C"/>
<path d="M27.8089 52.1C27.1956 52.1 26.6856 51.9867 26.2789 51.76C25.8789 51.5333 25.5756 51.2167 25.3689 50.81C25.1623 50.4033 25.0489 49.93 25.0289 49.39C25.0223 49.1167 25.0189 48.8233 25.0189 48.51C25.0189 48.1967 25.0223 47.8967 25.0289 47.61C25.0489 47.07 25.1623 46.5967 25.3689 46.19C25.5756 45.7833 25.8789 45.4667 26.2789 45.24C26.6856 45.0133 27.1956 44.9 27.8089 44.9C28.2689 44.9 28.6723 44.9633 29.0189 45.09C29.3656 45.2167 29.6523 45.3867 29.8789 45.6C30.1123 45.8133 30.2889 46.0533 30.4089 46.32C30.5289 46.58 30.5956 46.85 30.6089 47.13C30.6156 47.19 30.5956 47.24 30.5489 47.28C30.5089 47.32 30.4589 47.34 30.3989 47.34H29.8489C29.7889 47.34 29.7356 47.3233 29.6889 47.29C29.6489 47.2567 29.6189 47.1967 29.5989 47.11C29.4856 46.59 29.2723 46.2333 28.9589 46.04C28.6523 45.8467 28.2656 45.75 27.7989 45.75C27.2656 45.75 26.8423 45.9033 26.5289 46.21C26.2156 46.51 26.0456 46.9933 26.0189 47.66C25.9989 48.2067 25.9989 48.7667 26.0189 49.34C26.0456 50.0067 26.2156 50.4933 26.5289 50.8C26.8423 51.1 27.2656 51.25 27.7989 51.25C28.2656 51.25 28.6523 51.1533 28.9589 50.96C29.2723 50.7667 29.4856 50.41 29.5989 49.89C29.6189 49.8033 29.6489 49.7433 29.6889 49.71C29.7356 49.6767 29.7889 49.66 29.8489 49.66H30.3989C30.4589 49.66 30.5089 49.68 30.5489 49.72C30.5956 49.76 30.6156 49.81 30.6089 49.87C30.5956 50.15 30.5289 50.4233 30.4089 50.69C30.2889 50.95 30.1123 51.1867 29.8789 51.4C29.6523 51.6133 29.3656 51.7833 29.0189 51.91C28.6723 52.0367 28.2689 52.1 27.8089 52.1ZM34.4591 52.1C33.8924 52.1 33.4058 52.0033 32.9991 51.81C32.5924 51.61 32.2791 51.3067 32.0591 50.9C31.8391 50.4867 31.7158 49.97 31.6891 49.35C31.6824 49.0567 31.6791 48.7767 31.6791 48.51C31.6791 48.2367 31.6824 47.9533 31.6891 47.66C31.7158 47.0467 31.8424 46.5367 32.0691 46.13C32.3024 45.7167 32.6224 45.41 33.0291 45.21C33.4424 45.0033 33.9191 44.9 34.4591 44.9C35.0058 44.9 35.4824 45.0033 35.8891 45.21C36.3024 45.41 36.6258 45.7167 36.8591 46.13C37.0924 46.5367 37.2191 47.0467 37.2391 47.66C37.2524 47.9533 37.2591 48.2367 37.2591 48.51C37.2591 48.7767 37.2524 49.0567 37.2391 49.35C37.2191 49.97 37.0958 50.4867 36.8691 50.9C36.6491 51.3067 36.3358 51.61 35.9291 51.81C35.5224 52.0033 35.0324 52.1 34.4591 52.1ZM34.4591 51.25C34.9724 51.25 35.3891 51.0967 35.7091 50.79C36.0358 50.4833 36.2124 49.9867 36.2391 49.3C36.2524 49 36.2591 48.7333 36.2591 48.5C36.2591 48.26 36.2524 47.9933 36.2391 47.7C36.2258 47.24 36.1391 46.8667 35.9791 46.58C35.8258 46.2933 35.6191 46.0833 35.3591 45.95C35.0991 45.8167 34.7991 45.75 34.4591 45.75C34.1324 45.75 33.8391 45.8167 33.5791 45.95C33.3191 46.0833 33.1091 46.2933 32.9491 46.58C32.7958 46.8667 32.7091 47.24 32.6891 47.7C32.6824 47.9933 32.6791 48.26 32.6791 48.5C32.6791 48.7333 32.6824 49 32.6891 49.3C32.7158 49.9867 32.8924 50.4833 33.2191 50.79C33.5458 51.0967 33.9591 51.25 34.4591 51.25ZM38.9467 52C38.8733 52 38.8167 51.98 38.7767 51.94C38.7367 51.8933 38.7167 51.8367 38.7167 51.77V45.24C38.7167 45.1667 38.7367 45.11 38.7767 45.07C38.8167 45.0233 38.8733 45 38.9467 45H41.3867C42.14 45 42.7367 45.1767 43.1767 45.53C43.6167 45.8833 43.8367 46.4067 43.8367 47.1C43.8367 47.6133 43.7067 48.0333 43.4467 48.36C43.1933 48.68 42.8467 48.9033 42.4067 49.03L43.9467 51.69C43.9667 51.73 43.9767 51.7667 43.9767 51.8C43.9767 51.8533 43.9533 51.9 43.9067 51.94C43.8667 51.98 43.82 52 43.7667 52H43.2867C43.1733 52 43.09 51.97 43.0367 51.91C42.9833 51.85 42.9367 51.79 42.8967 51.73L41.4467 49.19H39.6967V51.77C39.6967 51.8367 39.6733 51.8933 39.6267 51.94C39.5867 51.98 39.53 52 39.4567 52H38.9467ZM39.6967 48.34H41.3467C41.8467 48.34 42.22 48.2367 42.4667 48.03C42.7133 47.8167 42.8367 47.5033 42.8367 47.09C42.8367 46.6833 42.7133 46.3733 42.4667 46.16C42.2267 45.9467 41.8533 45.84 41.3467 45.84H39.6967V48.34ZM45.4994 52C45.4261 52 45.3694 51.98 45.3294 51.94C45.2894 51.8933 45.2694 51.8367 45.2694 51.77V45.24C45.2694 45.1667 45.2894 45.11 45.3294 45.07C45.3694 45.0233 45.4261 45 45.4994 45H47.9394C48.6927 45 49.2894 45.1767 49.7294 45.53C50.1694 45.8833 50.3894 46.4067 50.3894 47.1C50.3894 47.6133 50.2594 48.0333 49.9994 48.36C49.7461 48.68 49.3994 48.9033 48.9594 49.03L50.4994 51.69C50.5194 51.73 50.5294 51.7667 50.5294 51.8C50.5294 51.8533 50.5061 51.9 50.4594 51.94C50.4194 51.98 50.3727 52 50.3194 52H49.8394C49.7261 52 49.6427 51.97 49.5894 51.91C49.5361 51.85 49.4894 51.79 49.4494 51.73L47.9994 49.19H46.2494V51.77C46.2494 51.8367 46.2261 51.8933 46.1794 51.94C46.1394 51.98 46.0827 52 46.0094 52H45.4994ZM46.2494 48.34H47.8994C48.3994 48.34 48.7727 48.2367 49.0194 48.03C49.2661 47.8167 49.3894 47.5033 49.3894 47.09C49.3894 46.6833 49.2661 46.3733 49.0194 46.16C48.7794 45.9467 48.4061 45.84 47.8994 45.84H46.2494V48.34ZM54.4621 52.1C53.9021 52.1 53.4188 52 53.0121 51.8C52.6121 51.6 52.3021 51.2967 52.0821 50.89C51.8688 50.4767 51.7621 49.9467 51.7621 49.3V45.24C51.7621 45.1667 51.7821 45.11 51.8221 45.07C51.8621 45.0233 51.9188 45 51.9921 45H52.5021C52.5755 45 52.6321 45.0233 52.6721 45.07C52.7188 45.11 52.7421 45.1667 52.7421 45.24V49.32C52.7421 49.9733 52.8955 50.4567 53.2021 50.77C53.5088 51.0833 53.9288 51.24 54.4621 51.24C54.9888 51.24 55.4055 51.0833 55.7121 50.77C56.0255 50.4567 56.1821 49.9733 56.1821 49.32V45.24C56.1821 45.1667 56.2021 45.11 56.2421 45.07C56.2888 45.0233 56.3455 45 56.4121 45H56.9321C56.9988 45 57.0521 45.0233 57.0921 45.07C57.1388 45.11 57.1621 45.1667 57.1621 45.24V49.3C57.1621 49.9467 57.0521 50.4767 56.8321 50.89C56.6188 51.2967 56.3121 51.6 55.9121 51.8C55.5121 52 55.0288 52.1 54.4621 52.1ZM59.0639 52C58.9905 52 58.9339 51.98 58.8939 51.94C58.8539 51.8933 58.8339 51.8367 58.8339 51.77V45.24C58.8339 45.1667 58.8539 45.11 58.8939 45.07C58.9339 45.0233 58.9905 45 59.0639 45H61.6039C62.0972 45 62.5239 45.08 62.8839 45.24C63.2505 45.4 63.5339 45.64 63.7339 45.96C63.9339 46.2733 64.0339 46.6667 64.0339 47.14C64.0339 47.6133 63.9339 48.0067 63.7339 48.32C63.5339 48.6333 63.2505 48.87 62.8839 49.03C62.5239 49.19 62.0972 49.27 61.6039 49.27H59.8339V51.77C59.8339 51.8367 59.8105 51.8933 59.7639 51.94C59.7239 51.98 59.6672 52 59.5939 52H59.0639ZM59.8239 48.43H61.5539C62.0472 48.43 62.4172 48.32 62.6639 48.1C62.9105 47.88 63.0339 47.56 63.0339 47.14C63.0339 46.7267 62.9139 46.4067 62.6739 46.18C62.4339 45.9533 62.0605 45.84 61.5539 45.84H59.8239V48.43ZM67.0099 52C66.9432 52 66.8865 51.98 66.8399 51.94C66.7999 51.8933 66.7799 51.8367 66.7799 51.77V45.89H64.8599C64.7932 45.89 64.7365 45.87 64.6899 45.83C64.6499 45.7833 64.6299 45.7267 64.6299 45.66V45.24C64.6299 45.1667 64.6499 45.11 64.6899 45.07C64.7365 45.0233 64.7932 45 64.8599 45H69.6799C69.7532 45 69.8099 45.0233 69.8499 45.07C69.8965 45.11 69.9199 45.1667 69.9199 45.24V45.66C69.9199 45.7267 69.8965 45.7833 69.8499 45.83C69.8099 45.87 69.7532 45.89 69.6799 45.89H67.7699V51.77C67.7699 51.8367 67.7465 51.8933 67.6999 51.94C67.6599 51.98 67.6032 52 67.5299 52H67.0099ZM71.2709 52C71.1976 52 71.1409 51.98 71.1009 51.94C71.0609 51.8933 71.0409 51.8367 71.0409 51.77V45.24C71.0409 45.1667 71.0609 45.11 71.1009 45.07C71.1409 45.0233 71.1976 45 71.2709 45H75.4009C75.4742 45 75.5309 45.0233 75.5709 45.07C75.6109 45.11 75.6309 45.1667 75.6309 45.24V45.62C75.6309 45.6933 75.6109 45.75 75.5709 45.79C75.5309 45.83 75.4742 45.85 75.4009 45.85H72.0009V48.04H75.1809C75.2542 48.04 75.3109 48.0633 75.3509 48.11C75.3909 48.15 75.4109 48.2067 75.4109 48.28V48.65C75.4109 48.7167 75.3909 48.7733 75.3509 48.82C75.3109 48.86 75.2542 48.88 75.1809 48.88H72.0009V51.15H75.4809C75.5542 51.15 75.6109 51.17 75.6509 51.21C75.6909 51.25 75.7109 51.3067 75.7109 51.38V51.77C75.7109 51.8367 75.6909 51.8933 75.6509 51.94C75.6109 51.98 75.5542 52 75.4809 52H71.2709ZM77.3354 52C77.262 52 77.2054 51.98 77.1654 51.94C77.1254 51.8933 77.1054 51.8367 77.1054 51.77V45.24C77.1054 45.1667 77.1254 45.11 77.1654 45.07C77.2054 45.0233 77.262 45 77.3354 45H79.6054C80.292 45 80.8454 45.1033 81.2654 45.31C81.6854 45.5167 81.992 45.8233 82.1854 46.23C82.3787 46.63 82.4787 47.1233 82.4854 47.71C82.492 48.01 82.4954 48.2733 82.4954 48.5C82.4954 48.7267 82.492 48.9867 82.4854 49.28C82.472 49.8933 82.3687 50.4033 82.1754 50.81C81.9887 51.21 81.6887 51.51 81.2754 51.71C80.8687 51.9033 80.3287 52 79.6554 52H77.3354ZM78.0854 51.15H79.6054C80.0654 51.15 80.432 51.0867 80.7054 50.96C80.9787 50.8333 81.1754 50.63 81.2954 50.35C81.422 50.07 81.4887 49.7 81.4954 49.24C81.5087 49.04 81.5154 48.8667 81.5154 48.72C81.5154 48.5667 81.5154 48.4167 81.5154 48.27C81.5154 48.1167 81.5087 47.9433 81.4954 47.75C81.482 47.1033 81.3287 46.6267 81.0354 46.32C80.742 46.0067 80.2487 45.85 79.5554 45.85H78.0854V51.15ZM36.974 66C36.9007 66 36.844 65.98 36.804 65.94C36.764 65.8933 36.744 65.8367 36.744 65.77V59.24C36.744 59.1667 36.764 59.11 36.804 59.07C36.844 59.0233 36.9007 59 36.974 59H37.434C37.514 59 37.574 59.02 37.614 59.06C37.654 59.0933 37.6774 59.12 37.684 59.14L41.004 64.24V59.24C41.004 59.1667 41.024 59.11 41.064 59.07C41.104 59.0233 41.1607 59 41.234 59H41.714C41.7874 59 41.844 59.0233 41.884 59.07C41.9307 59.11 41.954 59.1667 41.954 59.24V65.76C41.954 65.8267 41.9307 65.8833 41.884 65.93C41.844 65.9767 41.7907 66 41.724 66H41.244C41.1707 66 41.114 65.98 41.074 65.94C41.0407 65.9 41.0174 65.8733 41.004 65.86L37.694 60.81V65.77C37.694 65.8367 37.6707 65.8933 37.624 65.94C37.584 65.98 37.5274 66 37.454 66H36.974ZM43.9174 66C43.844 66 43.7874 65.98 43.7474 65.94C43.7074 65.8933 43.6874 65.8367 43.6874 65.77V59.24C43.6874 59.1667 43.7074 59.11 43.7474 59.07C43.7874 59.0233 43.844 59 43.9174 59H47.9974C48.0707 59 48.1274 59.0233 48.1674 59.07C48.2074 59.11 48.2274 59.1667 48.2274 59.24V59.64C48.2274 59.7133 48.2074 59.77 48.1674 59.81C48.1274 59.85 48.0707 59.87 47.9974 59.87H44.6574V62.2H47.7974C47.8707 62.2 47.9274 62.2233 47.9674 62.27C48.0074 62.31 48.0274 62.3667 48.0274 62.44V62.84C48.0274 62.9067 48.0074 62.9633 47.9674 63.01C47.9274 63.05 47.8707 63.07 47.7974 63.07H44.6574V65.77C44.6574 65.8367 44.634 65.8933 44.5874 65.94C44.5474 65.98 44.4907 66 44.4174 66H43.9174ZM51.2872 66C51.2206 66 51.1639 65.98 51.1172 65.94C51.0772 65.8933 51.0572 65.8367 51.0572 65.77V59.89H49.1372C49.0706 59.89 49.0139 59.87 48.9672 59.83C48.9272 59.7833 48.9072 59.7267 48.9072 59.66V59.24C48.9072 59.1667 48.9272 59.11 48.9672 59.07C49.0139 59.0233 49.0706 59 49.1372 59H53.9572C54.0306 59 54.0872 59.0233 54.1272 59.07C54.1739 59.11 54.1972 59.1667 54.1972 59.24V59.66C54.1972 59.7267 54.1739 59.7833 54.1272 59.83C54.0872 59.87 54.0306 59.89 53.9572 59.89H52.0472V65.77C52.0472 65.8367 52.0239 65.8933 51.9772 65.94C51.9372 65.98 51.8806 66 51.8072 66H51.2872ZM57.7455 66C57.6722 66 57.6155 65.98 57.5755 65.94C57.5355 65.8933 57.5155 65.8367 57.5155 65.77V59.23C57.5155 59.1633 57.5355 59.11 57.5755 59.07C57.6155 59.0233 57.6722 59 57.7455 59H58.2755C58.3422 59 58.3955 59.0233 58.4355 59.07C58.4822 59.11 58.5055 59.1633 58.5055 59.23V65.77C58.5055 65.8367 58.4822 65.8933 58.4355 65.94C58.3955 65.98 58.3422 66 58.2755 66H57.7455ZM60.4799 66C60.4132 66 60.3565 65.98 60.3099 65.94C60.2699 65.8933 60.2499 65.8367 60.2499 65.77V59.24C60.2499 59.1667 60.2699 59.11 60.3099 59.07C60.3565 59.0233 60.4132 59 60.4799 59H60.9799C61.0599 59 61.1199 59.02 61.1599 59.06C61.1999 59.1 61.2232 59.1333 61.2299 59.16L63.3499 63.2L65.4799 59.16C65.4932 59.1333 65.5165 59.1 65.5499 59.06C65.5899 59.02 65.6499 59 65.7299 59H66.2199C66.2932 59 66.3499 59.0233 66.3899 59.07C66.4365 59.11 66.4599 59.1667 66.4599 59.24V65.77C66.4599 65.8367 66.4365 65.8933 66.3899 65.94C66.3499 65.98 66.2932 66 66.2199 66H65.7299C65.6632 66 65.6065 65.98 65.5599 65.94C65.5199 65.8933 65.4999 65.8367 65.4999 65.77V60.85L63.8299 64.11C63.8032 64.1767 63.7632 64.23 63.7099 64.27C63.6565 64.3033 63.5899 64.32 63.5099 64.32H63.1999C63.1132 64.32 63.0432 64.3033 62.9899 64.27C62.9432 64.23 62.9032 64.1767 62.8699 64.11L61.1999 60.85V65.77C61.1999 65.8367 61.1765 65.8933 61.1299 65.94C61.0899 65.98 61.0365 66 60.9699 66H60.4799ZM70.7293 66.1C70.1427 66.1 69.6427 65.99 69.2293 65.77C68.8227 65.55 68.5093 65.24 68.2893 64.84C68.076 64.44 67.956 63.97 67.9293 63.43C67.9227 63.1367 67.9193 62.8267 67.9193 62.5C67.9193 62.1667 67.9227 61.85 67.9293 61.55C67.956 61.01 68.076 60.5433 68.2893 60.15C68.5093 59.7567 68.826 59.45 69.2393 59.23C69.6527 59.01 70.1493 58.9 70.7293 58.9C71.2027 58.9 71.6127 58.9667 71.9593 59.1C72.306 59.2333 72.5893 59.4033 72.8093 59.61C73.036 59.81 73.2027 60.02 73.3093 60.24C73.4227 60.46 73.4827 60.6533 73.4893 60.82C73.496 60.88 73.4793 60.93 73.4393 60.97C73.3993 61.0033 73.346 61.02 73.2793 61.02H72.6893C72.6227 61.02 72.5727 61.0067 72.5393 60.98C72.5127 60.9533 72.486 60.9067 72.4593 60.84C72.3993 60.6667 72.2993 60.4967 72.1593 60.33C72.026 60.1633 71.8427 60.0267 71.6093 59.92C71.3827 59.8067 71.0893 59.75 70.7293 59.75C70.2027 59.75 69.776 59.8933 69.4493 60.18C69.1293 60.4667 68.956 60.94 68.9293 61.6C68.9093 62.1933 68.9093 62.7867 68.9293 63.38C68.956 64.0467 69.1327 64.5267 69.4593 64.82C69.786 65.1067 70.2127 65.25 70.7393 65.25C71.0927 65.25 71.406 65.1867 71.6793 65.06C71.9593 64.9267 72.1793 64.7233 72.3393 64.45C72.4993 64.1767 72.5793 63.83 72.5793 63.41V62.99H71.0793C71.0127 62.99 70.956 62.97 70.9093 62.93C70.8693 62.8833 70.8493 62.8233 70.8493 62.75V62.43C70.8493 62.3567 70.8693 62.3 70.9093 62.26C70.956 62.2133 71.0127 62.19 71.0793 62.19H73.3393C73.4127 62.19 73.4693 62.2133 73.5093 62.26C73.5493 62.3 73.5693 62.3567 73.5693 62.43V63.39C73.5693 63.9367 73.456 64.4133 73.2293 64.82C73.0093 65.2267 72.686 65.5433 72.2593 65.77C71.8327 65.99 71.3227 66.1 70.7293 66.1Z" fill="#515158"/>
</svg>
