<svg width="20" height="20" viewBox="0 0 20 20" fill="none" xmlns="http://www.w3.org/2000/svg">
    <path
d="M10.0067 13.6667C9.82667 13.6667 9.66 13.6 9.53333 13.4733C9.4 13.34 9.34 13.1867 9.34 13C9.33333 12.6333 9.62667 12.34 9.99333 12.3333C10 12.3333 10 12.3333 10.0067 12.3333C10.1933 12.3333 10.3467 12.4 10.48 12.5267C10.6 12.6533 10.6667 12.8133 10.6667 12.9933C10.6667 13.1733 10.6 13.3333 10.4733 13.4667C10.3467 13.6 10.1867 13.6667 10.0067 13.6667ZM9.42 11.2267C9.42 10.9267 9.48667 10.6667 9.61333 10.4533C9.74 10.2333 9.96667 9.98667 10.28 9.70667C10.4667 9.54 10.6 9.39333 10.6867 9.26667C10.7733 9.14 10.8133 9 10.8133 8.84C10.8133 8.64667 10.74 8.48667 10.6 8.34667C10.46 8.21333 10.2667 8.14667 10.0333 8.14667C9.78667 8.14667 9.54 8.21333 9.39333 8.34667C9.25333 8.48 9.12667 8.64667 9.12667 9H8C8 8.32667 8.30667 7.84667 8.64667 7.52667C9.02 7.18667 9.5 7 10 7C10.3933 7 10.74 7.08 11.0467 7.23333C11.3533 7.38667 11.5733 7.6 11.7467 7.87333C11.92 8.14667 12 8.44667 12 8.77333C12 9.1 11.9333 9.37333 11.7933 9.60667C11.6533 9.84 11.4733 10.08 11.2 10.3333C10.9867 10.5333 10.8467 10.7067 10.7667 10.8467C10.6867 10.9867 10.6467 11.1733 10.6467 11.3867V11.6667H9.41333V11.2267H9.42Z"
fill="currentColor"
    />
    <circle cx="10" cy="10" r="8.6" stroke="currentColor" stroke-width="1.2" />
</svg>