<svg width="16" height="16" viewBox="0 0 16 16" fill="none" xmlns="http://www.w3.org/2000/svg">
<path d="M8.00002 11.3332C7.63335 11.3332 7.33335 11.0332 7.33335 10.6665V7.99984C7.33335 7.63317 7.63335 7.33317 8.00002 7.33317C8.36669 7.33317 8.66669 7.63317 8.66669 7.99984V10.6665C8.66669 11.0332 8.36669 11.3332 8.00002 11.3332ZM8.00669 14.6665C11.6867 14.6665 14.6667 11.6798 14.6667 7.99984C14.6667 4.31984 11.6867 1.33317 8.00669 1.33317C4.32002 1.33317 1.33335 4.31984 1.33335 7.99984C1.33335 11.6798 4.32002 14.6665 8.00669 14.6665ZM8.00002 2.6665C10.9467 2.6665 13.3334 5.05317 13.3334 7.99984C13.3334 10.9465 10.9467 13.3332 8.00002 13.3332C5.05335 13.3332 2.66669 10.9465 2.66669 7.99984C2.66669 5.05317 5.05335 2.6665 8.00002 2.6665ZM7.33335 4.6665L8.66669 4.6665V5.99984L7.33335 5.99984V4.6665Z" fill="#787885"/>
</svg>
