<svg width="179" height="35" viewBox="0 0 179 35" fill="none" xmlns="http://www.w3.org/2000/svg">
<path d="M170.022 18.9079H170.793C171.598 18.9079 172.216 18.7347 172.647 18.3883C173.077 18.0418 173.292 17.5439 173.292 16.8943C173.292 16.2448 173.077 15.7468 172.647 15.4003C172.216 15.0539 171.598 14.8807 170.793 14.8807H170.022V18.9079ZM179 27.9366H173.917L170.022 21.6576V27.9366H165.939V11.6113H172.293C173.167 11.6113 173.931 11.7485 174.584 12.0227C175.236 12.2825 175.771 12.6434 176.188 13.1053C176.618 13.5672 176.938 14.1013 177.146 14.7075C177.368 15.3137 177.479 15.9633 177.479 16.6561C177.479 17.8975 177.187 18.9079 176.604 19.6874C176.035 20.4524 175.188 20.972 174.063 21.2463L179 27.9366Z" fill="white"/>
<path d="M163.328 15.2055H158.362V17.9336H163.051V21.5277H158.362V24.3424H163.328V27.9366H154.186V11.6113H163.328V15.2055Z" fill="white"/>
<path d="M135.9 27.9366V11.6113H139.98L147.514 21.5927V11.6113H151.573V27.9366H147.514L139.98 17.9552V27.9366H135.9Z" fill="white"/>
<path d="M124.313 18.9079H125.084C125.889 18.9079 126.507 18.7347 126.938 18.3883C127.368 18.0418 127.583 17.5439 127.583 16.8943C127.583 16.2448 127.368 15.7468 126.938 15.4003C126.507 15.0539 125.889 14.8807 125.084 14.8807H124.313V18.9079ZM133.291 27.9366H128.208L124.313 21.6576V27.9366H120.23V11.6113H126.584C127.458 11.6113 128.222 11.7485 128.875 12.0227C129.527 12.2825 130.062 12.6434 130.479 13.1053C130.909 13.5672 131.229 14.1013 131.437 14.7075C131.659 15.3137 131.77 15.9633 131.77 16.6561C131.77 17.8975 131.479 18.9079 130.895 19.6874C130.326 20.4524 129.479 20.972 128.354 21.2463L133.291 27.9366Z" fill="white"/>
<path d="M108.451 11.6113V20.2479C108.451 20.7114 108.464 21.1888 108.491 21.6803C108.53 22.1578 108.63 22.5931 108.789 22.9864C108.961 23.3796 109.226 23.7026 109.584 23.9553C109.942 24.1941 110.445 24.3134 111.095 24.3134C111.744 24.3134 112.241 24.1941 112.586 23.9553C112.943 23.7026 113.208 23.3796 113.381 22.9864C113.553 22.5931 113.652 22.1578 113.679 21.6803C113.719 21.1888 113.739 20.7114 113.739 20.2479V11.6113H117.615V20.8167C117.615 23.2883 117.078 25.0928 116.005 26.2303C114.945 27.3678 113.308 27.9366 111.095 27.9366C108.882 27.9366 107.238 27.3678 106.165 26.2303C105.091 25.0928 104.555 23.2883 104.555 20.8167V11.6113H108.451Z" fill="white"/>
<path d="M93.1198 24.6456H94.1209C95.2694 24.6456 96.092 24.5084 96.5887 24.2342C97.0853 23.9599 97.3337 23.5197 97.3337 22.9134C97.3337 22.3072 97.0853 21.8669 96.5887 21.5927C96.092 21.3184 95.2694 21.1813 94.1209 21.1813H93.1198V24.6456ZM93.1198 18.0202H93.9579C95.3858 18.0202 96.0998 17.4933 96.0998 16.4396C96.0998 15.3859 95.3858 14.8591 93.9579 14.8591H93.1198V18.0202ZM88.5566 11.6113H95.3548C96.9689 11.6113 98.1951 11.9722 99.0332 12.6939C99.8713 13.4156 100.29 14.4549 100.29 15.8117C100.29 16.6345 100.127 17.3201 99.8015 17.8686C99.4911 18.4027 99.0099 18.8574 98.358 19.2327C99.0099 19.3481 99.5609 19.5286 100.011 19.774C100.477 20.0049 100.849 20.2936 101.129 20.64C101.423 20.9865 101.633 21.3762 101.757 21.8092C101.881 22.2422 101.943 22.7041 101.943 23.1949C101.943 23.9599 101.796 24.6383 101.501 25.2302C101.222 25.822 100.818 26.32 100.29 26.7241C99.7782 27.1283 99.1496 27.4314 98.4046 27.6335C97.6596 27.8356 96.8215 27.9366 95.8902 27.9366H88.5566V11.6113Z" fill="white"/>
<path d="M77.3731 15.2055V27.9366H73.2962V15.2055H69.9473V11.6113H80.7219V15.2055H77.3731Z" fill="white"/>
<path d="M67.3355 15.2055H62.3412V17.9336H66.8911V21.5277H62.3412V27.9366H58.1934V11.6113H67.3355V15.2055Z" fill="white"/>
<path d="M39.9082 27.9366V11.6113H43.9876L51.5219 21.5927V11.6113H55.5805V27.9366H51.5219L43.9876 17.9552V27.9366H39.9082Z" fill="white"/>
<mask id="path-10-inside-1_389_512" fill="white">
<path d="M29.0254 4.65771H35.5555V33.6503H29.0254V4.65771Z"/>
</mask>
<path d="M35.5555 4.65771H37.5555C37.5555 3.55315 36.6601 2.65771 35.5555 2.65771V4.65771ZM35.5555 33.6503V35.6503C36.6601 35.6503 37.5555 34.7549 37.5555 33.6503H35.5555ZM29.0254 6.65771H35.5555V2.65771H29.0254V6.65771ZM33.5555 4.65771V33.6503H37.5555V4.65771H33.5555ZM35.5555 31.6503H29.0254V35.6503H35.5555V31.6503Z" fill="#FFB900" mask="url(#path-10-inside-1_389_512)"/>
<path d="M14.5784 5.5466C13.9151 4.32958 13.4531 1.71643 16.9112 1C16.4309 1.11481 15.4841 1.73021 15.539 3.2733C15.6076 5.20216 17.2543 5.13327 16.9112 7.54435C16.6368 9.47321 14.2353 9.67987 13.0689 9.54209C14.6927 10.208 18.1737 10.7821 19.1069 7.75101C20.04 4.71994 22.1487 5.01846 23.0865 5.5466C22.0344 5.47771 20.0537 6.04259 20.5478 8.85321C21.1653 12.3665 18.2835 12.7109 16.9112 12.5732C15.539 12.4354 14.7156 14.6398 16.9112 15.0531C19.1069 15.4664 20.8908 14.1576 21.2339 13.1243C21.577 12.0909 22.6062 10.0243 24.4587 10.5754C23.7268 10.6902 22.3454 11.4847 22.6748 13.7443C23.0865 16.5687 20.2047 17.1198 19.6558 16.9131C19.7473 17.7627 20.4791 19.1313 22.6748 17.8086C25.4193 16.1553 25.6938 18.4286 27.7522 16.9131C29.8106 15.3976 31.2515 15.3976 32.4865 16.9131C31.8004 16.4538 30.1262 16.1553 28.9186 18.6353C27.4091 21.7352 25.6938 18.6353 24.047 19.3242C22.4003 20.013 22.0573 21.9419 19.1069 20.1508C16.1565 18.3597 11.9711 21.7352 12.2455 22.9063C13.046 22.1256 15.1821 21.1153 17.3229 23.3197C19.4636 25.5241 21.5083 23.6871 22.2631 22.493C22.0343 23.8478 20.9868 26.5849 18.6265 26.6952C15.6762 26.8329 15.8134 25.3174 13.8236 25.4552C11.8338 25.593 11.6966 26.2818 11.628 26.6952C11.5594 27.1085 11.9025 27.7974 13.0689 27.4529C14.2353 27.1085 16.2251 28.6929 17.666 28.3485C17.4144 28.5092 16.6917 28.7618 15.8134 28.4863C14.7156 28.1418 11.1477 27.7285 10.4616 31.5173C11.1477 30.7366 13.1786 29.492 15.8134 30.7596C18.3063 31.9588 19.4397 32.1015 19.7482 32.0162C19.764 32.0106 19.779 32.005 19.793 31.9995C19.7807 32.0057 19.7658 32.0113 19.7482 32.0162C19.3006 32.1749 18.1525 32.3722 16.774 31.9995C14.99 31.5173 13.0689 31.5862 13.0689 33.5151H1V4.71994H9.50097C10.9419 4.74291 13.9746 4.94039 14.5784 5.5466Z" fill="#FFB900"/>
<path d="M26.4485 5.5466C24.9664 6.0977 24.6417 7.01621 24.6645 7.40657C28.3422 7.40657 28.3925 4.88068 27.958 3.61774C28.0723 4.03107 27.9305 4.9955 26.4485 5.5466Z" fill="#FFB900"/>
<path d="M30.7711 9.54209C29.9478 9.70742 29.559 10.6673 29.4675 11.1265C31.8827 10.9612 32.1663 9.17469 32.0062 8.30211C31.9376 8.64655 31.5945 9.37676 30.7711 9.54209Z" fill="#FFB900"/>
<path d="M26.6543 12.1598C23.7451 11.9945 23.6125 14.1117 23.9098 15.1909C24.8704 14.4331 25.4193 13.7443 25.4879 13.1243C25.5428 12.6283 26.2884 12.2746 26.6543 12.1598Z" fill="#FFB900"/>
<path d="M33.3785 21.6664C29.5361 20.8397 28.8042 23.4345 28.9186 24.8352C29.6047 24.4908 30.977 23.609 30.977 22.8374C30.977 22.0659 32.578 21.7352 33.3785 21.6664Z" fill="#FFB900"/>
<path d="M23.3609 27.6596C20.7261 27.88 20.5249 30.1855 20.7536 31.3107C22.1259 29.0374 22.4689 29.4507 25.3507 30.2773C27.6561 30.9387 28.8728 28.8077 29.193 27.6596C26.3799 29.7951 26.6543 27.384 23.3609 27.6596Z" fill="#FFB900"/>
<path d="M14.5784 5.5466C13.9151 4.32958 13.4531 1.71643 16.9112 1C16.4309 1.11481 15.4841 1.73021 15.539 3.2733C15.6076 5.20216 17.2543 5.13327 16.9112 7.54435C16.6368 9.47321 14.2353 9.67987 13.0689 9.54209C14.6927 10.208 18.1737 10.7821 19.1069 7.75101C20.04 4.71994 22.1487 5.01846 23.0865 5.5466C22.0344 5.47771 20.0537 6.04259 20.5478 8.85321C21.1653 12.3665 18.2835 12.7109 16.9112 12.5732C15.539 12.4354 14.7156 14.6398 16.9112 15.0531C19.1069 15.4664 20.8908 14.1576 21.2339 13.1243C21.577 12.0909 22.6062 10.0243 24.4587 10.5754C23.7268 10.6902 22.3454 11.4847 22.6748 13.7443C23.0865 16.5687 20.2047 17.1198 19.6558 16.9131C19.7473 17.7627 20.4791 19.1313 22.6748 17.8086C25.4193 16.1553 25.6938 18.4286 27.7522 16.9131C29.8106 15.3976 31.2515 15.3976 32.4865 16.9131C31.8004 16.4538 30.1262 16.1553 28.9186 18.6353C27.4091 21.7352 25.6938 18.6353 24.047 19.3242C22.4003 20.013 22.0573 21.9419 19.1069 20.1508C16.1565 18.3597 11.9711 21.7352 12.2455 22.9063C13.046 22.1256 15.1821 21.1153 17.3229 23.3197C19.4636 25.5241 21.5083 23.6871 22.2631 22.493C22.0343 23.8478 20.9868 26.5849 18.6265 26.6952C15.6762 26.8329 15.8134 25.3174 13.8236 25.4552C11.8338 25.593 11.6966 26.2818 11.628 26.6952C11.5594 27.1085 11.9025 27.7974 13.0689 27.4529C14.2353 27.1085 16.2251 28.6929 17.666 28.3485C17.4144 28.5092 16.6917 28.7618 15.8134 28.4863C14.7156 28.1418 11.1477 27.7285 10.4616 31.5173C11.1477 30.7366 13.1786 29.492 15.8134 30.7596C18.4482 32.0271 19.5643 32.1143 19.793 31.9995C19.3813 32.1603 18.2012 32.3853 16.774 31.9995C14.99 31.5173 13.0689 31.5862 13.0689 33.5151H1V4.71994H9.50097C10.9419 4.74291 13.9746 4.94039 14.5784 5.5466ZM24.6645 7.40657C24.6417 7.01621 24.9664 6.0977 26.4485 5.5466C27.9305 4.9955 28.0724 4.03107 27.958 3.61774C28.3925 4.88068 28.3422 7.40657 24.6645 7.40657ZM29.4675 11.1265C29.559 10.6673 29.9478 9.70742 30.7711 9.54209C31.5945 9.37676 31.9376 8.64655 32.0062 8.30211C32.1663 9.17469 31.8827 10.9612 29.4675 11.1265ZM23.9098 15.1909C23.6125 14.1117 23.7451 11.9945 26.6543 12.1598C26.2884 12.2746 25.5428 12.6283 25.4879 13.1243C25.4193 13.7443 24.8704 14.4331 23.9098 15.1909ZM28.9186 24.8352C28.8042 23.4345 29.5361 20.8397 33.3785 21.6664C32.578 21.7352 30.977 22.0659 30.977 22.8374C30.977 23.609 29.6047 24.4908 28.9186 24.8352ZM20.7536 31.3107C20.5249 30.1855 20.7261 27.88 23.3609 27.6596C26.6543 27.384 26.3799 29.7951 29.193 27.6596C28.8728 28.8077 27.6561 30.9387 25.3507 30.2773C22.4689 29.4507 22.1259 29.0374 20.7536 31.3107Z" stroke="#FFB900" stroke-linecap="round" stroke-linejoin="round"/>
</svg>
