<svg width="55" height="30" viewBox="0 0 201 200" fill="none" xmlns="http://www.w3.org/2000/svg">
<path d="M0.390625 100C0.390625 44.7715 45.1622 0 100.391 0C155.619 0 200.391 44.7715 200.391 100C200.391 155.228 155.619 200 100.391 200C45.1622 200 0.390625 155.228 0.390625 100Z" fill="#6067F9"/>
<path d="M146.838 40C138.054 52.2607 127.061 60.7634 114.072 66.4474C109.563 65.2026 104.936 64.5684 100.379 64.6154C95.8223 64.5684 91.1951 65.2261 86.6855 66.4474C73.6966 60.7399 62.7042 52.2842 53.9198 40C51.2656 46.6706 41.0483 69.6888 53.3091 101.867C53.3091 101.867 49.3866 118.661 56.5974 133.083C56.5974 133.083 67.026 128.362 75.3173 135.009C83.9843 142.032 81.2128 148.796 87.3196 154.621C92.5809 160 100.402 160 100.402 160C100.402 160 108.224 160 113.485 154.645C119.592 148.843 116.844 142.079 125.488 135.032C133.755 128.385 144.207 133.106 144.207 133.106C151.395 118.685 147.496 101.891 147.496 101.891C159.71 69.6888 149.516 46.6706 146.838 40ZM59.8387 97.4281C53.1681 83.7346 51.3361 64.9442 55.5404 50.0998C61.1071 64.1926 68.6702 70.5109 77.6661 77.1814C73.861 85.0969 66.6972 92.5661 59.8387 97.4281ZM79.0284 121.55C73.7671 119.225 72.6631 114.645 72.6631 114.645C79.827 110.135 90.3731 113.588 90.7019 124.251C85.1587 120.893 83.3032 123.406 79.0284 121.55ZM100.379 159.413C96.6209 159.413 93.5674 156.712 93.5674 153.4C93.5674 150.088 96.6209 147.387 100.379 147.387C104.137 147.387 107.19 150.088 107.19 153.4C107.19 156.735 104.137 159.413 100.379 159.413ZM121.753 121.55C117.478 123.429 115.646 120.893 110.079 124.251C110.432 113.588 120.931 110.135 128.118 114.645C128.118 114.621 126.991 119.225 121.753 121.55ZM140.919 97.4281C134.084 92.5661 126.897 85.1204 123.068 77.1814C132.064 70.5109 139.651 64.1691 145.194 50.0998C149.445 64.9442 147.613 83.7581 140.919 97.4281Z" fill="#F7F7F7"/>
</svg>
