<svg width="68" height="60" viewBox="0 0 68 60" fill="none" xmlns="http://www.w3.org/2000/svg">
<mask id="mask0_62_447" style="mask-type:luminance" maskUnits="userSpaceOnUse" x="18" y="0" width="32" height="32">
<path d="M49.894 0H18V31.894H49.894V0Z" fill="white"/>
</mask>
<g mask="url(#mask0_62_447)">
<path d="M48.1986 14.9931C48.1986 22.9519 41.7468 29.4037 33.788 29.4037C25.8293 29.4037 19.3774 22.9519 19.3774 14.9931C19.3774 7.03437 25.8293 0.58252 33.788 0.58252C41.7468 0.58252 48.1986 7.03437 48.1986 14.9931Z" fill="white"/>
<path d="M34.0853 8.01372e-05C25.1683 -0.0743392 17.9257 7.16826 18.0001 16.0853C18.0745 24.7445 25.1497 31.8197 33.8062 31.8914C42.7233 31.9685 49.9685 24.7233 49.8915 15.8062C49.8197 7.14967 42.7446 0.0744992 34.0853 8.01372e-05ZM29.3172 7.93638C30.3378 9.23341 30.9491 10.8733 30.9491 12.654C30.9491 14.1956 30.4919 15.6309 29.7052 16.8295H24.1769L29.3172 7.93638ZM46.1731 18.799C46.1731 18.8733 46.1333 18.9371 46.0642 18.9664C45.6894 19.1258 44.4535 19.6999 43.9379 20.415C42.6116 22.2622 41.599 25.1645 39.3346 25.1645H29.8859C26.5397 25.1645 23.741 22.5093 23.7437 18.9717C23.7437 18.884 23.8181 18.8122 23.9058 18.8122H28.3843C28.5384 18.8122 28.6607 18.9371 28.6607 19.0887V19.9524C28.6607 20.4123 29.0328 20.7843 29.4926 20.7843H32.8893V18.8069H30.569C31.9033 17.1165 32.698 14.9823 32.698 12.6593C32.698 10.068 31.7038 7.70515 30.0772 5.93768C31.0607 6.05197 32.0016 6.24865 32.8893 6.50913V5.95895C32.8893 5.38752 33.3517 4.92505 33.9232 4.92505C34.4946 4.92505 34.957 5.38752 34.957 5.95895V7.28521C38.1279 8.76562 40.2037 11.2214 40.2037 13.9989C40.2037 15.6282 39.4914 17.1458 38.2608 18.4215C38.0243 18.6661 37.6973 18.8043 37.3545 18.8043H34.957V20.779H37.9658C38.6142 20.779 39.7784 19.5484 40.3312 18.8069C40.3312 18.8069 40.3552 18.7697 40.419 18.7511C40.4828 18.7325 45.9446 17.4781 45.9446 17.4781C46.0588 17.4462 46.1731 17.5338 46.1731 17.6508V18.799Z" fill="#0086FF"/>
</g>
<path d="M5.52465 56.034C4.51642 56.034 3.5905 55.7973 2.74687 55.3241C1.90325 54.8508 1.23457 54.1975 0.74074 53.3642C0.246913 52.5205 0 51.569 0 50.5092C0 49.4599 0.246913 48.5185 0.74074 47.6851C1.23457 46.8415 1.90325 46.1831 2.74687 45.7099C3.5905 45.2366 4.51642 45 5.52465 45C6.54322 45 7.46914 45.2366 8.30243 45.7099C9.14606 46.1831 9.80966 46.8415 10.2932 47.6851C10.7871 48.5185 11.034 49.4599 11.034 50.5092C11.034 51.569 10.7871 52.5205 10.2932 53.3642C9.80966 54.1975 9.14606 54.8508 8.30243 55.3241C7.45881 55.7973 6.53289 56.034 5.52465 56.034ZM5.52465 54.1049C6.17284 54.1049 6.74381 53.9609 7.23764 53.6728C7.73147 53.3745 8.11725 52.9526 8.39507 52.4074C8.67281 51.8621 8.81176 51.2294 8.81176 50.5092C8.81176 49.7891 8.67281 49.1615 8.39507 48.6266C8.11725 48.0813 7.73147 47.6646 7.23764 47.3765C6.74381 47.0884 6.17284 46.9444 5.52465 46.9444C4.87655 46.9444 4.30042 47.0884 3.79626 47.3765C3.30243 47.6646 2.91665 48.0813 2.63891 48.6266C2.36109 49.1615 2.22222 49.7891 2.22222 50.5092C2.22222 51.2294 2.36109 51.8621 2.63891 52.4074C2.91665 52.9526 3.30243 53.3745 3.79626 53.6728C4.30042 53.9609 4.87655 54.1049 5.52465 54.1049Z" fill="white"/>
<path d="M14.1844 48.6117C14.4622 48.2208 14.8429 47.8967 15.3264 47.6396C15.8203 47.3721 16.3809 47.2383 17.0085 47.2383C17.7389 47.2383 18.3974 47.4183 18.9838 47.7784C19.5805 48.1385 20.0486 48.6529 20.3882 49.3216C20.738 49.9801 20.9128 50.7466 20.9128 51.621C20.9128 52.4955 20.738 53.2723 20.3882 53.9513C20.0486 54.62 19.5805 55.1395 18.9838 55.5099C18.3974 55.8803 17.7389 56.0655 17.0085 56.0655C16.3809 56.0655 15.8253 55.9368 15.3419 55.6797C14.8686 55.4224 14.4828 55.0984 14.1844 54.7074V60.0007H12.0239V47.3771H14.1844V48.6117ZM18.706 51.621C18.706 51.1066 18.598 50.6643 18.382 50.2939C18.1762 49.9132 17.8985 49.6251 17.5487 49.4297C17.2091 49.2342 16.8387 49.1365 16.4376 49.1365C16.0466 49.1365 15.6762 49.2393 15.3264 49.4451C14.9869 49.6405 14.7092 49.9286 14.4931 50.3093C14.2873 50.6899 14.1844 51.1375 14.1844 51.6519C14.1844 52.1663 14.2873 52.6138 14.4931 52.9944C14.7092 53.3751 14.9869 53.6684 15.3264 53.8741C15.6762 54.0696 16.0466 54.1673 16.4376 54.1673C16.8387 54.1673 17.2091 54.0644 17.5487 53.8586C17.8985 53.6529 18.1762 53.3597 18.382 52.979C18.598 52.5984 18.706 52.1457 18.706 51.621Z" fill="white"/>
<path d="M30.276 51.4667C30.276 51.7754 30.2554 52.0531 30.2143 52.3H23.9643C24.0157 52.9173 24.2318 53.4009 24.6125 53.7507C24.9931 54.1005 25.4612 54.2753 26.0167 54.2753C26.8192 54.2753 27.3902 53.9307 27.7297 53.2414H30.06C29.8131 54.0644 29.3398 54.7434 28.6402 55.2784C27.9406 55.8031 27.0816 56.0655 26.063 56.0655C25.24 56.0655 24.4992 55.8854 23.8408 55.5253C23.1927 55.1549 22.6834 54.6354 22.313 53.9667C21.953 53.298 21.7729 52.5264 21.7729 51.6519C21.7729 50.7671 21.953 49.9903 22.313 49.3216C22.6731 48.6529 23.1772 48.1385 23.8254 47.7784C24.4735 47.4183 25.2194 47.2383 26.063 47.2383C26.8758 47.2383 27.6011 47.4132 28.2389 47.763C28.8871 48.1128 29.3861 48.6117 29.7359 49.2599C30.096 49.8978 30.276 50.6333 30.276 51.4667ZM28.0383 50.8494C28.0281 50.2939 27.8274 49.8515 27.4365 49.5222C27.0455 49.1828 26.5672 49.013 26.0013 49.013C25.4663 49.013 25.0137 49.1776 24.6433 49.5068C24.2832 49.8257 24.062 50.2733 23.9797 50.8494H28.0383Z" fill="white"/>
<path d="M36.1277 47.2534C37.1463 47.2534 37.9693 47.5776 38.5969 48.2257C39.2245 48.8635 39.5383 49.7586 39.5383 50.9109V55.9263H37.3778V51.204C37.3778 50.525 37.208 50.0055 36.8685 49.6454C36.529 49.275 36.066 49.0899 35.4796 49.0899C34.8829 49.0899 34.4097 49.275 34.0599 49.6454C33.7203 50.0055 33.5506 50.525 33.5506 51.204V55.9263H31.3901V47.3769H33.5506V48.4418C33.8387 48.0714 34.2039 47.7833 34.6462 47.5776C35.0989 47.3615 35.5928 47.2534 36.1277 47.2534Z" fill="white"/>
<path d="M44.5402 56.034C43.7891 56.034 43.1101 55.9054 42.5031 55.6481C41.9064 55.391 41.4331 55.0206 41.0834 54.537C40.7336 54.0535 40.5535 53.4825 40.5432 52.8241H42.858C42.8889 53.2664 43.0432 53.6162 43.321 53.8735C43.6091 54.1306 44 54.2593 44.4938 54.2593C44.9979 54.2593 45.394 54.141 45.6821 53.9043C45.9701 53.6574 46.1142 53.3385 46.1142 52.9476C46.1142 52.6286 46.0165 52.3663 45.821 52.1605C45.6255 51.9547 45.3786 51.7953 45.0802 51.6821C44.7921 51.5586 44.391 51.4249 43.8765 51.2809C43.177 51.0751 42.606 50.8744 42.1636 50.679C41.7315 50.4733 41.3559 50.1698 41.037 49.7685C40.7284 49.357 40.574 48.8118 40.574 48.1327C40.574 47.4949 40.7336 46.9393 41.0524 46.4661C41.3714 45.9928 41.8189 45.6327 42.3951 45.3858C42.9712 45.1286 43.6296 45 44.3704 45C45.4815 45 46.3817 45.2726 47.071 45.8179C47.7706 46.3529 48.1564 47.1039 48.2284 48.071H45.8519C45.8313 47.7006 45.6718 47.3971 45.3734 47.1605C45.0854 46.9136 44.6996 46.7901 44.216 46.7901C43.7942 46.7901 43.4547 46.8982 43.1975 47.1142C42.9506 47.3303 42.8272 47.644 42.8272 48.0555C42.8272 48.3436 42.9197 48.5854 43.1049 48.7808C43.3004 48.966 43.537 49.1204 43.8148 49.2439C44.1029 49.357 44.5041 49.4908 45.0185 49.645C45.7181 49.8508 46.2891 50.0566 46.7315 50.2623C47.1739 50.4681 47.5545 50.7767 47.8735 51.1883C48.1924 51.5998 48.3518 52.1399 48.3518 52.8086C48.3518 53.3847 48.2027 53.9197 47.9043 54.4135C47.606 54.9074 47.1687 55.3035 46.5926 55.6019C46.0165 55.8899 45.3323 56.034 44.5402 56.034Z" fill="white"/>
<path d="M57.5561 51.4667C57.5561 51.7754 57.5349 52.0531 57.4943 52.3H51.2441C51.2955 52.9173 51.5115 53.4009 51.8922 53.7507C52.2729 54.1005 52.741 54.2753 53.2966 54.2753C54.0991 54.2753 54.6704 53.9307 55.0099 53.2414H57.3402C57.0929 54.0644 56.6196 54.7434 55.9202 55.2784C55.2208 55.8031 54.3614 56.0655 53.3428 56.0655C52.5198 56.0655 51.7791 55.8854 51.1207 55.5253C50.4725 55.1549 49.9633 54.6354 49.5929 53.9667C49.2328 53.298 49.0527 52.5264 49.0527 51.6519C49.0527 50.7671 49.2328 49.9903 49.5929 49.3216C49.9529 48.6529 50.4571 48.1385 51.1052 47.7784C51.7534 47.4183 52.4992 47.2383 53.3428 47.2383C54.1556 47.2383 54.8812 47.4132 55.5188 47.763C56.1666 48.1128 56.6662 48.6117 57.0159 49.2599C57.3757 49.8978 57.5561 50.6333 57.5561 51.4667ZM55.3181 50.8494C55.308 50.2939 55.1073 49.8515 54.7161 49.5222C54.3254 49.1828 53.847 49.013 53.2811 49.013C52.7461 49.013 52.2934 49.1776 51.9231 49.5068C51.563 49.8257 51.3419 50.2733 51.2595 50.8494H55.3181Z" fill="white"/>
<path d="M58.2678 51.621C58.2678 50.7568 58.438 49.9903 58.7776 49.3216C59.1273 48.6529 59.5955 48.1385 60.1815 47.7784C60.7784 47.4183 61.4423 47.2383 62.1722 47.2383C62.8107 47.2383 63.3661 47.3669 63.8395 47.6241C64.323 47.8813 64.7082 48.2054 64.997 48.5963V47.3771H67.1723V55.9266H64.997V54.6766C64.7184 55.0778 64.3331 55.4122 63.8395 55.6797C63.356 55.9368 62.7946 56.0655 62.157 56.0655C61.4372 56.0655 60.7784 55.8803 60.1815 55.5099C59.5955 55.1395 59.1273 54.62 58.7776 53.9513C58.438 53.2723 58.2678 52.4955 58.2678 51.621ZM64.997 51.6519C64.997 51.1272 64.8937 50.6797 64.6879 50.3093C64.4822 49.9286 64.2044 49.6405 63.8547 49.4451C63.505 49.2393 63.129 49.1365 62.7277 49.1365C62.3272 49.1365 61.9563 49.2342 61.6167 49.4297C61.2772 49.6251 60.9995 49.9132 60.7835 50.2939C60.5778 50.6643 60.4753 51.1066 60.4753 51.621C60.4753 52.1354 60.5778 52.5881 60.7835 52.979C60.9995 53.3597 61.2772 53.6529 61.6167 53.8586C61.9665 54.0644 62.3373 54.1673 62.7277 54.1673C63.129 54.1673 63.505 54.0696 63.8547 53.8741C64.2044 53.6684 64.4822 53.3803 64.6879 53.0099C64.8937 52.6292 64.997 52.1766 64.997 51.6519Z" fill="white"/>
</svg>
