<svg width="53" height="57" viewBox="0 0 53 57" fill="none" xmlns="http://www.w3.org/2000/svg">
<path fill-rule="evenodd" clip-rule="evenodd" d="M17.0175 0C13.1419 0 10 3.14187 10 7.01754V24.9825C10 28.8581 13.1419 32 17.0175 32H34.9825C38.8581 32 42 28.8581 42 24.9825V7.01754C42 3.14187 38.8581 0 34.9825 0H17.0175ZM32.2013 15.9597C33.2092 15.6944 34.106 14.9309 34.106 13.3959C34.106 10.8402 31.9631 10.2454 29.2172 10.2454H18.2806V21.7542H22.8838V17.8482H28.344C29.1853 17.8482 29.6774 18.1858 29.6774 19.0217V21.7542H34.2806V18.877C34.2806 17.3099 33.4076 16.3212 32.2013 15.9597ZM29.1088 13.4609H22.8858V15.03H29.1088V15.0296C29.1181 15.0299 29.1275 15.03 29.1367 15.03C29.5647 15.03 29.9116 14.6787 29.9116 14.2454C29.9116 13.8121 29.5647 13.4609 29.1367 13.4609C29.1275 13.4609 29.1181 13.461 29.1088 13.4614V13.4609Z" fill="#FEDA03"/>
<path fill-rule="evenodd" clip-rule="evenodd" d="M39.1616 51.8248C39.1616 54.343 37.702 56.0764 35.2255 56.0764C34.2087 56.0764 33.2739 55.6512 32.8639 54.9971V55.9456H30.7974V44.3682H32.8639V48.6198C33.3395 47.9984 34.2251 47.5732 35.2583 47.5732C37.702 47.5732 39.1616 49.3066 39.1616 51.8248ZM32.7326 51.8248C32.7326 53.3128 33.6019 54.294 34.9303 54.294C36.2423 54.294 37.1116 53.3128 37.1116 51.8248C37.1116 50.3367 36.2423 49.3557 34.9303 49.3557C33.6019 49.3557 32.7326 50.3367 32.7326 51.8248Z" fill="white"/>
<path fill-rule="evenodd" clip-rule="evenodd" d="M9.90726 55.9456L7.38316 50.8274C8.51484 50.2714 9.18716 49.1758 9.18716 47.884C9.18716 45.8236 7.72758 44.499 5.48073 44.499H0L0.0164217 55.9456H2.24684V51.2526H5.10347L7.3161 55.9456H9.90726ZM2.24684 46.4122H5.13632C6.28432 46.4122 6.94032 46.9682 6.94032 47.884C6.94032 48.7997 6.28432 49.3393 5.13632 49.3393H2.24684V46.4122Z" fill="white"/>
<path fill-rule="evenodd" clip-rule="evenodd" d="M16.5888 47.7041H18.6552V55.9456H16.5888V54.9972C16.1788 55.6513 15.2604 56.0764 14.2271 56.0764C11.7507 56.0764 10.291 54.3431 10.291 51.8248C10.291 49.3066 11.7507 47.5732 14.1943 47.5732C15.2275 47.5732 16.1131 47.9984 16.5888 48.6198V47.7041ZM12.3411 51.8248C12.3411 53.3128 13.2103 54.294 14.5223 54.294C15.8508 54.294 16.72 53.3128 16.72 51.8248C16.72 50.3367 15.8508 49.3557 14.5223 49.3557C13.2103 49.3557 12.3411 50.3367 12.3411 51.8248Z" fill="white"/>
<path d="M25.8558 47.7041L25.7246 49.6991C25.4295 49.5682 25.0358 49.5028 24.6751 49.5028C23.5106 49.5028 22.461 50.4676 22.461 52.9204V55.9456H20.3945V47.7041H22.461V49.2084C22.871 48.2764 23.9534 47.5732 24.9538 47.5732C25.2491 47.5732 25.6098 47.6223 25.8558 47.7041Z" fill="white"/>
<path d="M29.0654 55.9451H26.999V47.7036H29.0654V55.9451Z" fill="white"/>
<path d="M40.6685 55.9456H42.735V44.3682H40.6685V55.9456Z" fill="white"/>
<path fill-rule="evenodd" clip-rule="evenodd" d="M52.4683 51.5468C52.4683 49.6336 51.1071 47.5732 48.319 47.5732C45.5802 47.5732 44.2354 49.6827 44.2354 51.8248C44.2354 53.9669 45.695 56.0764 48.4339 56.0764C50.3691 56.0764 51.8123 55.1607 52.2716 53.6073L50.3363 53.084C50.1231 53.8853 49.4343 54.3431 48.4667 54.3431C47.2859 54.3431 46.4822 53.6073 46.3018 52.3644H52.4356C52.452 52.2009 52.4683 51.8412 52.4683 51.5468ZM46.351 50.86C46.5806 49.7481 47.3022 49.1431 48.319 49.1431C49.5163 49.1431 50.1559 49.8789 50.2543 50.86H46.351Z" fill="white"/>
<path d="M27.7368 44C27.2247 44 26.8096 44.4067 26.8096 44.9083V45.5128C26.8096 46.0144 27.2247 46.4211 27.7368 46.4211H28.3359C28.848 46.4211 29.2632 46.0144 29.2632 45.5128V44.9083C29.2632 44.4067 28.848 44 28.3359 44H27.7368Z" fill="white"/>
</svg>
