<svg width="16" height="16" viewBox="0 0 16 16" fill="none" xmlns="http://www.w3.org/2000/svg">
    <path
        fill-rule="evenodd"
        clip-rule="evenodd"
        d="M2.18425 0.97314C1.86915 0.658042 1.35828 0.658042 1.04318 0.97314C0.728084 1.28824 0.728084 1.79911 1.04318 2.11421L13.9529 15.0239C14.268 15.339 14.7789 15.339 15.094 15.0239C15.4091 14.7088 15.4091 14.198 15.094 13.8829L2.18425 0.97314ZM1.50001 4.77317H1.99054L8.06858 10.8512V13.6486C8.06864 13.8007 8.02573 13.9496 7.94482 14.0783C7.86391 14.207 7.74827 14.3103 7.61124 14.3761C7.4742 14.442 7.32135 14.4678 7.17029 14.4506C7.01924 14.4334 6.87612 14.3738 6.75743 14.2788L2.94422 11.2288H1.61371L1.49925 11.2288C0.671114 11.2284 -2.78886e-06 10.5569 0 9.72879L1.16374e-05 6.27317C1.44272e-05 5.44474 0.671587 4.77317 1.50001 4.77317ZM11.0305 8.10775L12.4122 9.48949C12.5658 9.01857 12.6459 8.51878 12.6459 8.00061C12.6459 6.60313 12.0625 5.33797 11.0265 4.41331C10.8669 4.27079 10.6572 4.19753 10.4435 4.20963C10.2299 4.22174 10.0298 4.31822 9.88724 4.47786C9.74472 4.6375 9.67145 4.84722 9.68356 5.06087C9.69566 5.27453 9.79215 5.47463 9.95179 5.61715C10.6497 6.24004 11.0322 7.06949 11.0322 8.00061C11.0322 8.03647 11.0316 8.07219 11.0305 8.10775ZM10.9297 13.7366L10.9457 13.7284L12.1322 14.9148C11.9792 15.0062 11.8226 15.0928 11.6623 15.1744C11.5679 15.2227 11.4649 15.2519 11.3591 15.2604C11.2534 15.2689 11.147 15.2564 11.0461 15.2237C10.9452 15.191 10.8517 15.1387 10.771 15.0699C10.6903 15.001 10.624 14.9169 10.5759 14.8224C10.5277 14.7279 10.4986 14.6248 10.4904 14.5191C10.4821 14.4133 10.4947 14.307 10.5276 14.2061C10.5605 14.1053 10.6129 14.0119 10.6819 13.9313C10.7509 13.8507 10.8351 13.7846 10.9297 13.7366ZM13.7561 10.8334L14.9517 12.0289C15.6261 10.8381 16 9.45995 16 8.00061C16 4.90066 14.3258 2.1767 11.6607 0.82602C11.5661 0.777417 11.4629 0.747991 11.3569 0.739433C11.2509 0.730876 11.1442 0.743356 11.0431 0.776157C10.9419 0.808957 10.8482 0.861431 10.7674 0.93056C10.6866 0.999689 10.6203 1.08411 10.5722 1.17897C10.5241 1.27383 10.4953 1.37725 10.4873 1.4833C10.4794 1.58934 10.4925 1.69591 10.5258 1.79688C10.5592 1.89785 10.6122 1.99123 10.6818 2.07164C10.7514 2.15206 10.8362 2.21793 10.9313 2.26546C13.0542 3.34181 14.3863 5.50983 14.3863 8.00061C14.3863 9.01455 14.1637 9.97649 13.7561 10.8334ZM5.5844 2.66168L8.06858 5.14586V2.3526C8.06848 2.20063 8.02547 2.05177 7.9445 1.92318C7.86352 1.79458 7.74788 1.69146 7.61087 1.6257C7.47387 1.55994 7.32108 1.5342 7.17009 1.55146C7.01911 1.56872 6.87606 1.62827 6.75743 1.72325L5.5844 2.66168Z"
        fill="currentColor"
    />
</svg>