<svg width="40" height="29" viewBox="0 0 40 29" fill="none" xmlns="http://www.w3.org/2000/svg">
<path d="M39.1269 4.96107C38.8968 4.1127 38.4487 3.3393 37.8271 2.71773C37.2055 2.09616 36.4321 1.64806 35.5837 1.41795C32.4775 0.569824 19.975 0.569824 19.975 0.569824C19.975 0.569824 7.47188 0.594824 4.365 1.44295C3.51662 1.67306 2.74323 2.12116 2.12166 2.74273C1.50009 3.3643 1.05199 4.1377 0.821875 4.98607C0 8.09295 0 14.5886 0 14.5886C0 14.5886 0 21.0842 0.8475 24.2161C1.07761 25.0645 1.52571 25.8378 2.14728 26.4594C2.76885 27.081 3.54225 27.5291 4.39063 27.7592C7.49687 28.6073 20 28.6073 20 28.6073C20 28.6073 32.5031 28.6073 35.61 27.7598C36.4584 27.5297 37.2318 27.0816 37.8533 26.46C38.4749 25.8385 38.923 25.0651 39.1531 24.2167C40 21.1098 40 14.5886 40 14.5886C40 14.5886 39.975 8.09295 39.1269 4.96107Z" fill="#FF0000"/>
<path d="M15.9948 20.5961L26.3666 14.5886L15.9941 8.58105L15.9948 20.5961Z" fill="white"/>
</svg>
