<?xml version="1.0" encoding="UTF-8"?>
<svg width="192" height="46" fill="none" version="1.1" viewBox="0 0 192 46" xml:space="preserve" xmlns="http://www.w3.org/2000/svg"><defs><style>.cls-1{fill:#0245f5;}.cls-2{fill:#fff;}</style><style>.cls-1{fill:#0245f5;}.cls-2{fill:#fff;}</style></defs><g transform="matrix(.18623 0 0 .18623 .6515 2.2486)"><circle class="cls-1" cx="111.43" cy="111.43" r="111.43"/><path class="cls-2" d="m169.29 162.05a76.63 76.63 0 0 0 9.25-13.05l-15.66-7.79a47.65 47.65 0 0 1-8.21 10.28c-4.36 4.05-9 6.42-13.73 7-9.13 1.17-15.51-1.66-24.82-7.63-9.77-6.27-20.85-13.38-36.57-11.37-9.53 1.22-18.29 6.22-26 14.84a76 76 0 0 0-9.24 13.07l15.69 7.8a48.79 48.79 0 0 1 8.19-10.3c4.32-4 8.94-6.35 13.75-7a32.81 32.81 0 0 1 4-0.26c7.2 0 13 2.78 20.84 7.83 9.13 5.86 20.51 13.15 36.59 11.11 9.63-1.2 18.4-6.11 25.92-14.53zm0-46.63a76.63 76.63 0 0 0 9.25-13.07l-15.66-7.79a47.65 47.65 0 0 1-8.21 10.28c-4.36 4.06-9 6.42-13.73 7-9.13 1.17-15.51-1.65-24.82-7.62-9.77-6.22-20.85-13.36-36.57-11.36-9.53 1.23-18.29 6.22-26 14.85a75.56 75.56 0 0 0-9.24 13.06l15.69 7.79a48.73 48.73 0 0 1 8.19-10.29c4.34-4 8.94-6.33 13.75-7a30.9 30.9 0 0 1 4-0.26c7.2 0 13 2.78 20.84 7.82 9.13 5.87 20.51 13.16 36.59 11.12 9.71-1.26 18.45-6.16 26-14.58zm0-46.63a76.63 76.63 0 0 0 9.25-13.07l-15.66-7.8a47.71 47.71 0 0 1-8.21 10.29c-4.36 4.06-9 6.42-13.73 7-9.13 1.16-15.51-1.65-24.82-7.62-9.76-6.28-20.84-13.38-36.56-11.38-9.54 1.25-18.28 6.22-26 14.84a76.08 76.08 0 0 0-9.25 13.07l15.69 7.81a48.48 48.48 0 0 1 8.19-10.29c4.34-4 8.94-6.33 13.75-7a30.9 30.9 0 0 1 4-0.26c7.2 0 13 2.78 20.84 7.82 9.13 5.86 20.5 13.16 36.59 11.12 9.71-1.26 18.45-6.16 26-14.58z"/><path class="cls-1" d="m282.61 174.84v-108.44h47.86q11.16 0 18.9 3.18a24.83 24.83 0 0 1 11.7 9.14 25.39 25.39 0 0 1 3.93 14.33q0 9.28-4.57 15.64t-13.25 8.52l-0.31-2.94a32.84 32.84 0 0 1 12.63 5.42 26.55 26.55 0 0 1 11.25 22.31 34.19 34.19 0 0 1-2.75 14.32 27.54 27.54 0 0 1-8 10.31 35.21 35.21 0 0 1-12.32 6.19 56.29 56.29 0 0 1-15.57 2zm24.78-64.91h19.37a16.38 16.38 0 0 0 6.89-1.32 9.58 9.58 0 0 0 4.35-3.71 10.93 10.93 0 0 0 1.47-5.81 9.67 9.67 0 0 0-3.41-7.82q-3.41-2.86-10.22-2.87h-18.45zm0 42.91h23.7a17.64 17.64 0 0 0 7.36-1.39 10.77 10.77 0 0 0 4.73-4.11 12.18 12.18 0 0 0 1.7-6.58 10 10 0 0 0-1.78-6 11.26 11.26 0 0 0-5-3.8 20.6 20.6 0 0 0-7.75-1.32h-22.96z"/><path class="cls-1" d="m388.25 174.84v-114.63h24.75v114.63z"/><path class="cls-1" d="m462.45 176.54a29.24 29.24 0 0 1-15.57-3.95 25.81 25.81 0 0 1-9.88-11.39 41.69 41.69 0 0 1-3.49-17.81v-50.81h24.94v47.42a21.29 21.29 0 0 0 1.55 8.5 11.82 11.82 0 0 0 4.65 5.5 13.73 13.73 0 0 0 7.43 1.94 15.82 15.82 0 0 0 6-1.09 13.65 13.65 0 0 0 4.65-3 14.2 14.2 0 0 0 3-4.49 14.37 14.37 0 0 0 1.08-5.65v-49.13h24.94v82.26h-23.43l-1.08-16.84 4.64-1.86a26.71 26.71 0 0 1-6.19 10.46 32.51 32.51 0 0 1-10.38 7.28 31.19 31.19 0 0 1-12.86 2.66z"/><path class="cls-1" d="m573.05 176.38q-13.63 0-23.7-5.49a39.85 39.85 0 0 1-15.64-15 42.23 42.23 0 0 1-5.58-21.76 47 47 0 0 1 3.1-17.35 41.17 41.17 0 0 1 8.67-13.78 38.67 38.67 0 0 1 13.25-9 43.6 43.6 0 0 1 16.85-3.12 39.71 39.71 0 0 1 15.83 3.12 37 37 0 0 1 12.47 8.67 38.11 38.11 0 0 1 8.06 13.17 43.4 43.4 0 0 1 2.47 16.57l-0.15 6.66h-65.52l-3.57-13.94h48.95l-2.63 2.94v-3.07a13.94 13.94 0 0 0-2.4-6.9 14.5 14.5 0 0 0-5.5-4.72 17.08 17.08 0 0 0-7.75-1.7 20.7 20.7 0 0 0-10.26 2.32 15.33 15.33 0 0 0-6.43 7 26.15 26.15 0 0 0-2.17 11.23 23.58 23.58 0 0 0 2.87 11.85 19.52 19.52 0 0 0 8.37 7.82 28.56 28.56 0 0 0 13.08 2.79 26.55 26.55 0 0 0 9.38-1.55 35.32 35.32 0 0 0 8.9-5.27l11.62 16.42a46.6 46.6 0 0 1-10.22 6.82 53.18 53.18 0 0 1-11.08 3.95 49.8 49.8 0 0 1-11.27 1.32z"/><path class="cls-1" d="m627.27 174.84v-108.44h23.54l39.5 64.29-16.88-0.16 40-64.13h22.57v108.44h-25.55v-33.77q0-13.95 0.7-25.1t2.4-22.15l2.94 8.06-30 46.62h-10.27l-29.44-46.31 3-8.37q1.69 10.38 2.4 21.3t0.69 25.95v33.77z"/><path class="cls-1" d="m799.36 176.38a46.06 46.06 0 0 1-22.85-5.57 42.19 42.19 0 0 1-15.8-15.18 41.69 41.69 0 0 1-5.81-22 41.66 41.66 0 0 1 5.81-22 42.14 42.14 0 0 1 15.8-15.19 49.65 49.65 0 0 1 45.7 0 41.49 41.49 0 0 1 15.72 15.19 42.07 42.07 0 0 1 5.73 22 42.11 42.11 0 0 1-5.73 22 41.54 41.54 0 0 1-15.72 15.18 46.06 46.06 0 0 1-22.85 5.57zm0-21.37a18 18 0 0 0 9.92-2.79 19.48 19.48 0 0 0 6.81-7.59 22.45 22.45 0 0 0 2.33-11 22.86 22.86 0 0 0-2.33-11.07 19.3 19.3 0 0 0-6.81-7.67 18 18 0 0 0-9.92-2.79 18.29 18.29 0 0 0-10 2.79 19 19 0 0 0-6.89 7.67 22.74 22.74 0 0 0-2.33 11.07 22.34 22.34 0 0 0 2.33 11 19.22 19.22 0 0 0 6.89 7.59 18.29 18.29 0 0 0 10 2.78z"/><path class="cls-1" d="m882.85 174.84-34.39-82.26h27.42l20.45 61.5-6 0.62 21.06-62.12h27.11l-36.09 82.26z"/><path class="cls-1" d="m988.19 176.38q-13.63 0-23.7-5.49a39.88 39.88 0 0 1-15.65-15 42.23 42.23 0 0 1-5.58-21.76 47.21 47.21 0 0 1 3.1-17.35 41.35 41.35 0 0 1 8.64-13.78 38.72 38.72 0 0 1 13.24-9 43.61 43.61 0 0 1 16.81-3.17 39.74 39.74 0 0 1 15.95 3.17 37.12 37.12 0 0 1 12.47 8.67 38.09 38.09 0 0 1 8 13.17 43.21 43.21 0 0 1 2.48 16.57l-0.16 6.66h-65.5l-3.56-13.94h48.95l-2.64 2.94v-3.07a13.75 13.75 0 0 0-2.4-6.9 14.43 14.43 0 0 0-5.5-4.72 17 17 0 0 0-7.74-1.7 20.67 20.67 0 0 0-10.3 2.4 15.27 15.27 0 0 0-6.43 7 26 26 0 0 0-2.17 11.23 23.48 23.48 0 0 0 2.87 11.85 19.49 19.49 0 0 0 8.36 7.82 28.63 28.63 0 0 0 13.09 2.79 26.49 26.49 0 0 0 9.37-1.55 35.19 35.19 0 0 0 8.91-5.27l11.62 16.42a46.66 46.66 0 0 1-10.23 6.82 52.9 52.9 0 0 1-11.07 3.95 49.86 49.86 0 0 1-11.23 1.24z"/></g></svg>
