<svg width="46" height="46" viewBox="0 0 512 512" fill="none" xmlns="http://www.w3.org/2000/svg">
<path d="M255.964 0C114.647 0 0 114.617 0 256C0 397.383 114.647 512 255.964 512C397.281 512 512 397.383 512 256C512 114.617 397.377 0 255.964 0ZM327.455 366.683C311.38 372.186 294.389 374.937 276.528 374.937C255.94 374.937 236.993 371.848 219.784 365.718C202.575 359.587 187.659 350.802 175.035 339.411C162.485 328.043 152.589 314.358 145.493 298.357C138.469 282.38 134.945 264.375 134.945 244.391C134.945 224.407 138.541 206.789 145.782 190.642C152.951 174.496 163.064 160.739 175.977 149.347C188.889 137.98 204.023 129.219 221.377 123.064C238.803 116.91 257.605 113.845 277.904 113.845C286.231 113.845 294.606 114.545 303.078 115.92C311.549 117.32 319.659 119.227 327.455 121.689C335.348 124.15 342.516 126.926 349.178 129.991C355.767 133.08 361.366 136.459 366.025 140.152L312.949 216.732C309.208 212.581 304.405 209.395 298.395 207.151C292.433 204.93 286.641 203.796 281.114 203.796C275.949 203.796 270.856 204.641 265.908 206.33C260.96 208.02 256.591 210.65 252.778 214.174C248.916 217.722 245.754 222.018 243.316 227.086C240.806 232.155 239.575 238.092 239.575 244.85C239.575 251.607 240.782 257.521 243.316 262.613C245.754 267.681 248.916 271.833 252.778 275.067C256.591 278.301 260.96 280.763 265.908 282.452C270.856 284.141 275.949 284.986 281.114 284.986C287.293 284.986 293.302 283.828 299.119 281.535C305.008 279.218 309.739 276.08 313.456 272.074L366.893 346.506C356.78 354.471 343.65 361.18 327.431 366.707L327.455 366.683Z" fill="#ff3db6"></path><path d="M298.396 207.126C292.435 204.906 286.642 203.772 281.115 203.772C275.95 203.772 270.857 204.616 265.909 206.306C260.961 207.995 256.592 210.626 252.779 214.15C248.917 217.698 245.755 221.994 243.317 227.062C240.807 232.13 239.576 238.067 239.576 244.825C239.576 247.215 239.794 249.483 240.107 251.68C240.662 247.697 241.7 244.029 243.317 240.746C245.755 235.678 248.917 231.382 252.779 227.834C256.592 224.286 260.961 221.68 265.909 219.99C270.857 218.301 275.95 217.456 281.115 217.456C286.642 217.456 292.459 218.566 298.396 220.811C304.43 223.031 309.233 226.241 312.95 230.393L366.026 153.812C364.071 152.267 361.922 150.795 359.63 149.347L312.95 216.708C309.209 212.557 304.406 209.371 298.396 207.126Z" fill="#ff3db6"></path><path d="M327.453 366.683C311.379 372.186 294.387 374.937 276.526 374.937C255.938 374.937 236.991 371.848 219.782 365.718C202.573 359.587 187.657 350.802 175.034 339.411C162.483 328.043 152.587 314.358 145.491 298.357C139.288 284.238 135.813 268.55 135.088 251.294C134.992 253.514 134.944 255.783 134.944 258.051C134.944 278.035 138.467 296.04 145.491 312.017C152.587 328.019 162.483 341.703 175.034 353.071C187.657 364.463 202.573 373.224 219.782 379.378C236.991 385.533 255.938 388.598 276.526 388.598C294.387 388.598 311.379 385.846 327.453 380.344C343.673 374.841 356.779 368.107 366.916 360.143L360.423 351.092C351.372 357.053 340.415 362.242 327.478 366.659L327.453 366.683Z" fill="#F00096">
</path>
</svg>
