<svg width="48" height="48" viewBox="0 0 64 64" fill="none" xmlns="http://www.w3.org/2000/svg">
    <rect width="64" height="64" rx="32" fill="white"/>
    <path d="M46.444 22.4426C43.8019 20.3946 40.6312 19.3706 37.2844 19.2L36.756 19.712C39.7504 20.3946 42.3927 21.7599 44.8587 23.6373C41.8642 22.1013 38.5174 21.0773 34.9945 20.7359C33.9376 20.5653 33.0568 20.5653 32 20.5653C30.9432 20.5653 30.0624 20.5653 29.0055 20.7359C25.4826 21.0773 22.1358 22.1013 19.1413 23.6373C21.6073 21.7599 24.2496 20.3946 27.244 19.712L26.7156 19.2C23.3688 19.3706 20.1981 20.3946 17.556 22.4426C14.5615 27.904 12.9762 34.048 12.8 40.3625C15.4422 43.0933 19.1413 44.8 23.0166 44.8C23.0166 44.8 24.2496 43.4346 25.1302 42.2399C22.8404 41.728 20.7266 40.5332 19.3174 38.656C20.5504 39.3386 21.7834 40.0213 23.0166 40.5332C24.6019 41.2159 26.1872 41.5573 27.7725 41.8986C29.1817 42.0692 30.5908 42.2399 32 42.2399C33.4092 42.2399 34.8183 42.0692 36.2275 41.8986C37.8128 41.5573 39.3981 41.2159 40.9834 40.5332C42.2166 40.0213 43.4496 39.3386 44.6826 38.656C43.2734 40.5332 41.1596 41.728 38.8698 42.2399C39.7504 43.4346 40.9834 44.8 40.9834 44.8C44.8587 44.8 48.5578 43.0933 51.2 40.3625C51.0238 34.048 49.4385 27.904 46.444 22.4426ZM26.1872 37.2905C24.4257 37.2905 22.8404 35.7545 22.8404 33.8773C22.8404 32 24.4257 30.464 26.1872 30.464C27.9487 30.464 29.534 32 29.534 33.8773C29.534 35.7545 27.9487 37.2905 26.1872 37.2905ZM37.8128 37.2905C36.0513 37.2905 34.466 35.7545 34.466 33.8773C34.466 32 36.0513 30.464 37.8128 30.464C39.5743 30.464 41.1596 32 41.1596 33.8773C41.1596 35.7545 39.5743 37.2905 37.8128 37.2905Z" fill="black"/>
</svg>
