<svg width="48" height="48" viewBox="0 0 64 64" fill="none" xmlns="http://www.w3.org/2000/svg">
<g clip-path="url(#clip0_926_1192)">
<rect width="64" height="64" rx="32" fill="white"/>
<path d="M47.9619 22.8056C45.7327 22.8056 43.5947 21.9199 42.0184 20.3436C40.4421 18.7672 39.5565 16.6292 39.5566 14.3999H33.5512V37.9157C33.5501 38.9879 33.2116 40.0325 32.5836 40.9015C31.9556 41.7704 31.0701 42.4198 30.0525 42.7574C29.0349 43.095 27.9368 43.1037 26.914 42.7824C25.8911 42.4611 24.9953 41.826 24.3536 40.9671C23.7118 40.1082 23.3567 39.0692 23.3385 37.9972C23.3202 36.9252 23.6399 35.8747 24.252 34.9945C24.8642 34.1143 25.7379 33.4491 26.7492 33.0932C27.7606 32.7373 28.8583 32.7088 29.8868 33.0116V27.1738C27.7011 26.8791 25.4774 27.2582 23.5128 28.2605C21.5482 29.2628 19.9362 30.8406 18.8919 32.7832C17.8476 34.7259 17.4209 36.9408 17.6686 39.1324C17.9163 41.3239 18.8267 43.3878 20.2783 45.0483C21.7298 46.7088 23.6534 47.8869 25.7921 48.4254C27.9309 48.9639 30.183 48.8371 32.2478 48.0619C34.3126 47.2868 36.0918 45.9001 37.3478 44.0872C38.6037 42.2742 39.2767 40.1212 39.2768 37.9157L39.452 26.0292C41.9195 27.8406 44.9016 28.8152 47.9625 28.8106L47.9619 22.8056Z" fill="black"/>
</g>
<defs>
<clipPath id="clip0_926_1192">
<rect width="64" height="64" fill="white"/>
</clipPath>
</defs>
</svg>
