<svg width="48" height="48" viewBox="0 0 64 64" fill="none" xmlns="http://www.w3.org/2000/svg">
    <rect width="64" height="64" rx="32" fill="white"/>
    <path fill-rule="evenodd" clip-rule="evenodd" d="M18.02 43.2909C17.3924 43.1052 16.8197 42.7749 16.3503 42.3278C15.881 41.8807 15.5286 41.3299 15.3231 40.722C14.1487 37.5798 13.8007 24.4591 16.0626 21.8689C16.8154 21.0263 17.8782 20.5075 19.0204 20.4252C25.0884 19.7883 43.836 19.8732 45.9891 20.6375C46.5947 20.8293 47.148 21.1524 47.6075 21.5826C48.067 22.0128 48.4208 22.5389 48.6425 23.1215C49.9257 26.3699 49.9692 38.1743 48.4685 41.2952C48.0704 42.1076 47.4039 42.7657 46.5763 43.1635C44.3144 44.2675 21.0213 44.2463 18.02 43.2909V43.2909ZM27.6548 37.1339L38.5292 31.6139L27.6548 26.0514V37.1339Z" fill="black"/>
</svg>
