<svg width="196" height="32" viewBox="0 0 980 160" fill="none" xmlns="http://www.w3.org/2000/svg">
<path d="M415.486 66.0159V144H390.514V66.0159H370V44H436V66.0159H415.486Z" fill="white"/>
<path d="M362 66.0159H331.407V82.7268H359.278V104.743H331.407V144H306V44H362V66.0159Z" fill="white"/>
<path d="M202 144V44H226.988L273.139 105.141V44H298V144H273.139L226.988 82.8594V144H202Z" fill="white"/>
<path d="M925.008 88.695H929.729C934.662 88.695 938.448 87.634 941.085 85.5119C943.721 83.3899 945.04 80.3395 945.04 76.3607C945.04 72.382 943.721 69.3316 941.085 67.2095C938.448 65.0875 934.662 64.0265 929.729 64.0265H925.008V88.695ZM980 144H948.868L925.008 105.538V144H900V44H938.915C944.274 44 948.953 44.84 952.951 46.5199C956.948 48.1114 960.223 50.3218 962.775 53.1512C965.412 55.9805 967.368 59.252 968.644 62.9655C970.005 66.679 970.686 70.6578 970.686 74.9019C970.686 82.5057 968.9 88.695 965.327 93.4695C961.839 98.1556 956.651 101.339 949.761 103.019L980 144Z" fill="white"/>
<path d="M892 66.0159H861.585V82.7268H890.303V104.743H861.585V121.984H892V144H836V44H892V66.0159Z" fill="white"/>
<path d="M732 144V44H756.988L803.139 105.141V44H828V144H803.139L756.988 82.8594V144H732Z" fill="white"/>
<path d="M669.008 88.695H673.729C678.662 88.695 682.448 87.634 685.085 85.5119C687.721 83.3899 689.04 80.3395 689.04 76.3607C689.04 72.382 687.721 69.3316 685.085 67.2095C682.448 65.0875 678.662 64.0265 673.729 64.0265H669.008V88.695ZM724 144H692.868L669.008 105.538V144H644V44H682.915C688.274 44 692.953 44.84 696.951 46.5199C700.948 48.1114 704.223 50.3218 706.775 53.1512C709.412 55.9805 711.368 59.252 712.644 62.9655C714.005 66.679 714.686 70.6578 714.686 74.9019C714.686 82.5057 712.9 88.695 709.327 93.4695C705.839 98.1556 700.651 101.339 693.761 103.019L724 144Z" fill="white"/>
<path d="M579.866 44V96.9032C579.866 99.7419 579.947 102.667 580.11 105.677C580.353 108.602 580.962 111.269 581.936 113.677C582.991 116.086 584.615 118.065 586.807 119.613C588.998 121.075 592.083 121.806 596.061 121.806C600.039 121.806 603.083 121.075 605.193 119.613C607.385 118.065 609.009 116.086 610.064 113.677C611.119 111.269 611.728 108.602 611.89 105.677C612.134 102.667 612.256 99.7419 612.256 96.9032V44H636V100.387C636 115.527 632.712 126.581 626.137 133.548C619.643 140.516 609.617 144 596.061 144C582.504 144 572.438 140.516 565.863 133.548C559.288 126.581 556 115.527 556 100.387V44H579.866Z" fill="white"/>
<path d="M495.951 123.841H502.083C509.119 123.841 514.158 123.001 517.2 121.321C520.242 119.641 521.763 116.944 521.763 113.231C521.763 109.517 520.242 106.821 517.2 105.141C514.158 103.461 509.119 102.621 502.083 102.621H495.951V123.841ZM495.951 83.2573H501.085C509.832 83.2573 514.205 80.0301 514.205 73.5756C514.205 67.1211 509.832 63.8939 501.085 63.8939H495.951V83.2573ZM468 44H509.642C519.529 44 527.04 46.2104 532.174 50.6313C537.308 55.0522 539.875 61.4182 539.875 69.7294C539.875 74.7692 538.877 78.9691 536.88 82.3289C534.979 85.6003 532.031 88.3855 528.038 90.6843C532.031 91.3917 535.406 92.4969 538.163 94C541.016 95.4147 543.297 97.183 545.009 99.305C546.815 101.427 548.099 103.814 548.859 106.467C549.62 109.119 550 111.949 550 114.955C550 119.641 549.097 123.797 547.29 127.422C545.579 131.047 543.107 134.097 539.875 136.573C536.737 139.049 532.887 140.905 528.323 142.143C523.76 143.381 518.626 144 512.922 144H468V44Z" fill="white"/>
<path fill-rule="evenodd" clip-rule="evenodd" d="M78.7842 0.260285C78.8239 0.437669 78.7133 0.613973 78.5358 0.656228C76.3174 1.18441 71.7908 4.06474 72.0542 11.4377C72.2 15.5204 73.8197 17.7054 75.4877 19.9556L75.4879 19.9558C75.6983 20.2396 75.9095 20.5245 76.1185 20.8143C77.0529 22.1096 77.9416 23.5034 78.4837 25.3303C79.0261 27.1583 79.2153 29.3972 78.7889 32.3826C78.0916 37.2633 74.6822 39.9514 70.7788 41.324C67.8301 42.3608 64.5718 42.6602 61.9054 42.5964C65.759 43.8548 70.8536 44.7855 75.645 44.1754C78.5241 43.8088 81.2804 42.8876 83.5945 41.16C85.9052 39.4348 87.7934 36.892 88.9196 33.2485C91.2333 25.7634 95.0313 22.3184 98.9005 21.112C102.748 19.9123 106.584 20.9536 108.942 22.2766C109.078 22.3528 109.143 22.5124 109.099 22.6613C109.054 22.8101 108.912 22.9085 108.757 22.8984C106.23 22.7336 102.604 23.3308 99.9166 25.6235C97.2532 27.896 95.4449 31.8929 96.6425 38.6788C97.4082 43.0174 97.0945 46.4085 96.0614 49.0426C95.0269 51.6802 93.2805 53.5339 91.2263 54.8097C87.1347 57.3506 81.8252 57.5986 78.4248 57.2586C75.2532 56.9414 72.697 59.3225 72.2177 62.0383C71.9802 63.3845 72.2569 64.8017 73.2234 66.0049C74.1921 67.2108 75.8799 68.2332 78.52 68.7282C83.8289 69.7236 88.6373 68.6451 92.3249 66.6979C96.0245 64.7443 98.5588 61.9378 99.3655 59.5178C100.215 56.9698 101.918 53.1299 104.575 50.2595C107.241 47.3782 110.903 45.4444 115.612 46.8394C115.761 46.8838 115.86 47.0254 115.85 47.1805C115.839 47.3356 115.722 47.4628 115.568 47.4869C113.844 47.7563 111.329 48.8306 109.444 51.181C107.567 53.5212 106.29 57.1586 107.088 62.6065C107.602 66.1185 107.09 68.946 105.972 71.1925C104.855 73.4367 103.144 75.0796 101.292 76.2424C99.4417 77.4044 97.4436 78.0915 95.7355 78.4245C94.8811 78.5911 94.0942 78.6701 93.4297 78.6742C93.021 78.6767 92.6486 78.651 92.331 78.5958C92.6447 80.535 93.6367 82.8325 95.6439 84.0392C97.793 85.3312 101.244 85.4498 106.585 82.2452C109.985 80.2051 112.644 79.3625 114.884 79.1461C117.125 78.9296 118.92 79.3428 120.569 79.7656C120.684 79.7951 120.798 79.8246 120.911 79.8539C122.433 80.2469 123.824 80.6061 125.399 80.4929C127.079 80.3722 128.999 79.7089 131.489 77.8829C136.563 74.1621 140.93 72.2597 144.826 72.2597C148.746 72.2597 152.117 74.1833 155.192 77.9406C155.296 78.0683 155.291 78.2528 155.18 78.3746C155.069 78.4964 154.884 78.5188 154.747 78.4271C153.129 77.3486 150.33 76.4517 147.221 77.2927C144.122 78.1309 140.65 80.7141 137.715 86.7182C135.845 90.5424 133.879 92.5234 131.809 93.3303C129.736 94.1382 127.64 93.7371 125.593 92.9908C124.618 92.6356 123.641 92.1965 122.674 91.7622L122.674 91.7621L122.525 91.6954C121.505 91.2375 120.497 90.7894 119.491 90.4396C117.48 89.74 115.534 89.4525 113.624 90.2482C111.649 91.0711 110.058 92.2665 108.541 93.4848C108.345 93.6421 108.15 93.8001 107.955 93.9578L107.954 93.9583C106.652 95.0131 105.364 96.056 103.922 96.8053C102.247 97.6754 100.357 98.1552 97.961 97.851C95.576 97.5481 92.709 96.4711 89.0655 94.2682C81.9729 89.9798 73.3544 91.8567 66.6185 95.5801C63.2578 97.4378 60.3936 99.7414 58.4583 101.926C57.4902 103.018 56.7623 104.072 56.3186 105.017C56.0118 105.671 55.8492 106.254 55.824 106.753C57.9132 104.926 61.3587 103.007 65.5192 102.664C70.0545 102.29 75.4001 103.793 80.719 109.248C83.3117 111.907 85.856 113.328 88.2594 113.894C90.662 114.459 92.9496 114.174 95.0405 113.38C99.2363 111.787 102.623 108.144 104.453 105.26C104.538 105.126 104.706 105.07 104.855 105.127C105.004 105.184 105.091 105.337 105.065 105.493C104.497 108.841 102.917 113.891 100.01 118.181C97.1007 122.473 92.8336 126.043 86.896 126.319C83.2453 126.489 80.535 126.15 78.3685 125.549C76.2011 124.949 74.593 124.09 73.1506 123.241C72.8885 123.087 72.6329 122.934 72.3811 122.783C71.2405 122.1 70.1788 121.464 68.9472 120.992C67.4577 120.42 65.717 120.09 63.321 120.255C58.4629 120.59 55.9355 121.592 54.5831 122.706C53.2493 123.804 53.0126 125.047 52.8468 126.041C52.6956 126.949 53.0006 128.171 53.9912 128.971C54.9713 129.762 56.6972 130.197 59.4977 129.374C61.0161 128.927 62.7715 129.113 64.6225 129.581C66.3596 130.02 68.2244 130.72 70.1096 131.428L70.1099 131.428L70.4904 131.571C72.514 132.33 74.5577 133.08 76.5335 133.537C78.5095 133.995 80.3889 134.152 82.0863 133.748C82.2449 133.711 82.4077 133.792 82.4714 133.942C82.5351 134.091 82.4812 134.265 82.3438 134.352C81.033 135.186 77.3827 136.443 72.9679 135.063C70.3135 134.234 64.657 133.32 59.2651 134.896C56.5755 135.683 53.9578 137.086 51.8056 139.424C49.8321 141.567 48.2366 144.51 47.3434 148.516C51.3896 144.658 61.0111 139.716 73.2127 145.563C79.321 148.489 83.753 150.122 86.8388 150.97C88.3817 151.395 89.5835 151.622 90.4867 151.717C91.3875 151.813 91.9671 151.776 92.288 151.69C92.3581 151.665 92.4242 151.64 92.4862 151.616C92.6524 151.552 92.8403 151.629 92.9128 151.791C92.9853 151.953 92.917 152.144 92.7575 152.224C92.6767 152.264 92.5865 152.297 92.4887 152.325C90.2218 153.122 84.5228 154.085 77.6972 152.247C73.3365 151.073 68.8596 150.587 65.4942 151.531C63.8191 152 62.435 152.82 61.4677 154.071C60.5009 155.322 59.9263 157.036 59.9263 159.337C59.9263 159.521 59.7767 159.67 59.5923 159.67H0.333988C0.149532 159.67 0 159.521 0 159.337V18.5239C0 18.3402 0.149532 18.1913 0.333988 18.1913H42.0791C45.6249 18.2476 51.129 18.5176 56.122 19.1456C58.6178 19.4595 60.9946 19.8639 62.9385 20.3785C63.9105 20.6357 64.7808 20.9223 65.5067 21.242C65.7214 21.3365 65.9253 21.4347 66.1166 21.5369C64.7497 18.5383 63.7867 14.3835 64.8194 10.4475C66.0072 5.9201 69.8083 1.77781 78.3904 0.00698023C78.5691 -0.0298894 78.7444 0.0829014 78.7842 0.260285ZM132.599 12.8162C132.771 12.763 132.955 12.8558 133.014 13.0257C134.098 16.1634 134.59 20.899 132.479 24.8697C130.351 28.8726 125.635 31.9947 116.527 31.9947C116.35 31.9947 116.204 31.8573 116.194 31.6815C116.071 29.5894 117.794 24.9863 125.17 22.2546C132.311 19.6099 132.884 15.0514 132.376 13.2226C132.328 13.0494 132.427 12.8694 132.599 12.8162ZM152.577 35.7088C152.737 35.71 152.874 35.8244 152.903 35.9814C153.307 38.1748 153.154 41.5135 151.369 44.418C149.572 47.342 146.152 49.7747 140.132 50.1851C140.029 50.1922 139.927 50.1507 139.859 50.0729C139.79 49.9951 139.762 49.8899 139.782 49.7883C140.014 48.6297 140.618 46.8528 141.684 45.256C142.751 43.6593 144.305 42.207 146.445 41.779C150.303 41.0075 151.924 37.5908 152.247 35.9764C152.278 35.8199 152.417 35.7076 152.577 35.7088ZM113.363 59.873C115.209 56.5846 119.085 54.165 126.316 54.5743C126.477 54.5834 126.608 54.7059 126.628 54.8654C126.648 55.0248 126.551 55.1757 126.397 55.2238C125.523 55.497 124.19 56.0566 123.05 56.8394C121.895 57.6325 121.02 58.5975 120.902 59.6592C120.724 61.2573 119.929 62.9142 118.602 64.6263C117.274 66.3399 115.399 68.1275 113.028 69.99C112.94 70.0591 112.823 70.0797 112.717 70.0449C112.611 70.0102 112.529 69.9247 112.499 69.8172C111.756 67.1314 111.539 63.1245 113.363 59.873ZM140.83 104.836C144.12 101.198 149.871 99.0318 159.383 101.07C159.544 101.104 159.656 101.252 159.646 101.416C159.635 101.58 159.506 101.712 159.341 101.726C157.394 101.893 154.479 102.378 152.06 103.281C150.85 103.734 149.785 104.283 149.029 104.934C148.276 105.583 147.855 106.307 147.855 107.122C147.855 108.162 147.393 109.206 146.688 110.196C145.981 111.188 145.011 112.154 143.946 113.045C141.815 114.826 139.265 116.338 137.564 117.189C137.465 117.238 137.348 117.235 137.251 117.181C137.154 117.127 137.091 117.029 137.082 116.918C136.796 113.438 137.562 108.45 140.83 104.836ZM130.673 134.592C132.667 134.222 135.123 133.037 138.56 130.438C138.674 130.352 138.831 130.348 138.95 130.428C139.068 130.508 139.122 130.655 139.084 130.793C138.286 133.641 136.374 137.709 133.213 140.665C130.036 143.634 125.594 145.478 119.804 143.824C118.327 143.402 116.992 143.004 115.774 142.641L115.771 142.64L115.77 142.64C114.058 142.129 112.577 141.688 111.263 141.347C109.016 140.764 107.321 140.495 105.872 140.676C103.021 141.033 100.989 143.154 97.6101 148.729C97.539 148.847 97.4029 148.909 97.2672 148.885C97.1316 148.862 97.0243 148.758 96.9969 148.624C96.4257 145.825 96.3876 141.553 98.1507 137.829C99.9265 134.078 103.514 130.92 110.098 130.372C117.014 129.795 120.795 131.602 123.841 133.059L123.843 133.059C124.402 133.327 124.937 133.582 125.461 133.809C127.136 134.533 128.697 134.959 130.673 134.592ZM170 160H137.937V156.008H165.992V22.2124H137.937V18.2207H170V160Z" fill="#FF852D"/>
</svg>