<svg width="692" height="692" viewBox="0 0 692 692" fill="none" xmlns="http://www.w3.org/2000/svg">
<circle cx="346" cy="346" r="345" stroke="white" stroke-opacity="0.1" stroke-width="2"/>
<circle cx="346" cy="346" r="236" stroke="white" stroke-opacity="0.2" stroke-width="2"/>
<circle cx="346" cy="346" r="146" stroke="white" stroke-opacity="0.4" stroke-width="2"/>
<circle cx="346" cy="346" r="100" fill="#B53B00"/>
<path d="M370 362.32C366.96 362.32 364.24 363.52 362.16 365.4L333.64 348.8C333.84 347.88 334 346.96 334 346C334 345.04 333.84 344.12 333.64 343.2L361.84 326.76C364 328.76 366.84 330 370 330C376.64 330 382 324.64 382 318C382 311.36 376.64 306 370 306C363.36 306 358 311.36 358 318C358 318.96 358.16 319.88 358.36 320.8L330.16 337.24C328 335.24 325.16 334 322 334C315.36 334 310 339.36 310 346C310 352.64 315.36 358 322 358C325.16 358 328 356.76 330.16 354.76L358.64 371.4C358.44 372.24 358.32 373.12 358.32 374C358.32 380.44 363.56 385.68 370 385.68C376.44 385.68 381.68 380.44 381.68 374C381.68 367.56 376.44 362.32 370 362.32Z" fill="white"/>
<circle cx="168" cy="190" r="52" fill="#B53B00"/>
<path d="M181.884 177.593C179.295 176.382 176.526 175.501 173.631 175C173.276 175.643 172.861 176.507 172.574 177.195C169.497 176.732 166.449 176.732 163.429 177.195C163.142 176.507 162.718 175.643 162.359 175C159.461 175.501 156.69 176.385 154.1 177.6C148.878 185.492 147.462 193.188 148.17 200.774C151.634 203.361 154.991 204.932 158.291 205.961C159.106 204.839 159.833 203.647 160.459 202.391C159.266 201.938 158.124 201.378 157.045 200.729C157.331 200.517 157.611 200.296 157.882 200.067C164.464 203.146 171.615 203.146 178.118 200.067C178.392 200.296 178.672 200.517 178.955 200.729C177.872 201.382 176.727 201.941 175.535 202.394C176.161 203.647 176.885 204.842 177.703 205.964C181.006 204.936 184.366 203.364 187.83 200.774C188.661 191.979 186.411 184.354 181.884 177.593ZM161.355 196.109C159.38 196.109 157.759 194.264 157.759 192.018C157.759 189.772 159.345 187.924 161.355 187.924C163.366 187.924 164.986 189.769 164.951 192.018C164.954 194.264 163.366 196.109 161.355 196.109ZM174.645 196.109C172.669 196.109 171.049 194.264 171.049 192.018C171.049 189.772 172.634 187.924 174.645 187.924C176.655 187.924 178.275 189.769 178.241 192.018C178.241 194.264 176.655 196.109 174.645 196.109Z" fill="white"/>
<circle cx="540" cy="222" r="52" fill="#B53B00"/>
<path d="M520.098 203L535.541 223.649L520 240.438H523.498L537.104 225.739L548.097 240.438H560L543.688 218.627L558.153 203H554.655L542.125 216.537L532 203H520.098ZM525.241 205.576H530.709L554.856 237.862H549.387L525.241 205.576Z" fill="white"/>
<circle cx="252" cy="562" r="52" fill="#B53B00"/>
<path d="M252.675 568.081C256.391 568.081 259.364 565.117 259.364 561.411C259.364 557.705 256.391 554.74 252.675 554.74C248.959 554.74 245.986 557.705 245.986 561.411C245.986 565.117 248.959 568.081 252.675 568.081Z" fill="white"/>
<path fill-rule="evenodd" clip-rule="evenodd" d="M232.186 571.091C232.434 577.021 235.902 580.974 241.847 581.715C245.316 582.209 257.95 581.962 260.923 581.715C267.364 581.468 271.575 577.268 271.823 570.844C272.071 564.915 272.071 558.985 271.823 553.056C271.575 546.632 267.364 542.432 260.923 542.185C254.977 541.938 249.032 541.938 243.086 542.185C236.645 542.432 232.434 546.385 232.186 552.809C231.938 558.738 231.938 564.915 232.186 571.091ZM252.675 551.034C258.373 551.034 263.08 555.728 262.832 561.411C262.832 567.093 258.125 571.787 252.427 571.787C246.977 571.787 242.27 567.093 242.27 561.411C242.27 555.728 246.977 551.034 252.675 551.034ZM260.852 550.787C260.852 552.269 262.091 553.258 263.329 553.258C264.815 553.258 265.806 552.022 265.806 550.787C265.806 549.305 264.567 548.316 263.329 548.316C261.843 548.316 260.852 549.552 260.852 550.787Z" fill="white"/>
<path d="M252.675 568.081C256.391 568.081 259.364 565.117 259.364 561.411C259.364 557.705 256.391 554.74 252.675 554.74C248.959 554.74 245.986 557.705 245.986 561.411C245.986 565.117 248.959 568.081 252.675 568.081Z" stroke="white" stroke-width="0.34443" stroke-miterlimit="10"/>
<path fill-rule="evenodd" clip-rule="evenodd" d="M232.186 571.091C232.434 577.021 235.902 580.974 241.847 581.715C245.316 582.209 257.95 581.962 260.923 581.715C267.364 581.468 271.575 577.268 271.823 570.844C272.071 564.915 272.071 558.985 271.823 553.056C271.575 546.632 267.364 542.432 260.923 542.185C254.977 541.938 249.032 541.938 243.086 542.185C236.645 542.432 232.434 546.385 232.186 552.809C231.938 558.738 231.938 564.915 232.186 571.091ZM252.675 551.034C258.373 551.034 263.08 555.728 262.832 561.411C262.832 567.093 258.125 571.787 252.427 571.787C246.977 571.787 242.27 567.093 242.27 561.411C242.27 555.728 246.977 551.034 252.675 551.034ZM260.852 550.787C260.852 552.269 262.091 553.258 263.329 553.258C264.815 553.258 265.806 552.022 265.806 550.787C265.806 549.305 264.567 548.316 263.329 548.316C261.843 548.316 260.852 549.552 260.852 550.787Z" stroke="white" stroke-width="0.34443" stroke-miterlimit="10"/>
</svg>
